<svg width="1275" height="1651" version="1.1" xmlns="http://www.w3.org/2000/svg" desc="Created with imagetracer.js version 1.2.6" ><path fill="rgb(11,11,11)" stroke="rgb(11,11,11)" stroke-width="1" opacity="1" d="M 623.5 227 Q 628.3 226.3 629 229.5 Q 628.4 232.3 634.5 231 L 636.5 232 L 637.5 231 L 649.5 231 Q 651.5 235 653.5 231 Q 658.3 229.7 659.5 232 L 660.5 231 L 668.5 231 Q 670 233.5 671.5 230 L 675.5 232 L 676.5 231 L 683 231 L 685.5 227 Q 690.3 226.3 691 229.5 L 691 243.5 L 688.5 246 L 683.5 245 Q 682.3 247.2 677.5 246 L 675.5 246 L 671.5 245 L 669.5 245 L 667.5 246 L 664.5 245 L 661.5 246 L 659.5 246 L 651.5 245 L 649.5 246 L 647.5 245 L 644.5 246 L 642.5 245 L 640.5 245 L 638.5 246 L 635.5 245 L 627.5 246 L 625.5 246 L 617.5 245 L 615.5 246 L 613.5 245 L 609.5 245 L 607.5 246 L 605.5 246 Q 598.5 247.5 597 243.5 L 596 234.5 L 600.5 231 L 603.5 232 L 605.5 231 L 608.5 232 L 615.5 231 L 618.5 232 L 621 231 L 623.5 227 Z M 633 236 L 631 239 Q 630 242 633 241 L 633 236 Z " /><path fill="rgb(11,11,11)" stroke="rgb(11,11,11)" stroke-width="1" opacity="1" d="M 153.5 352 L 1119.5 352 L 1124.5 353 L 1127 355.5 L 1128 357.5 L 1128 492.5 L 1124.5 496 L 150.5 496 L 147 492.5 L 147 357.5 L 150.5 353 L 153.5 352 Z M 154 357 L 152 359 L 152 491 L 1123 491 L 1123 491 L 1123 358 L 1120 357 L 154 357 Z " /><path fill="rgb(11,11,11)" stroke="rgb(11,11,11)" stroke-width="1" opacity="1" d="M 180.5 514 L 182.5 514 L 185 516.5 L 186.5 519 Q 188.8 519.8 188 517.5 Q 188.8 514.3 193.5 515 L 196 519 L 208.5 519 L 210.5 521 Q 211.8 517.8 217.5 519 L 219.5 520 L 223 519 Q 222.3 515.2 225.5 514 Q 229.5 513.5 230 516.5 L 231 522.5 Q 228.5 524 230 529.5 Q 232.8 531.2 228.5 533 L 221.5 534 L 219.5 533 Q 218 535.5 212.5 534 L 209.5 533 L 207.5 533 L 205.5 534 L 203.5 533 L 200.5 534 L 198.5 534 L 196.5 533 L 192.5 534 L 190.5 533 L 187.5 534 L 185.5 533 L 183.5 533 L 181.5 534 L 179.5 534 Q 171.7 535.3 169.5 531 L 166.5 534 L 164.5 534 Q 157.8 534.7 156.5 530 L 153.5 534 Q 149.5 534.5 149 531.5 L 151 521.5 L 155.5 516 Q 161.3 515.3 162 519.5 L 162.5 522 Q 164 517.5 171.5 519 L 173.5 519 L 176.5 518 L 178 518.5 Q 177.5 514.5 180.5 514 Z M 157 521 L 156 525 L 158 524 L 157 521 Z M 194 525 L 193 529 L 194 529 L 194 525 Z " /><path fill="rgb(255,255,255)" stroke="rgb(255,255,255)" stroke-width="1" opacity="1" d="M 0 0 L 1275 0 L 1275 1651 L 0 1651 L 0 0 Z M 624 227 L 621 231 L 619 232 L 616 231 L 609 232 L 606 231 L 604 232 L 601 231 L 596 235 L 597 244 Q 599 248 606 246 L 608 246 L 610 245 L 614 245 L 616 246 L 618 245 L 626 246 L 628 246 L 636 245 L 639 246 L 641 245 L 643 245 L 645 246 L 648 245 L 650 246 L 652 245 L 660 246 L 662 246 L 665 245 L 668 246 L 670 245 L 672 245 L 676 246 L 678 246 Q 682 247 684 245 L 689 246 L 691 244 L 691 230 Q 690 226 686 227 L 683 231 L 677 231 L 676 232 L 672 230 Q 670 233 669 231 L 661 231 L 660 232 Q 658 230 654 231 Q 652 235 650 231 L 638 231 L 637 232 L 635 231 Q 628 232 629 230 Q 628 226 624 227 Z M 154 352 L 151 353 L 147 358 L 147 493 L 151 496 L 1125 496 L 1128 493 L 1128 358 L 1127 356 L 1125 353 L 1120 352 L 154 352 Z M 181 514 Q 178 515 178 519 L 177 518 L 174 519 L 172 519 Q 164 518 163 522 L 162 520 Q 161 515 156 516 L 151 522 L 149 532 Q 149 534 154 534 L 157 530 Q 158 535 165 534 L 167 534 L 170 531 Q 172 535 180 534 L 182 534 L 184 533 L 186 533 L 188 534 L 191 533 L 193 534 L 197 533 L 199 534 L 201 534 L 204 533 L 206 534 L 208 533 L 210 533 L 213 534 Q 218 536 220 533 L 222 534 L 229 533 Q 233 531 230 530 Q 229 524 231 523 L 230 517 Q 229 513 226 514 Q 222 515 223 519 L 220 520 L 218 519 Q 212 518 211 521 L 209 519 L 196 519 L 194 515 Q 189 514 188 518 Q 189 520 187 519 L 185 517 L 183 514 L 181 514 Z " /><path fill="rgb(255,255,255)" stroke="rgb(255,255,255)" stroke-width="1" opacity="1" d="M 632.5 236 L 633 241 Q 630 242.3 631 238.5 L 632.5 236 Z " /><path fill="rgb(255,255,255)" stroke="rgb(255,255,255)" stroke-width="1" opacity="1" d="M 153.5 357 L 1119.5 357 L 1123 358 L 1123 490.5 L 1122.5 491 L 152 491 L 152 358.5 L 153.5 357 Z " /><path fill="rgb(255,255,255)" stroke="rgb(255,255,255)" stroke-width="1" opacity="1" d="M 156.5 521 L 158 523.5 L 156 524.5 L 156.5 521 Z " /><path fill="rgb(255,255,255)" stroke="rgb(255,255,255)" stroke-width="1" opacity="1" d="M 193.5 525 L 194 528.5 L 193 528.5 L 193.5 525 Z " /></svg>