<?xml version="1.0" encoding="utf-8" ?>
<svg baseProfile="full" height="1541px" version="1.1" width="1284px" xmlns="http://www.w3.org/2000/svg" xmlns:ev="http://www.w3.org/2001/xml-events" xmlns:xlink="http://www.w3.org/1999/xlink"><defs /><path d="M524,434 L520,434 L519,434 L510,434 L509,434" fill="none" stroke="black" /><path d="M583,433 L581,434 L580,434 L575,434 L574,434 L570,434 L569,434 L560,434 L559,434 L550,434 L549,434 L540,434 L539,434 L530,434 L529,434" fill="none" stroke="black" /><path d="M525,520 L524,517 L524,516 L524,511 L524,510 L524,505 L524,504 L524,500 L524,499 L524,494 L524,493 L524,488 L524,487 L524,482 L524,481 L524,477 L524,476 L524,471 L524,470 L524,465 L524,464 L524,459 L524,458 L524,454 L524,453 L524,448 L524,447 L524,443 L524,442 L524,437 L524,436" fill="none" stroke="black" /><path d="M524,434 L524,432 L524,431 L524,426 L524,425 L524,421 L524,420 L524,415 L524,414 L524,410 L524,409 L524,404 L524,403 L524,399 L524,398 L524,393 L524,392 L524,388 L524,387 L524,382 L524,381 L524,377 L524,376 L524,371 L524,370 L524,366 L524,365 L524,360 L524,359 L524,355 L524,354 L524,349 L524,348" fill="none" stroke="black" /><path d="M657,433 L652,434 L651,434 L643,434 L642,434 L634,434 L633,434 L625,434 L624,434 L616,434 L615,434 L607,434 L606,434 L598,434 L597,434 L589,434 L588,434" fill="none" stroke="black" /><path d="M583,433 L584,429 L584,428 L587,422 L588,421 L593,416 L594,415 L601,410 L602,409 L609,405 L610,405 L617,401 L618,401 L625,398 L626,397 L634,394 L635,394 L642,391 L643,391" fill="none" stroke="black" /><path d="M724,434 L724,433 L724,432 L724,427 L724,426 L724,421 L724,420 L724,415 L724,414 L724,410 L724,409 L724,404 L724,403 L724,399 L724,398 L724,393 L724,392 L724,388 L724,387 L724,382 L724,381 L724,377 L724,376 L724,371 L724,370 L724,366 L724,365 L724,360 L724,359 L724,355 L724,354 L724,349 L724,348" fill="none" stroke="black" /><path d="M810,480 L807,482 L806,482 L801,480 L800,480 L791,477 L790,477 L785,475 L784,475 L779,473 L778,473 L773,471 L772,470 L768,469 L767,468 L764,467 L763,467 L756,464 L755,463 L750,461 L749,460 L745,458 L744,457 L736,452 L735,451 L729,447 L728,446" fill="none" stroke="black" /><path d="M725,518 L724,513 L724,512 L724,504 L724,503 L724,494 L724,493 L724,485 L724,484 L724,475 L724,474 L724,465 L724,464 L724,455 L724,454" fill="none" stroke="black" /><path d="M725,446 L725,445 L725,444 L725,439 L725,438" fill="none" stroke="black" /><path d="M820,434 L814,434 L813,434 L808,434 L807,434 L802,434 L801,434 L796,434 L795,434 L791,434 L790,434 L785,434 L784,434 L779,434 L778,434 L773,434 L772,434 L768,434 L767,434 L762,434 L761,434 L756,434 L755,434 L750,434 L749,434 L745,434 L744,434 L739,434 L738,434 L734,434 L733,434 L728,434 L727,434" fill="none" stroke="black" /><path d="M724,434 L723,434 L722,434 L717,434 L716,434 L712,434 L711,434 L706,434 L705,434" fill="none" stroke="black" /><path d="M1116,434 L1113,434 L1112,434 L1107,434 L1106,434 L1101,434 L1100,434 L1096,434 L1095,434 L1090,434 L1089,434 L1084,434 L1083,434 L1078,434 L1077,434 L1073,434 L1072,434 L1067,434 L1066,434 L1061,434 L1060,434 L1055,434 L1054,434 L1050,434 L1049,434 L1044,434 L1043,434 L1039,434 L1038,434 L1033,434 L1032,434 L1028,434 L1027,434" fill="none" stroke="black" /><path d="M1147,435 L1143,434 L1142,434 L1135,434 L1134,434 L1127,434 L1126,434 L1119,434 L1118,434" fill="none" stroke="black" /><path d="M1116,520 L1117,517 L1117,516 L1117,511 L1117,510 L1117,505 L1117,504 L1117,500 L1117,499 L1117,494 L1117,493 L1117,489 L1117,488 L1117,483 L1117,482 L1117,478 L1117,477 L1117,472 L1117,471 L1117,466 L1117,465 L1117,460 L1117,459 L1117,455 L1117,454 L1117,449 L1117,448 L1117,444 L1117,443 L1117,438 L1117,437" fill="none" stroke="black" /><path d="M1116,434 L1116,433 L1116,432 L1116,426 L1116,425" fill="none" stroke="black" /><path d="M1116,422 L1117,419 L1117,418 L1117,410 L1117,409 L1117,404 L1117,403 L1117,399 L1117,398 L1117,393 L1117,392 L1117,388 L1117,387 L1117,382 L1117,381 L1117,377 L1117,376 L1117,371 L1117,370 L1117,366 L1117,365 L1117,360 L1117,359 L1117,355 L1117,354 L1117,349 L1117,348" fill="none" stroke="black" /><path d="M1116,422 L1112,420 L1111,420 L1105,415 L1104,414 L1096,409 L1095,408 L1090,405 L1089,405 L1084,402 L1083,402 L1077,399 L1076,398 L1073,397 L1072,397 L1067,395 L1066,395 L1062,393 L1061,393 L1056,391 L1055,391 L1051,389 L1050,389 L1044,387 L1043,387 L1038,385 L1037,385" fill="none" stroke="black" /><path d="M891,412 L890,409 L890,408 L890,403 L890,402 L890,398 L890,397 L890,390 L890,389 L890,382 L890,381 L890,374 L890,373 L890,367 L890,366 L890,360 L890,359 L890,353 L890,352" fill="none" stroke="black" /><path d="M890,434 L890,432 L890,431 L890,423 L890,422 L892,415 L892,414" fill="none" stroke="black" /><path d="M946,350 L942,353 L941,354 L936,358 L935,359 L932,362 L931,363 L924,371 L923,372 L919,377 L918,378 L915,382 L914,383 L912,386 L911,387 L908,392 L907,393 L904,398 L903,399 L901,403 L900,404 L898,408 L898,409 L894,412 L893,413" fill="none" stroke="black" /><path d="M891,520 L890,517 L890,516 L890,511 L890,510 L890,505 L890,504 L890,500 L890,499 L890,494 L890,493 L890,488 L890,487 L890,482 L890,481 L890,477 L890,476 L890,471 L890,470 L890,465 L890,464 L890,459 L890,458 L890,454 L890,453 L890,448 L890,447 L890,443 L890,442 L890,437 L890,436" fill="none" stroke="black" /><path d="M983,435 L978,434 L977,434 L969,434 L968,434 L959,434 L958,434 L950,434 L949,434 L942,434 L941,434 L934,434 L933,434 L926,434 L925,434 L919,434 L918,434 L911,434 L910,434 L903,434 L902,434 L895,434 L894,434" fill="none" stroke="black" /><path d="M890,434 L888,434 L887,434 L880,434 L879,434 L872,434 L871,434 L864,434 L863,434" fill="none" stroke="black" /><path d="M747,1312 L743,1311 L742,1311 L734,1311 L733,1311" fill="none" stroke="black" /><path d="M753,1309 L752,1310 L751,1310" fill="none" stroke="black" /><path d="M737,1336 L739,1332 L740,1331 L744,1323 L745,1322 L748,1315 L748,1314" fill="none" stroke="black" /><path d="M813,1311 L811,1311 L810,1311" fill="none" stroke="black" /><path d="M808,1309 L805,1311 L804,1311 L799,1311 L798,1311 L796,1311 L795,1311 L788,1311 L787,1311 L781,1311 L780,1311 L773,1311 L772,1311 L766,1311 L765,1311 L762,1311 L761,1311" fill="none" stroke="black" /><path d="M753,1309 L754,1303 L755,1302 L760,1293 L761,1292 L765,1285 L766,1284 L773,1277 L774,1276 L780,1274 L781,1274 L788,1277 L789,1278 L795,1284 L795,1285 L800,1292 L800,1293 L805,1302 L806,1303" fill="none" stroke="black" /><path d="M870,1309 L870,1307 L870,1306 L870,1302 L870,1301" fill="none" stroke="black" /><path d="M924,1310 L924,1309 L924,1308 L922,1301 L921,1300 L917,1293 L917,1292 L912,1284 L911,1283 L906,1278 L905,1277 L898,1274 L897,1274 L890,1277 L889,1278 L882,1286 L882,1287 L877,1294 L876,1296" fill="none" stroke="black" /><path d="M924,1310 L920,1311 L919,1311 L914,1311 L913,1311 L909,1311 L908,1311 L903,1311 L902,1311 L898,1311 L897,1311 L891,1311 L890,1311 L885,1311 L884,1311 L878,1311 L877,1311 L872,1311 L871,1310" fill="none" stroke="black" /><path d="M866,1323 L866,1322 L866,1321 L867,1314 L867,1313" fill="none" stroke="black" /><path d="M867,1380 L868,1376 L868,1375 L868,1367 L868,1366 L868,1358 L868,1357 L868,1349 L868,1348 L868,1343 L868,1342 L868,1337 L868,1336 L868,1332 L868,1331" fill="none" stroke="black" /><path d="M866,1323 L862,1325 L861,1325 L858,1331 L857,1332 L854,1336 L854,1337 L851,1341 L850,1342 L841,1347 L840,1347 L835,1346 L834,1346 L829,1343 L828,1342 L823,1335 L822,1334 L819,1328 L818,1327 L815,1322 L815,1321 L813,1317 L812,1316" fill="none" stroke="black" /><path d="M870,1309 L864,1310 L863,1310 L856,1310 L855,1310 L848,1310 L847,1310 L841,1309 L840,1309 L833,1310 L832,1310 L826,1310 L825,1310 L820,1310 L819,1310" fill="none" stroke="black" /><path d="M989,1308 L988,1309 L987,1310 L985,1311 L984,1311" fill="none" stroke="black" /><path d="M929,1322 L926,1327 L925,1327 L925,1321 L926,1321" fill="none" stroke="black" /><path d="M982,1312 L982,1318 L982,1319 L977,1328 L977,1329 L974,1334 L973,1335 L968,1342 L967,1343 L963,1346 L962,1346 L957,1347 L956,1347 L952,1346 L951,1346 L947,1344 L946,1343 L943,1339 L942,1338 L939,1333 L938,1331 L936,1329 L936,1328 L932,1323 L931,1323" fill="none" stroke="black" /><path d="M982,1312 L976,1311 L975,1311 L968,1311 L967,1311 L960,1311 L959,1311 L952,1311 L951,1311 L945,1311 L944,1311 L938,1311 L937,1311" fill="none" stroke="black" /><path d="M929,1322 L930,1319 L930,1318" fill="none" stroke="black" /><path d="M930,1312 L928,1311 L927,1311" fill="none" stroke="black" /><path d="M875,1298 L868,1295 L868,1294 L868,1289 L868,1288 L868,1283 L868,1282 L868,1277 L868,1276 L868,1272 L868,1271 L868,1264 L868,1263 L868,1257 L868,1256 L868,1249 L868,1248 L868,1242 L868,1241 L868,1234 L868,1233 L868,1227 L868,1226 L868,1220 L868,1219" fill="none" stroke="black" /><path d="M1100,1312 L1093,1311 L1092,1311 L1088,1311 L1087,1311 L1081,1311 L1080,1311 L1074,1311 L1073,1311 L1067,1311 L1066,1311 L1060,1311 L1059,1311 L1055,1311 L1054,1311" fill="none" stroke="black" /><path d="M1100,1312 L1100,1318 L1099,1319 L1094,1328 L1094,1329 L1089,1337 L1088,1338 L1084,1342 L1083,1343 L1081,1345 L1080,1346 L1074,1347 L1073,1347 L1068,1346 L1067,1345 L1061,1339 L1060,1338 L1054,1329 L1053,1328 L1049,1319 L1048,1318" fill="none" stroke="black" /><path d="M1106,1309 L1103,1311 L1102,1311" fill="none" stroke="black" /><path d="M1146,1308 L1142,1311 L1141,1311 L1133,1311 L1132,1311 L1125,1311 L1124,1311 L1118,1311 L1117,1311 L1110,1311 L1109,1311" fill="none" stroke="black" /><path d="M1106,1309 L1107,1303 L1108,1302 L1111,1296 L1112,1295 L1113,1293 L1113,1292 L1117,1286 L1118,1285 L1122,1280 L1123,1279" fill="none" stroke="black" /><path d="M989,1308 L990,1303 L990,1302 L995,1293 L996,1292 L999,1287 L999,1286 L1003,1281 L1004,1280 L1005,1279 L1006,1278 L1010,1275 L1011,1275 L1016,1274 L1017,1274 L1025,1278 L1026,1279 L1029,1283 L1030,1284 L1033,1289 L1034,1290 L1036,1294 L1037,1295 L1041,1303 L1041,1304" fill="none" stroke="black" /><path d="M1042,1310 L1036,1311 L1035,1311 L1031,1311 L1030,1311 L1024,1311 L1023,1311 L1017,1311 L1016,1311 L1009,1311 L1008,1311 L1002,1311 L1001,1311 L997,1311 L996,1311" fill="none" stroke="black" /><path d="M1048,1312 L1046,1311 L1045,1311" fill="none" stroke="black" /><path d="M1006,797 L1008,800 L1008,801 L1006,808 L1006,809 L1004,816 L1004,817 L1002,824 L1002,825 L1000,832 L1000,833 L998,840 L998,841 L996,848 L995,849 L993,856 L993,857 L990,865 L990,866 L988,872 L987,873 L985,880 L984,881 L982,888 L981,889 L978,896 L977,897 L974,904 L973,905 L968,913 L967,914 L962,919 L961,920 L953,923 L952,923 L944,920 L943,919 L937,912 L936,911 L931,904 L931,903 L927,896 L927,895 L924,888 L923,887 L920,879 L920,878 L917,871 L917,870 L914,862 L914,861 L912,856 L912,855 L910,849 L910,848 L908,840 L907,839 L905,832 L905,831 L904,825 L903,824 L902,817 L901,816 L900,809 L900,808 L898,801 L898,800" fill="none" stroke="black" /><path d="M1028,949 L1026,949 L1025,949 L1018,949 L1017,949 L1011,949 L1010,949 L1001,949 L1000,949 L991,949 L990,949 L981,949 L980,949 L971,949 L970,949 L961,949 L960,949 L951,949 L950,949 L941,949 L940,949 L931,949 L930,949 L921,949 L920,949 L911,949 L910,949 L901,949 L900,949 L891,949 L890,949 L881,949 L880,949 L871,949 L870,949 L861,949 L860,949" fill="none" stroke="black" /><path d="M1028,949 L1028,944 L1028,943 L1028,938 L1028,937 L1028,932 L1028,931 L1028,926 L1028,925 L1028,919 L1028,918 L1028,913 L1028,912 L1028,907 L1028,906 L1028,901 L1028,900 L1028,895 L1028,894 L1028,889 L1028,888 L1028,883 L1028,882 L1028,876 L1028,875 L1028,870 L1028,869 L1028,864 L1028,863 L1028,858 L1028,857 L1028,852 L1028,851 L1028,846 L1028,845 L1028,840 L1028,839 L1028,834 L1028,833 L1028,827 L1028,826 L1028,821 L1028,820 L1028,815 L1028,814 L1028,809 L1028,808 L1028,803 L1028,802 L1028,797 L1028,796 L1028,791 L1028,790" fill="none" stroke="black" /><path d="M1031,978 L1028,975 L1028,974 L1028,969 L1028,968 L1028,963 L1028,962 L1028,957 L1028,956 L1028,952 L1028,951" fill="none" stroke="black" /><path d="M1078,947 L1074,949 L1073,949 L1065,949 L1064,949 L1056,949 L1055,949 L1047,949 L1046,949 L1041,949 L1040,949 L1036,949 L1035,949" fill="none" stroke="black" /><path d="M781,948 L777,949 L776,949 L769,949 L768,949 L761,949 L760,949 L754,949 L753,949 L746,949 L745,949 L739,949 L738,949 L731,949 L730,949 L724,949 L723,949 L714,949 L713,949 L704,949 L703,949 L696,949 L695,949 L689,949 L688,949 L680,949 L679,949 L674,949 L673,949" fill="none" stroke="black" /><path d="M668,948 L669,945 L669,944 L672,939 L673,938 L678,930 L678,929 L681,925 L681,924 L685,916 L685,915 L687,910 L688,909 L690,904 L690,903 L692,899 L692,898 L695,889 L696,888 L697,884 L697,883 L699,878 L699,877 L702,869 L702,868 L705,859 L705,858 L708,849 L708,848 L710,839 L711,838 L713,829 L713,828 L716,819 L716,818 L718,809 L718,808 L720,799 L721,798" fill="none" stroke="black" /><path d="M650,947 L649,944 L649,943 L645,938 L644,937 L639,930 L639,929 L634,920 L633,919 L629,910 L629,909 L625,900 L625,899 L622,890 L621,889 L618,880 L618,879 L615,870 L615,869 L612,860 L612,859 L609,850 L609,849 L607,840 L607,839 L604,830 L604,829 L602,820 L602,819 L600,810 L599,809 L597,800 L597,799" fill="none" stroke="black" /><path d="M658,948 L653,947 L652,947" fill="none" stroke="black" /><path d="M668,948 L667,948 L666,948 L662,948 L661,948" fill="none" stroke="black" /><path d="M657,981 L659,978 L659,977 L659,972 L659,971 L659,965 L659,964 L659,959 L659,958 L659,952 L659,951" fill="none" stroke="black" /><path d="M658,948 L658,946 L659,945 L659,940 L659,939 L659,934 L659,933 L659,927 L659,926 L659,921 L659,920 L659,914 L659,913 L659,908 L659,907 L659,901 L659,900 L659,895 L659,894 L659,889 L659,888 L659,883 L659,882 L659,876 L659,875 L659,870 L659,869 L659,863 L659,862 L659,857 L659,856 L659,850 L659,849 L659,844 L659,843 L659,838 L659,837 L659,832 L659,831 L659,825 L659,824 L659,819 L659,818 L659,813 L659,812 L659,807 L659,806 L659,800 L659,799 L659,794 L659,793 L659,788 L659,787" fill="none" stroke="black" /><path d="M650,947 L644,949 L643,949 L638,949 L637,949 L628,949 L627,949 L621,949 L620,949 L614,949 L613,949 L604,949 L603,949 L595,949 L594,949 L588,949 L587,949 L581,949 L580,949 L574,949 L573,949 L567,949 L566,949 L560,949 L559,949 L553,949 L552,949 L546,949 L545,949" fill="none" stroke="black" /><path d="M309,1312 L307,1311 L306,1311 L302,1311 L301,1311 L294,1311 L293,1311 L287,1311 L286,1311 L279,1311 L278,1311 L271,1311 L270,1311 L263,1311 L262,1311 L256,1311 L255,1311 L248,1311 L247,1311 L240,1311 L239,1311 L232,1311 L231,1311 L225,1311 L224,1311 L217,1311 L216,1311 L210,1311 L209,1311 L202,1310 L201,1310" fill="none" stroke="black" /><path d="M309,1312 L312,1306 L312,1305 L312,1299 L312,1298 L312,1293 L312,1292 L312,1288 L312,1287 L312,1282 L312,1281 L312,1277 L312,1276 L312,1271 L312,1270 L312,1266 L312,1265 L312,1256 L312,1255 L312,1250 L312,1249 L312,1245 L312,1244 L312,1239 L312,1238 L312,1234 L312,1233 L312,1228 L312,1227 L312,1223 L312,1222" fill="none" stroke="black" /><path d="M315,1308 L314,1310 L315,1308 L314,1308 L313,1309" fill="none" stroke="black" /><path d="M314,1382 L312,1379 L312,1378 L312,1374 L312,1373 L312,1368 L312,1367 L312,1363 L312,1362 L312,1357 L312,1356 L312,1352 L312,1351 L312,1342 L312,1341 L312,1336 L312,1335 L312,1331 L312,1330 L312,1325 L312,1324 L312,1320 L312,1319 L312,1316 L312,1315" fill="none" stroke="black" /><path d="M309,1315" fill="none" stroke="black" /><path d="M427,1311 L423,1311 L422,1311 L416,1311 L415,1311 L409,1311 L408,1311 L402,1311 L401,1311 L395,1311 L394,1311 L388,1311 L387,1311 L381,1311 L380,1311 L374,1311 L373,1311 L367,1311 L366,1311 L360,1311 L359,1311 L353,1311 L352,1311 L346,1311 L345,1311 L339,1311 L338,1311 L332,1311 L331,1311 L325,1311 L324,1311 L318,1311 L317,1311" fill="none" stroke="black" /><path d="M317,434 L316,434 L315,434 L310,434 L309,434 L305,434 L304,434 L299,434 L298,434" fill="none" stroke="black" /><path d="M415,435 L411,434 L410,434 L405,434 L404,434 L398,434 L397,434 L392,434 L391,434 L385,434 L384,434 L379,434 L378,434 L373,434 L372,434 L367,434 L366,434 L360,434 L359,434 L354,434 L353,434 L347,434 L346,434 L341,434 L340,434 L334,434 L333,434 L328,434 L327,434 L322,434 L321,434" fill="none" stroke="black" /><path d="M318,482 L317,477 L317,476 L317,469 L317,468 L317,461 L317,460 L317,454 L317,453 L317,448 L317,447 L317,443 L317,442" fill="none" stroke="black" /><path d="M319,518 L317,513 L317,512 L317,504 L317,503 L317,494 L317,493 L317,485 L317,484" fill="none" stroke="black" /><path d="M415,435 L415,437 L414,438 L412,440 L411,440 L405,442 L404,442 L398,444 L397,444 L392,446 L391,446 L386,448 L385,448 L379,450 L378,451 L373,452 L372,453 L367,455 L366,455 L360,457 L359,458 L354,460 L353,460 L347,463 L346,464 L341,466 L340,467 L331,473 L330,474 L325,478 L324,479 L323,481 L322,481 L320,482 L319,482" fill="none" stroke="black" /><path d="M457,432 L454,432 L453,432 L450,432 L449,432 L444,432 L443,433 L439,433 L438,433 L433,434 L432,434 L428,434 L427,434 L418,435 L417,435" fill="none" stroke="black" /><path d="M317,434 L317,433 L317,432 L317,427 L317,426 L317,421 L317,420 L317,415 L317,414 L317,410 L317,409 L317,404 L317,403 L317,399 L317,398 L317,393 L317,392 L317,388 L317,387 L317,382 L317,381 L317,377 L317,376 L317,371 L317,370 L317,366 L317,365 L317,360 L317,359 L317,355 L317,354 L317,349 L317,348" fill="none" stroke="black" /><path d="M162,420 L161,417 L161,416 L161,411 L161,410 L161,405 L161,404 L161,400 L161,399 L161,394 L161,393 L161,389 L161,388 L161,383 L161,382 L161,378 L161,377 L161,372 L161,371 L161,367 L161,366 L161,361 L161,360 L161,356 L161,355 L161,350 L161,349" fill="none" stroke="black" /><path d="M161,434 L161,433 L161,432 L161,423 L162,422" fill="none" stroke="black" /><path d="M247,386 L244,384 L243,384 L238,386 L237,386 L228,389 L227,389 L222,391 L221,391 L216,393 L215,393 L210,395 L209,396 L205,397 L204,398 L195,402 L194,402 L188,405 L187,406 L182,408 L181,409 L176,412 L175,413 L170,417 L169,418" fill="none" stroke="black" /><path d="M162,520 L161,517 L161,516 L161,511 L161,510 L161,505 L161,504 L161,500 L161,499 L161,494 L161,493 L161,489 L161,488 L161,483 L161,482 L161,478 L161,477 L161,472 L161,471 L161,466 L161,465 L161,460 L161,459 L161,455 L161,454 L161,449 L161,448 L161,444 L161,443 L161,438 L161,437" fill="none" stroke="black" /><path d="M255,435 L251,434 L250,434 L245,434 L244,434 L239,434 L238,434 L233,434 L232,434 L228,434 L227,434 L222,434 L221,434 L216,434 L215,434 L210,434 L209,434 L205,434 L204,434 L199,434 L198,434 L193,434 L192,434 L187,434 L186,434 L182,434 L181,434 L176,434 L175,434 L171,434 L170,434 L165,434 L164,434" fill="none" stroke="black" /><path d="M161,434 L160,434 L159,434 L154,434 L153,434 L148,434 L147,434 L142,434 L141,434" fill="none" stroke="black" /></svg>