<?xml version="1.0" encoding="utf-8" ?>
<svg baseProfile="full" height="1755px" version="1.1" width="1240px" xmlns="http://www.w3.org/2000/svg" xmlns:ev="http://www.w3.org/2001/xml-events" xmlns:xlink="http://www.w3.org/1999/xlink"><defs /><path d="M907,1327 L899,1328 L898,1328 L890,1328 L889,1328 L881,1323 L880,1323 L872,1321 L871,1321 L863,1318 L862,1318 L854,1315 L853,1315 L848,1313 L847,1312 L843,1310 L842,1309 L836,1306 L835,1305 L827,1300 L826,1299 L822,1296 L821,1295 L815,1290 L814,1289 L809,1284 L808,1283 L805,1279 L804,1278 L801,1274 L800,1273 L797,1269 L796,1268 L793,1263 L792,1262 L789,1256 L788,1255 L786,1250 L785,1249 L782,1243 L782,1242 L780,1237 L780,1236 L778,1231 L777,1230 L776,1226 L776,1225 L774,1219 L774,1218 L773,1213 L773,1212 L772,1207 L772,1206 L772,1201 L772,1200 L771,1195 L771,1194 L770,1189 L769,1188 L771,1182 L771,1181 L772,1176 L772,1175 L772,1170 L772,1169 L773,1164 L773,1163 L774,1158 L774,1157 L776,1151 L776,1150 L778,1145 L778,1144 L780,1140 L780,1139 L782,1133 L783,1132 L785,1127 L786,1126 L789,1120 L789,1119 L792,1114 L793,1113 L796,1108 L797,1107 L800,1103 L801,1102 L804,1098 L805,1097 L808,1093 L809,1092 L811,1090 L812,1089 L816,1085 L817,1084 L825,1078 L826,1077 L832,1073 L833,1072 L840,1068 L841,1067 L849,1063 L850,1063 L856,1060 L857,1060 L864,1057 L865,1056 L872,1054 L873,1054 L880,1052 L881,1052 L889,1050 L890,1050 L898,1048 L899,1048 L907,1048 L908,1048 L916,1049 L917,1049 L925,1050 L926,1050 L934,1051 L935,1051 L943,1053 L944,1053 L951,1055 L952,1055 L961,1059 L962,1059 L970,1062 L971,1063 L979,1067 L980,1068 L986,1071 L987,1072 L991,1075 L992,1076 L994,1077 L995,1078 L1003,1084 L1004,1085 L1008,1089 L1009,1090 L1012,1093 L1013,1094 L1016,1098 L1017,1099 L1020,1103 L1021,1104 L1023,1107 L1024,1108 L1029,1116 L1030,1117 L1032,1121 L1033,1122 L1035,1127 L1036,1128 L1038,1133 L1038,1134 L1040,1139 L1040,1140 L1042,1145 L1042,1146 L1044,1151 L1044,1152 L1045,1157 L1045,1158 L1046,1163 L1047,1164 L1047,1169 L1048,1170 L1048,1175 L1048,1176 L1049,1181 L1049,1182 L1051,1187 L1051,1188 L1049,1192 L1049,1193 L1049,1198 L1048,1199 L1048,1204 L1048,1205 L1047,1210 L1047,1211 L1045,1216 L1044,1217 L1043,1222 L1043,1223 L1041,1228 L1041,1229 L1039,1235 L1039,1236 L1037,1240 L1037,1241 L1035,1246 L1035,1247 L1032,1252 L1032,1253 L1031,1255 L1030,1255 L1029,1258 L1028,1259 L1023,1267 L1022,1268 L1020,1271 L1019,1272 L1016,1276 L1015,1277 L1012,1281 L1011,1282 L1008,1285 L1007,1286 L1003,1290 L1002,1291 L994,1297 L993,1298 L987,1302 L986,1303 L980,1307 L979,1307 L971,1311 L970,1312 L962,1315 L961,1315 L953,1318 L952,1319 L944,1321 L943,1321 L935,1323 L934,1323 L926,1325 L925,1325 L917,1325 L916,1326" fill="none" stroke="black" /></svg>