<?xml version="1.0" encoding="utf-8" ?>
<svg baseProfile="full" height="1755px" version="1.1" width="1240px" xmlns="http://www.w3.org/2000/svg" xmlns:ev="http://www.w3.org/2001/xml-events" xmlns:xlink="http://www.w3.org/1999/xlink"><defs /><path d="M858,500 L854,500 L853,500 L846,500 L845,500" fill="none" stroke="black" /><path d="M858,509 L858,505 L858,504" fill="none" stroke="black" /><path d="M1132,500 L1128,500 L1127,500 L1121,500 L1120,500 L1113,500 L1112,500 L1106,500 L1105,500 L1098,500 L1097,500 L1091,500 L1090,500 L1084,500 L1083,500 L1077,500 L1076,500 L1069,500 L1068,500 L1062,500 L1061,500 L1054,500 L1053,500 L1047,500 L1046,500 L1039,500 L1038,500 L1032,500 L1031,500 L1025,500 L1024,500 L1018,500 L1017,500 L1010,500 L1009,500 L1003,500 L1002,500 L995,500 L994,500 L988,500 L987,500 L980,500 L979,500 L973,500 L972,500 L966,500 L965,500 L959,500 L958,500 L951,500 L950,500 L944,500 L943,500 L937,500 L936,500 L930,500 L929,500 L922,500 L921,500 L915,500 L914,500 L908,500 L907,500 L901,500 L900,500 L893,500 L892,500 L885,500 L884,500 L877,500 L876,500 L870,500 L869,500 L862,500 L861,500" fill="none" stroke="black" /><path d="M858,500 L858,498 L858,497 L858,490 L858,489 L858,483 L858,482 L858,475 L858,474 L858,468 L858,467 L858,460 L858,459 L858,453 L858,452 L858,445 L858,444 L858,438 L858,437 L858,430 L858,429 L858,423 L858,422 L858,415 L858,414 L858,408 L858,407 L858,401 L858,400 L858,394 L858,393 L858,386 L858,385 L858,379 L858,378 L858,371 L858,370 L858,364 L858,363 L858,356 L858,355 L858,349 L858,348 L858,341 L858,340 L858,334 L858,333 L858,326 L858,325 L858,319 L858,318 L858,311 L858,310 L858,304 L858,303 L858,296 L858,295 L858,289 L858,288 L858,282 L858,281" fill="none" stroke="black" /><path d="M993,478 L988,478 L987,478 L982,477 L981,477 L976,476 L975,476 L970,475 L969,475 L963,473 L962,473 L957,471 L956,470 L951,468 L950,468 L945,465 L944,464 L939,461 L938,460 L934,457 L933,456 L929,452 L928,451 L926,449 L925,448 L921,443 L920,442 L915,434 L914,433 L910,426 L910,425 L907,418 L907,417 L904,409 L904,408 L903,402 L903,401 L902,394 L902,393 L902,387 L902,386 L902,378 L902,377 L903,370 L903,369 L905,362 L905,361 L908,354 L908,353 L910,348 L911,347 L913,342 L914,341 L919,333 L920,332 L923,328 L924,327 L927,323 L928,322 L929,321 L930,320 L936,315 L937,314 L945,309 L946,308 L951,305 L952,305 L957,302 L958,302 L963,300 L964,300 L969,298 L970,298 L975,297 L976,296 L981,296 L982,296 L987,295 L988,295 L993,295 L994,295 L999,295 L1000,295 L1005,296 L1006,296 L1011,296 L1012,297 L1017,298 L1018,298 L1022,299 L1023,300 L1028,301 L1029,302 L1033,304 L1034,305 L1039,305 L1040,305 L1042,307 L1043,308 L1046,311 L1047,312 L1050,314 L1051,315 L1056,319 L1057,320 L1060,323 L1061,324 L1065,329 L1066,330 L1070,336 L1071,337 L1075,345 L1076,346 L1079,354 L1079,355 L1082,363 L1082,364 L1083,370 L1083,371 L1085,378 L1085,379 L1085,386 L1085,387 L1085,393 L1085,394 L1084,401 L1084,402 L1082,409 L1082,410 L1080,417 L1079,418 L1076,426 L1076,427 L1072,435 L1071,436 L1067,442 L1066,443 L1062,448 L1061,449 L1056,454 L1055,455 L1050,459 L1049,460 L1047,461 L1046,462 L1043,464 L1042,465 L1038,467 L1037,468 L1032,470 L1031,470 L1027,472 L1026,472 L1017,475 L1016,475 L1011,476 L1010,477 L1005,477 L1004,478 L999,478 L998,478" fill="none" stroke="black" /><path d="M341,384 L341,383 L341,382 L343,375 L343,374 L345,365 L345,364 L348,358 L349,358 L352,357 L353,357 L357,357 L358,357 L363,357 L364,357 L368,357 L369,357 L374,357 L375,357 L379,357 L380,357 L385,357 L386,357 L390,357 L391,357 L396,357 L397,357 L401,357 L402,357 L407,357 L408,357 L413,357 L414,357 L419,357 L420,357 L424,357 L425,357 L430,357 L431,357 L435,357 L436,357 L441,357 L442,357 L446,357 L447,357 L452,357 L453,357 L458,357 L459,357 L464,357 L465,357 L469,357 L470,357 L475,357 L476,357 L480,357 L481,357 L486,357 L487,357 L491,357 L492,357 L497,357 L498,357 L503,357 L504,357" fill="none" stroke="black" /><path d="M341,392 L338,389 L338,388" fill="none" stroke="black" /><path d="M341,384 L337,385 L336,384" fill="none" stroke="black" /></svg>