<?xml version="1.0" encoding="utf-8" ?>
<svg baseProfile="full" height="1541px" version="1.1" width="1285px" xmlns="http://www.w3.org/2000/svg" xmlns:ev="http://www.w3.org/2001/xml-events" xmlns:xlink="http://www.w3.org/1999/xlink"><defs /><path d="M152,896 L150,894 L149,894 L143,891 L142,891 L139,889 L138,888 L133,883 L132,882 L124,876 L123,875 L117,871 L116,871 L108,868 L107,868 L100,867 L99,868 L92,869 L91,869" fill="none" stroke="black" /><path d="M234,894 L230,897 L229,896 L227,895 L226,895 L221,895 L220,895 L216,895 L215,895 L210,895 L209,895 L205,895 L204,895 L199,895 L198,895 L194,895 L193,895 L188,895 L187,895 L183,895 L182,895 L177,895 L176,895 L172,895 L171,895 L166,895 L165,895 L161,895 L160,895 L155,895 L154,895" fill="none" stroke="black" /><path d="M230,900 L227,902 L226,903 L225,904 L223,905 L221,907 L220,908 L216,912 L215,913 L210,916 L209,917 L205,919 L204,920 L198,922 L197,922 L194,923 L193,923 L188,923 L187,923 L183,922 L182,922 L177,921 L176,920 L172,918 L171,917 L166,914 L165,913 L159,908 L158,907 L153,902 L152,901" fill="none" stroke="black" /><path d="M235,967 L234,962 L234,961 L234,952 L234,951 L234,942 L234,941 L234,932 L234,931 L234,925 L234,924 L234,918 L234,917 L234,912 L234,911 L234,905 L234,904 L233,901 L232,900" fill="none" stroke="black" /><path d="M241,894 L238,894 L237,894" fill="none" stroke="black" /><path d="M230,900 L230,899 L231,898" fill="none" stroke="black" /><path d="M234,894 L234,893 L234,892 L234,884 L234,883 L234,875 L234,874 L234,866 L234,865 L234,857 L234,856 L234,848 L234,847 L234,839 L234,838 L234,830 L234,829" fill="none" stroke="black" /><path d="M406,908 L405,907 L404,908 L399,910 L398,911 L393,915 L392,916 L386,919 L385,920 L380,922 L379,923 L374,924 L373,924 L368,925 L367,925 L362,924 L361,924 L355,922 L354,922 L349,919 L348,919 L344,916 L343,915 L339,912 L338,911 L333,907 L332,905 L327,900 L326,900 L324,899 L323,898 L318,896 L317,895" fill="none" stroke="black" /><path d="M316,894 L308,895 L307,895 L298,895 L297,895 L288,895 L287,895 L278,895 L277,895 L268,895 L267,895 L258,895 L257,895 L248,895 L247,895" fill="none" stroke="black" /><path d="M241,894 L242,890 L243,889 L246,886 L247,885 L252,881 L253,880 L259,876 L260,875 L263,873 L264,872 L268,871 L269,870 L277,869 L278,869 L287,870 L288,870 L294,873 L296,874 L297,875 L298,875 L307,882 L308,883 L315,890 L315,891" fill="none" stroke="black" /><path d="M420,894 L421,891 L421,890 L428,883 L429,882 L438,875 L439,875 L440,874 L441,873 L448,870 L449,870 L458,869 L459,869 L467,870 L468,870 L471,872 L473,873 L477,875 L478,876 L487,883 L488,884 L494,890 L494,891" fill="none" stroke="black" /><path d="M495,894 L487,895 L486,895 L478,895 L477,895 L468,895 L467,895 L459,895 L458,895 L449,895 L448,895 L439,895 L438,895 L429,895 L428,895" fill="none" stroke="black" /><path d="M544,923 L541,922 L540,922 L535,921 L534,920 L529,918 L528,917 L526,916 L524,915 L523,914 L522,913 L518,910 L517,909 L510,903 L509,902 L504,899 L503,899 L497,896 L496,895" fill="none" stroke="black" /><path d="M406,908 L406,906 L407,905 L411,898 L412,898 L418,895 L419,894" fill="none" stroke="black" /><path d="M408,915 L407,912 L407,911" fill="none" stroke="black" /><path d="M917,897 L914,895 L913,895 L908,895 L907,895 L902,895 L901,895 L897,895 L896,895 L891,895 L890,895 L886,895 L885,895 L880,895 L879,895 L875,895 L874,895 L869,895 L868,895 L864,895 L863,895 L858,895 L857,895 L853,895 L852,895 L847,895 L846,895 L842,895 L841,895 L836,895 L835,895" fill="none" stroke="black" /><path d="M917,897 L916,899 L916,900 L915,904 L914,905 L910,907 L909,908 L904,912 L903,913 L897,917 L896,918 L891,921 L890,921 L886,923 L885,923 L880,924 L879,924 L875,925 L874,925 L869,924 L868,924 L864,923 L863,922 L854,918 L853,917 L845,911 L844,910 L839,906 L838,904 L835,901 L834,900" fill="none" stroke="black" /><path d="M921,893 L920,893 L919,895" fill="none" stroke="black" /><path d="M1017,896 L1015,895 L1014,894 L1009,894 L1008,894" fill="none" stroke="black" /><path d="M1006,893 L1003,895 L1002,895 L997,895 L996,895 L991,895 L990,895 L986,895 L985,895 L980,895 L979,895 L974,895 L973,895 L968,895 L967,895 L963,895 L962,895 L957,895 L956,895 L952,895 L951,895 L946,895 L945,895 L941,895 L940,895 L935,895 L934,895 L930,895 L929,895" fill="none" stroke="black" /><path d="M921,893 L924,890 L925,889 L932,882 L933,881 L942,874 L943,873 L945,872 L946,871 L952,868 L953,868 L962,866 L963,866 L967,866 L968,866 L973,867 L974,867 L979,869 L980,870 L985,873 L986,873 L990,876 L991,877 L996,881 L997,882 L1002,886 L1003,887 L1005,890 L1006,891" fill="none" stroke="black" /><path d="M1092,896 L1085,895 L1084,895 L1075,895 L1074,895 L1065,895 L1064,895 L1055,895 L1054,895 L1045,895 L1044,895 L1035,895 L1034,895 L1025,895 L1024,895" fill="none" stroke="black" /><path d="M1092,896 L1092,899 L1092,900 L1088,904 L1087,905 L1082,910 L1081,911 L1075,915 L1074,916 L1065,920 L1064,920 L1055,922 L1054,922 L1045,920 L1044,920 L1035,915 L1034,915 L1025,908 L1024,907 L1018,901 L1017,900" fill="none" stroke="black" /><path d="M1115,884 L1113,883 L1112,884 L1108,887 L1107,888 L1104,891 L1103,891 L1095,894 L1094,895" fill="none" stroke="black" /><path d="M833,896 L831,896 L830,896 L827,894 L826,894" fill="none" stroke="black" /><path d="M824,893 L824,890 L823,889 L817,883 L816,882 L815,881 L814,880 L808,876 L807,875 L801,871 L800,871 L794,868 L793,868 L787,867 L786,867" fill="none" stroke="black" /><path d="M785,894 L785,889 L785,888 L785,881 L785,880 L785,873 L785,872" fill="none" stroke="black" /><path d="M824,893 L820,895 L819,895 L814,895 L813,895 L807,895 L806,895 L797,895 L796,895 L787,895 L786,895" fill="none" stroke="black" /><path d="M784,967 L785,962 L785,961 L785,953 L785,952 L785,943 L785,942 L785,934 L785,933 L785,924 L785,923 L785,915 L785,914 L785,906 L785,905 L785,897 L785,896" fill="none" stroke="black" /><path d="M785,894 L781,895 L780,895 L776,895 L775,895 L766,895 L765,895 L756,895 L755,895" fill="none" stroke="black" /><path d="M747,893 L749,888 L750,887 L757,881 L758,880 L765,875 L766,874 L775,869 L776,869 L780,868 L781,868" fill="none" stroke="black" /><path d="M785,867 L785,866 L785,865 L785,859 L785,858 L785,849 L785,848 L785,840 L785,839 L785,831 L785,830" fill="none" stroke="black" /><path d="M736,896 L732,895 L731,895 L727,895 L726,895 L717,895 L716,895 L707,895 L706,895 L697,895 L696,895 L687,895 L686,895 L677,895 L676,895 L667,895 L666,895" fill="none" stroke="black" /><path d="M736,896 L735,900 L735,901 L729,907 L728,908 L723,912 L722,913 L717,916 L716,917 L708,921 L707,921 L702,923 L701,923 L697,923 L696,923 L691,923 L690,922 L686,921 L685,921 L677,917 L676,916 L667,909 L666,908 L660,902 L659,901" fill="none" stroke="black" /><path d="M747,893 L746,894 L745,894 L738,896 L737,896" fill="none" stroke="black" /><path d="M659,896 L657,894 L656,894 L650,891 L649,891 L647,890 L646,889 L642,885 L641,884" fill="none" stroke="black" /><path d="M777,1166 L770,1166 L769,1166 L763,1166 L762,1166 L755,1166 L754,1166 L748,1166 L747,1166 L740,1166 L739,1166 L733,1166 L732,1166 L726,1166 L725,1166 L719,1166 L718,1166 L711,1166 L710,1166 L704,1166 L703,1166 L696,1166 L695,1166 L689,1166 L688,1166 L681,1166 L680,1166 L674,1166 L673,1166 L667,1166 L666,1166 L660,1166 L659,1166 L652,1166 L651,1166 L645,1166 L644,1166 L637,1166 L636,1166 L630,1166 L629,1166 L622,1166 L621,1166 L615,1166 L614,1166 L608,1166 L607,1166 L601,1166 L600,1166 L593,1166 L592,1166 L586,1166 L585,1166 L579,1166 L578,1166 L572,1166 L571,1166 L564,1166 L563,1166 L557,1166 L556,1166 L550,1166 L549,1166 L544,1160 L544,1159 L544,1152 L544,1151 L544,1144 L544,1143 L544,1137 L544,1136 L544,1129 L544,1128 L544,1121 L544,1120 L544,1113 L544,1112 L549,1107 L550,1107 L556,1107 L557,1107 L563,1107 L564,1107 L571,1107 L572,1107 L578,1107 L579,1107 L585,1107 L586,1107 L592,1107 L593,1107 L600,1107 L601,1107 L607,1107 L608,1107 L614,1107 L615,1107 L621,1107 L622,1107 L629,1107 L630,1107 L636,1107 L637,1107 L644,1107 L645,1107 L651,1107 L652,1107 L659,1107 L660,1107 L666,1107 L667,1107 L673,1107 L674,1107 L680,1107 L681,1107 L688,1107 L689,1107 L695,1107 L696,1107 L703,1107 L704,1107 L710,1107 L711,1107 L718,1107 L719,1107 L725,1107 L726,1107 L732,1107 L733,1107 L739,1107 L740,1107 L747,1107 L748,1107 L754,1107 L755,1107 L762,1107 L763,1107 L769,1107 L770,1107 L777,1107 L778,1107 L784,1107 L785,1107 L791,1107 L792,1107 L798,1107 L799,1107 L806,1107 L807,1107 L813,1107 L814,1107 L820,1107 L821,1107 L827,1107 L828,1107 L835,1107 L836,1107 L842,1107 L843,1107 L849,1107 L850,1107 L856,1107 L857,1107 L864,1107 L865,1107 L871,1107 L872,1107 L879,1107 L880,1107 L886,1107 L887,1107 L894,1107 L895,1107 L901,1107 L902,1107 L908,1107 L909,1107 L915,1107 L916,1107 L923,1107 L924,1107 L930,1107 L931,1107 L938,1107 L939,1107 L945,1107 L946,1107 L953,1107 L954,1107 L960,1107 L961,1107 L967,1107 L968,1107 L974,1107 L975,1107 L982,1107 L983,1107 L989,1107 L990,1107 L997,1107 L998,1107 L1004,1107 L1005,1107 L1011,1112 L1011,1113 L1011,1120 L1011,1121 L1011,1128 L1011,1129 L1011,1136 L1011,1137 L1011,1143 L1011,1144 L1011,1151 L1011,1152 L1011,1159 L1011,1160 L1005,1166 L1004,1166 L998,1166 L997,1166 L990,1166 L989,1166 L983,1166 L982,1166 L975,1166 L974,1166 L968,1166 L967,1166 L961,1166 L960,1166 L954,1166 L953,1166 L946,1166 L945,1166 L939,1166 L938,1166 L931,1166 L930,1166 L924,1166 L923,1166 L916,1166 L915,1166 L909,1166 L908,1166 L902,1166 L901,1166 L895,1166 L894,1166 L887,1166 L886,1166 L880,1166 L879,1166 L872,1166 L871,1166 L865,1166 L864,1166 L857,1166 L856,1166 L850,1166 L849,1166 L843,1166 L842,1166 L836,1166 L835,1166 L828,1166 L827,1166 L821,1166 L820,1166 L814,1166 L813,1166 L807,1166 L806,1166 L799,1166 L798,1166 L792,1166 L791,1166 L785,1166 L784,1166" fill="none" stroke="black" /><path d="M1148,664 L1145,665 L1144,665 L1139,665 L1138,665 L1133,665 L1132,665 L1127,665 L1126,665 L1121,665 L1120,665 L1115,665 L1114,665 L1109,665 L1108,665 L1103,665 L1102,665 L1097,665 L1096,665 L1091,665 L1090,665 L1085,665 L1084,665 L1079,665 L1078,665 L1073,665 L1072,665 L1067,665 L1066,665 L1061,665 L1060,665 L1056,665 L1055,665 L1050,665 L1049,665 L1044,665 L1043,665 L1038,665 L1037,665 L1032,665 L1031,665 L1026,665 L1025,665 L1020,665 L1019,665 L1014,665 L1013,665 L1008,665 L1007,665 L1002,665 L1001,665 L996,665 L995,665 L990,665 L989,665 L984,665 L983,665 L978,665 L977,665 L972,665 L971,665 L966,665 L965,665 L961,665 L960,665 L955,665 L954,665 L949,665 L948,665 L943,665 L942,665 L937,665 L936,665 L931,665 L930,665 L925,665 L924,665 L919,665 L918,665 L913,665 L912,665 L907,665 L906,665 L901,665 L900,665 L895,665 L894,665 L889,665 L888,665 L883,665 L882,665 L877,665 L876,665 L871,665 L870,665 L866,665 L865,665 L860,665 L859,665 L854,665 L853,665 L848,665 L847,665 L842,665 L841,665 L836,665 L835,665 L830,665 L829,665 L824,665 L823,665 L819,665 L818,665 L813,665 L812,665 L807,665 L806,665 L801,665 L800,665 L795,665 L794,665 L789,665 L788,665 L783,665 L782,665 L777,665 L776,665 L772,665 L771,665 L766,665 L765,665 L760,665 L759,665 L754,665 L753,665 L748,665 L747,665 L742,665 L741,665 L736,665 L735,665 L730,665 L729,665 L724,665 L723,665 L718,665 L717,665 L712,665 L711,665 L706,665 L705,665 L700,665 L699,665 L694,665 L693,665 L688,665 L687,665 L682,665 L681,665 L677,665 L676,665 L671,665 L670,665 L665,665 L664,665 L659,665 L658,665 L653,665 L652,665 L647,665 L646,665 L641,665 L640,665 L635,665 L634,665 L630,665 L629,665 L624,665 L623,665 L618,665 L617,665 L612,665 L611,665 L606,665 L605,665 L600,665 L599,665 L594,665 L593,665 L588,665 L587,665 L583,665 L582,665 L577,665 L576,665 L571,665 L570,665 L565,665 L564,665 L559,665 L558,665 L553,665 L552,665 L547,665 L546,665 L541,665 L540,665 L535,665 L534,665 L529,665 L528,665 L523,665 L522,665 L517,665 L516,665 L511,665 L510,665 L505,665 L504,665 L499,665 L498,665 L493,665 L492,665 L488,665 L487,665 L482,665 L481,665 L476,665 L475,665 L470,665 L469,665 L464,665 L463,665 L458,665 L457,665 L452,665 L451,665 L446,665 L445,665 L441,665 L440,665 L435,665 L434,665 L429,665 L428,665 L423,665 L422,665 L417,665 L416,665 L411,665 L410,665 L405,665 L404,665 L399,665 L398,665" fill="none" stroke="black" /><path d="M744,346 L744,342 L744,341 L744,335 L744,334 L744,328 L744,327 L743,322 L743,321 L743,315 L743,314 L742,308 L741,307 L740,302 L740,301 L738,295 L738,294 L736,289 L735,288 L733,284 L733,283 L727,274 L726,273 L719,266 L718,264 L714,261 L713,260 L710,257 L709,256 L700,249 L699,248 L693,244 L692,243" fill="none" stroke="black" /><path d="M772,347 L768,347 L767,347 L761,347 L760,347 L753,347 L752,347 L746,347 L745,347" fill="none" stroke="black" /><path d="M744,346 L737,347 L736,347 L731,347 L730,347 L724,347 L723,347 L717,347 L716,347 L710,347 L709,347 L703,347 L702,347 L696,347 L695,347" fill="none" stroke="black" /><path d="M772,371 L772,368 L772,367 L772,363 L772,362 L772,357 L772,356 L772,352 L772,351" fill="none" stroke="black" /><path d="M800,346 L799,347 L798,347 L793,347 L792,347 L787,347 L786,347 L781,347 L780,347 L776,347 L775,347" fill="none" stroke="black" /><path d="M772,347 L772,346 L772,345 L772,341 L772,340 L772,331 L772,330 L772,325 L772,324 L772,320 L772,319 L772,314 L772,313 L772,309 L772,308 L772,303 L772,302 L772,298 L772,297 L772,288 L772,287 L772,282 L772,281 L772,277 L772,276 L772,271 L772,270 L772,266 L772,265 L772,260 L772,259 L772,255 L772,254 L772,245 L772,244 L772,239 L772,238 L772,234 L772,233 L772,224 L772,223 L772,218 L772,217 L772,213 L772,212" fill="none" stroke="black" /><path d="M800,346 L800,342 L800,341 L800,335 L800,334 L800,328 L801,327 L801,322 L801,321 L802,315 L802,314 L803,308 L803,307 L804,301 L804,300 L806,295 L806,294 L810,286 L810,285 L815,277 L816,276 L821,270 L822,269 L825,265 L826,265 L827,263 L828,262 L831,260 L832,259 L837,255 L838,254 L843,250 L844,249 L850,245 L851,244" fill="none" stroke="black" /><path d="M858,345 L856,347 L855,347 L848,347 L847,347 L841,347 L840,347 L834,347 L833,347 L827,347 L826,347 L820,347 L819,347 L813,347 L812,347 L808,347 L807,347" fill="none" stroke="black" /><path d="M1125,343 L1121,346 L1120,346 L1114,346 L1113,346 L1106,346 L1105,346 L1099,346 L1098,346 L1091,346 L1090,346 L1084,346 L1083,346 L1078,346 L1077,346 L1073,346 L1072,346 L1065,346 L1064,346 L1059,346 L1058,346" fill="none" stroke="black" /><path d="M1056,343 L1057,339 L1057,338 L1058,337 L1059,335 L1063,330 L1063,329 L1067,321 L1068,320 L1071,312 L1071,311 L1074,303 L1075,302 L1077,295 L1077,294 L1080,286 L1080,285 L1082,277 L1082,276 L1084,268 L1085,267 L1086,259 L1087,258 L1089,250 L1089,249 L1090,242 L1090,241 L1092,233 L1092,232 L1094,224 L1094,223 L1096,215 L1096,214" fill="none" stroke="black" /><path d="M967,307 L968,305 L968,304 L968,298 L968,297 L968,291 L968,290 L968,284 L968,283 L968,277 L968,276 L968,270 L968,269 L968,263 L968,262 L968,256 L968,255 L968,249 L968,248 L968,242 L968,241 L968,235 L968,234 L968,228 L968,227 L968,221 L968,220 L968,214 L968,213 L968,208 L968,207" fill="none" stroke="black" /><path d="M1056,343 L1054,345 L1053,345 L1047,346 L1046,346 L1041,346 L1040,346 L1035,345 L1034,345 L1029,345 L1028,344" fill="none" stroke="black" /><path d="M967,371 L968,368 L968,367 L968,362 L968,361 L968,356 L968,355 L968,350 L968,349" fill="none" stroke="black" /><path d="M1027,344 L1019,346 L1018,346 L1009,346 L1008,346 L1006,346 L1005,346 L996,346 L995,346 L986,346 L985,346 L980,346 L979,346 L975,346 L974,346 L970,346 L969,346" fill="none" stroke="black" /><path d="M1027,344 L1026,341 L1025,340 L1019,334 L1018,332 L1014,329 L1013,328 L1010,324 L1009,323 L1004,318 L1003,316 L998,312 L997,311 L992,307 L991,307 L986,306 L985,307 L980,308 L979,308 L975,312 L974,313 L969,316 L968,317" fill="none" stroke="black" /><path d="M967,346 L967,342 L967,341 L967,334 L967,333 L967,326 L967,325 L967,319 L967,318" fill="none" stroke="black" /><path d="M965,315 L965,312 L965,311" fill="none" stroke="black" /><path d="M967,307 L964,308 L963,308 L960,303 L960,302 L959,297 L959,296 L958,290 L958,289 L957,284 L957,283 L956,277 L955,276 L955,271 L954,270 L954,265 L953,264 L953,259 L952,258 L951,252 L951,251 L950,246 L950,245 L949,239 L949,238 L948,233 L948,232 L947,226 L947,225 L946,220 L946,219 L945,214 L945,213" fill="none" stroke="black" /><path d="M967,346 L964,346 L963,346 L958,346 L957,346 L953,346 L952,346 L943,346 L942,346 L934,346 L933,346" fill="none" stroke="black" /><path d="M562,276 L562,271 L562,270 L562,262 L562,261 L562,253 L562,252 L562,244 L562,243 L562,234 L562,233 L562,225 L562,224 L562,216 L562,215 L562,207 L562,206" fill="none" stroke="black" /><path d="M599,211 L599,214 L598,215 L595,222 L595,223 L591,231 L591,232 L588,238 L588,239 L586,243 L585,244 L583,249 L582,250 L580,255 L580,256 L577,261 L577,262 L574,268 L573,269 L570,274 L570,275 L568,277 L567,278" fill="none" stroke="black" /><path d="M564,288 L564,286 L564,285 L564,281 L564,280" fill="none" stroke="black" /><path d="M561,301 L560,299 L561,298 L561,292 L561,291" fill="none" stroke="black" /><path d="M616,294 L612,290 L611,290 L604,290 L603,290 L594,290 L593,290 L585,290 L584,290 L575,290 L574,290 L566,290 L565,289" fill="none" stroke="black" /><path d="M563,370 L562,367 L562,366 L562,361 L562,360 L562,354 L562,353 L562,348 L562,347 L562,341 L562,340 L562,335 L562,334 L562,329 L562,328 L562,323 L562,322 L562,317 L562,316 L562,311 L562,310 L562,305 L562,304" fill="none" stroke="black" /><path d="M561,301 L556,301 L555,302 L553,304 L553,305 L549,311 L548,312 L544,318 L543,319 L540,323 L539,324 L536,328 L535,329 L528,336 L527,337 L522,340 L521,341 L518,343 L517,343 L508,346 L507,346 L498,344 L497,344 L491,340 L490,339 L487,335 L486,334 L484,329 L483,328 L481,322 L481,321 L480,317 L480,316 L479,309 L479,308 L478,301 L478,300 L477,293 L477,292" fill="none" stroke="black" /><path d="M564,288 L560,289 L559,289 L554,289 L553,289 L548,289 L547,289 L542,289 L541,289 L536,289 L535,289 L530,289 L529,289 L524,289 L523,289 L518,289 L517,289 L512,289 L511,289 L507,289 L506,289 L497,289 L496,289 L491,289 L490,289 L486,289 L485,289" fill="none" stroke="black" /><path d="M477,289 L476,290 L475,290 L469,290 L468,290 L463,290 L462,290 L457,290 L456,290 L451,290 L450,290 L444,290 L443,290 L438,290 L437,290 L432,290 L431,290" fill="none" stroke="black" /></svg>