<svg width="1240" height="1755" version="1.1" xmlns="http://www.w3.org/2000/svg" desc="Created with imagetracer.js version 1.2.6" ><path fill="rgb(96,96,96)" stroke="rgb(96,96,96)" stroke-width="1" opacity="1" d="M 909.5 1041 Q 913.5 1040.5 914 1043.5 L 914 1047 L 921.5 1047 L 922.5 1048 L 936.5 1049 L 955.5 1054 L 976.5 1063 Q 1000.7 1076.3 1018 1096.5 Q 1032.9 1113.1 1042 1135.5 L 1049 1157.5 L 1051 1175.5 L 1052 1176.5 L 1052 1185 Q 1056.7 1184 1058 1187.5 Q 1058.5 1191.5 1055.5 1192 L 1052 1192 L 1052 1200.5 L 1051 1204.5 L 1053 1212.5 L 1053 1214.5 L 1050.5 1217 Q 1047.9 1216.2 1049 1219.5 L 1041 1244.5 L 1032 1261.5 Q 1019.7 1281.2 1002.5 1296 Q 987.6 1309.1 968.5 1318 L 941.5 1327 L 914 1330 Q 915 1334.7 911.5 1336 L 909.5 1336 L 907 1333.5 Q 908.8 1328.3 903.5 1330 L 900.5 1333 L 899.5 1332 L 896.5 1333 L 893.5 1329 L 887.5 1332 L 882 1328.5 Q 882.8 1326.3 880.5 1327 Q 831.7 1314.8 804 1281.5 Q 789.2 1265.3 780 1243.5 L 772 1218.5 L 769 1192 Q 764.3 1193 763 1189.5 Q 762.5 1185.5 765.5 1185 Q 771.6 1186.8 769 1179.5 L 774 1150.5 L 780 1133.5 L 788 1117.5 Q 800.6 1096.6 818.5 1081 Q 832.7 1068.7 850.5 1060 L 872.5 1052 L 885.5 1049 L 890.5 1049 L 896.5 1045 L 899.5 1045 Q 901.2 1048.5 907 1047 Q 906 1042.3 909.5 1041 Z M 899 1050 L 896 1053 L 873 1057 L 851 1065 Q 833 1074 819 1086 Q 797 1105 785 1134 L 777 1159 L 775 1170 L 774 1187 L 772 1189 L 774 1191 L 777 1219 L 785 1244 Q 794 1265 809 1282 Q 825 1299 847 1310 L 876 1321 L 885 1322 Q 889 1325 888 1327 L 893 1324 Q 898 1323 899 1326 L 907 1325 L 910 1322 L 913 1323 L 914 1322 L 933 1321 L 956 1315 Q 981 1306 1000 1290 Q 1020 1271 1033 1245 L 1041 1221 L 1043 1209 L 1047 1201 L 1047 1191 L 1049 1189 L 1047 1187 L 1047 1177 L 1046 1176 L 1044 1158 L 1037 1136 Q 1028 1113 1013 1097 Q 995 1076 969 1064 L 956 1059 L 937 1054 L 913 1052 Q 911 1048 909 1052 Q 900 1054 899 1050 Z " /><path fill="rgb(255,255,255)" stroke="rgb(255,255,255)" stroke-width="1" opacity="1" d="M 0 0 L 1240 0 L 1240 1755 L 0 1755 L 0 0 Z M 910 1041 Q 906 1042 907 1047 Q 901 1049 900 1045 L 897 1045 L 891 1049 L 886 1049 L 873 1052 L 851 1060 Q 833 1069 819 1081 Q 801 1097 788 1118 L 780 1134 L 774 1151 L 769 1180 Q 772 1187 766 1185 Q 763 1186 763 1190 Q 764 1193 769 1192 L 772 1219 L 780 1244 Q 789 1265 804 1282 Q 832 1315 881 1327 Q 883 1326 882 1329 L 888 1332 L 894 1329 L 897 1333 L 900 1332 L 901 1333 L 904 1330 Q 909 1328 907 1334 L 910 1336 L 912 1336 Q 915 1335 914 1330 L 942 1327 L 969 1318 Q 988 1309 1003 1296 Q 1020 1281 1032 1262 L 1041 1245 L 1049 1220 Q 1048 1216 1051 1217 L 1053 1215 L 1053 1213 L 1051 1205 L 1052 1201 L 1052 1192 L 1056 1192 Q 1059 1191 1058 1188 Q 1057 1184 1052 1185 L 1052 1177 L 1051 1176 L 1049 1158 L 1042 1136 Q 1033 1113 1018 1097 Q 1001 1076 977 1063 L 956 1054 L 937 1049 L 923 1048 L 922 1047 L 914 1047 L 914 1044 Q 914 1041 910 1041 Z " /><path fill="rgb(255,255,255)" stroke="rgb(255,255,255)" stroke-width="1" opacity="1" d="M 898.5 1050 Q 900.5 1054 908.5 1052 Q 910.5 1048 912.5 1052 L 936.5 1054 L 955.5 1059 L 968.5 1064 Q 994.8 1076.2 1013 1096.5 Q 1027.9 1113.1 1037 1135.5 L 1044 1157.5 L 1046 1175.5 L 1047 1176.5 L 1047 1186.5 L 1049 1188.5 L 1047 1190.5 L 1047 1200.5 L 1043 1208.5 L 1041 1220.5 L 1033 1244.5 Q 1020.3 1271.3 999.5 1290 Q 981.1 1306.1 955.5 1315 L 932.5 1321 L 913.5 1322 L 912.5 1323 L 909.5 1322 L 906.5 1325 L 898.5 1326 Q 897.5 1323 892.5 1324 L 887.5 1327 Q 889.3 1324.5 884.5 1322 L 875.5 1321 L 846.5 1310 Q 824.7 1298.8 809 1281.5 Q 794.2 1265.3 785 1243.5 L 777 1218.5 L 774 1190.5 L 772 1188.5 L 774 1186.5 L 775 1169.5 L 777 1158.5 L 785 1133.5 Q 797.1 1105.1 818.5 1086 Q 832.7 1073.7 850.5 1065 L 872.5 1057 L 895.5 1053 L 898.5 1050 Z " /></svg>