<svg width="1284" height="1541" version="1.1" xmlns="http://www.w3.org/2000/svg" desc="Created with imagetracer.js version 1.2.6" ><path fill="rgb(13,13,13)" stroke="rgb(13,13,13)" stroke-width="1" opacity="1" d="M 243.5 122 L 245.5 122 L 248 124.5 L 250 129.5 L 248 132.5 L 248 245 L 261.5 245 L 262 243.5 L 318 130.5 L 320.5 128 Q 324.5 127.5 325 130.5 L 325 134.5 L 270 244.5 L 367.5 245 L 372.5 244 L 378 247.5 L 378 249.5 L 375.5 252 L 368.5 253 L 367.5 252 L 266 252 L 265 256.5 L 248 288.5 L 248 323.5 L 245.5 326 Q 241.5 326.5 241 323.5 L 240.5 305 L 232 322.5 L 228.5 326 Q 224.5 326.5 224 323.5 L 224 320.5 L 241 287.5 L 241 252 L 132.5 252 L 130 249.5 L 129 247.5 L 131.5 245 L 241 245 L 241 132.5 L 240 128.5 L 241 124.5 L 243.5 122 Z M 246 250 L 247 283 L 262 252 L 262 250 L 246 250 Z " /><path fill="rgb(13,13,13)" stroke="rgb(13,13,13)" stroke-width="1" opacity="1" d="M 242.5 389 L 244.5 389 L 247 391.5 L 249 396.5 L 247 399.5 L 247 525 L 251 527.5 Q 251.5 531.5 248.5 532 L 247 532.5 L 247 562 L 249.5 562 L 258 557 Q 257.3 553.2 260.5 552 Q 264.5 552.5 265 549.5 L 277 530.5 L 276 528.5 L 284 515.5 L 291 497.5 L 313 424.5 L 314 414.5 L 317 409.5 L 320 396.5 L 322.5 394 L 324.5 394 L 327 396.5 L 327 401.5 L 323 414.5 L 324 417.5 L 320 424.5 L 304 482.5 L 291 518.5 L 279 542.5 L 264.5 562 L 262 562.5 L 278 563 L 280.5 559 Q 284.5 558.5 285 561.5 L 285.5 563 L 366.5 563 L 369.5 561 L 373.5 562 L 376 564.5 L 375 566.5 Q 377.7 568.3 373.5 570 L 367.5 571 L 366.5 570 L 285.5 570 L 282.5 573 L 280.5 573 L 277.5 570 L 247 570 L 247 597.5 Q 246.5 600.5 242.5 600 L 240 597.5 L 240 570 L 130.5 570 L 128 567.5 L 128 565.5 L 130.5 563 L 226 562.5 L 220 558.5 L 204 534.5 L 189 498.5 L 178 464.5 L 167 422.5 L 164 417.5 L 164 411.5 L 160 397.5 L 162.5 395 L 164.5 395 L 168 397.5 L 171 411.5 Q 174.5 412 174 416.5 L 173 419.5 L 176 426.5 L 189 474.5 L 200 506.5 L 207 522.5 L 211 526.5 L 211 531.5 L 224 552 Q 228.7 551.3 230 555.5 L 232.5 559 L 240 562 L 240 532.5 L 237 529.5 L 237 527.5 L 240 524.5 L 240 399.5 L 239 395.5 L 240 391.5 L 242.5 389 Z M 244 564 L 242 567 Q 244 570 245 567 L 244 564 Z " /><path fill="rgb(13,13,13)" stroke="rgb(13,13,13)" stroke-width="1" opacity="1" d="M 673.5 874 L 1149.5 874 L 1152 876.5 Q 1152.5 880.5 1149.5 881 L 673.5 881 L 671 878.5 Q 670.5 874.5 673.5 874 Z " /><path fill="rgb(13,13,13)" stroke="rgb(13,13,13)" stroke-width="1" opacity="1" d="M 673.5 951 L 1121.5 951 L 1124 953.5 Q 1124.5 957.5 1121.5 958 L 673.5 958 L 671 955.5 L 671 953.5 L 673.5 951 Z " /><path fill="rgb(13,13,13)" stroke="rgb(13,13,13)" stroke-width="1" opacity="1" d="M 444.5 1137 L 1205.5 1137 L 1208 1139.5 Q 1208.8 1144.3 1205.5 1145 L 444.5 1145 L 442 1142.5 Q 441.3 1137.8 444.5 1137 Z " /><path fill="rgb(254,254,254)" stroke="rgb(254,254,254)" stroke-width="1" opacity="1" d="M 241.5 120 L 240.5 122 L 241.5 120 Z " /><path fill="rgb(254,254,254)" stroke="rgb(254,254,254)" stroke-width="1" opacity="1" d="M 244.5 120 L 246.5 121 L 248.5 120 L 248.5 121 L 247 121.5 Q 248.5 124.5 250 121.5 L 250.5 120 L 252.5 120 L 254 120.5 L 252 121 Q 253.5 124.7 250.5 124 L 249.5 125 L 246.5 122 L 244.5 123 L 244.5 120 Z " /><path fill="rgb(254,254,254)" stroke="rgb(254,254,254)" stroke-width="1" opacity="1" d="M 253.5 122 Q 257 124 252.5 126 L 253.5 122 Z " /><path fill="rgb(254,254,254)" stroke="rgb(254,254,254)" stroke-width="1" opacity="1" d="M 255.5 125 L 256 127.5 L 255 130.5 L 255 134.5 L 254.5 136 L 253.5 134 L 252.5 136 L 252 134 L 249.5 133 L 248.5 136 L 248 132.5 L 249 130 L 251 130.5 L 250 132.5 L 253 130.5 L 252.5 129 Q 253.8 131.3 255 128.5 L 254 126.5 L 255.5 125 Z M 254 131 L 253 133 L 255 132 L 254 131 Z " /><path fill="rgb(254,254,254)" stroke="rgb(254,254,254)" stroke-width="1" opacity="1" d="M 250.5 126 L 251.5 128 L 250.5 126 Z " /><path fill="rgb(254,254,254)" stroke="rgb(254,254,254)" stroke-width="1" opacity="1" d="M 313.5 128 L 315.5 129 L 317.5 128 L 317.5 131 L 315.5 130 L 314 130.5 L 314.5 129 Q 312.3 128.3 313 130.5 L 312 130.5 L 313.5 128 Z " /><path fill="rgb(254,254,254)" stroke="rgb(254,254,254)" stroke-width="1" opacity="1" d="M 326.5 128 L 328 129.5 L 327.5 132 L 324 129.5 L 326.5 128 Z " /><path fill="rgb(254,254,254)" stroke="rgb(254,254,254)" stroke-width="1" opacity="1" d="M 314 132 L 316 132.5 L 314 133.5 L 314 132 Z " /><path fill="rgb(254,254,254)" stroke="rgb(254,254,254)" stroke-width="1" opacity="1" d="M 324.5 136 L 324 141.5 L 324.5 143 L 326 140 L 328 140.5 L 327.5 143 L 326.5 142 L 322.5 144 L 321 143.5 L 323 142.5 L 322 140.5 L 324.5 136 Z " /><path fill="rgb(254,254,254)" stroke="rgb(254,254,254)" stroke-width="1" opacity="1" d="M 313.5 139 L 312.5 141 L 313.5 139 Z " /><path fill="rgb(254,254,254)" stroke="rgb(254,254,254)" stroke-width="1" opacity="1" d="M 308.5 144 L 307.5 146 L 308.5 144 Z " /><path fill="rgb(254,254,254)" stroke="rgb(254,254,254)" stroke-width="1" opacity="1" d="M 306.5 147 Q 308.8 146.3 308 148.5 Q 310.3 149.8 307.5 151 Q 304.9 150.2 306 153.5 L 305 153.5 L 306 150.5 L 304.5 148 L 307.5 150 L 306.5 147 Z " /><path fill="rgb(254,254,254)" stroke="rgb(254,254,254)" stroke-width="1" opacity="1" d="M 319.5 147 L 319 148.5 L 320 153 L 318 152.5 L 318 150.5 L 319.5 147 Z " /><path fill="rgb(254,254,254)" stroke="rgb(254,254,254)" stroke-width="1" opacity="1" d="M 316.5 151 L 317 152.5 L 316 157.5 L 316.5 159 L 318 156 L 320 156.5 L 319.5 159 L 318.5 158 L 314.5 160 L 313 159.5 L 315 158.5 L 314 156.5 L 316 152.5 L 316.5 151 Z " /><path fill="rgb(254,254,254)" stroke="rgb(254,254,254)" stroke-width="1" opacity="1" d="M 305.5 155 L 304.5 157 L 305.5 155 Z " /><path fill="rgb(254,254,254)" stroke="rgb(254,254,254)" stroke-width="1" opacity="1" d="M 300.5 160 L 299.5 162 L 300.5 160 Z " /><path fill="rgb(254,254,254)" stroke="rgb(254,254,254)" stroke-width="1" opacity="1" d="M 298.5 163 Q 300.8 162.3 300 164.5 Q 302.3 165.8 299.5 167 Q 296.9 166.2 298 169.5 L 297 169.5 L 298 166.5 L 296.5 164 L 299.5 166 L 298.5 163 Z " /><path fill="rgb(254,254,254)" stroke="rgb(254,254,254)" stroke-width="1" opacity="1" d="M 311.5 163 L 311 164.5 L 312 169 L 310 168.5 L 310 166.5 L 311.5 163 Z " /><path fill="rgb(254,254,254)" stroke="rgb(254,254,254)" stroke-width="1" opacity="1" d="M 308.5 167 L 309 168.5 L 308 173.5 L 308.5 175 L 310 172 L 312 172.5 L 311.5 175 L 310.5 174 L 306.5 176 L 305 175.5 L 307 174.5 L 306 172.5 L 308 168.5 L 308.5 167 Z " /><path fill="rgb(254,254,254)" stroke="rgb(254,254,254)" stroke-width="1" opacity="1" d="M 297.5 171 L 296.5 173 L 297.5 171 Z " /><path fill="rgb(254,254,254)" stroke="rgb(254,254,254)" stroke-width="1" opacity="1" d="M 292.5 176 L 291.5 178 L 292.5 176 Z " /><path fill="rgb(254,254,254)" stroke="rgb(254,254,254)" stroke-width="1" opacity="1" d="M 290.5 179 Q 292.8 178.3 292 180.5 Q 294.3 181.8 291.5 183 Q 288.9 182.2 290 185.5 L 289 185.5 L 290 182.5 L 288.5 180 L 291.5 182 L 290.5 179 Z " /><path fill="rgb(254,254,254)" stroke="rgb(254,254,254)" stroke-width="1" opacity="1" d="M 303.5 179 L 303 180.5 L 304 183.5 L 302 185.5 L 303.5 188 L 300.5 186 L 301.5 189 Q 299.3 189.8 300 187.5 Q 297.8 186.3 300.5 185 L 303 183.5 L 302 180.5 L 303.5 179 Z " /><path fill="rgb(254,254,254)" stroke="rgb(254,254,254)" stroke-width="1" opacity="1" d="M 289.5 187 L 288.5 189 L 289.5 187 Z " /><path fill="rgb(254,254,254)" stroke="rgb(254,254,254)" stroke-width="1" opacity="1" d="M 300.5 190 L 299.5 192 L 300.5 190 Z " /><path fill="rgb(254,254,254)" stroke="rgb(254,254,254)" stroke-width="1" opacity="1" d="M 284.5 192 L 283.5 194 L 284.5 192 Z " /><path fill="rgb(254,254,254)" stroke="rgb(254,254,254)" stroke-width="1" opacity="1" d="M 282.5 195 Q 284.8 194.3 284 196.5 Q 286.3 197.8 283.5 199 L 281.5 200 L 280.5 196 L 283.5 198 L 282.5 195 Z " /><path fill="rgb(254,254,254)" stroke="rgb(254,254,254)" stroke-width="1" opacity="1" d="M 295.5 195 L 294.5 197 L 295.5 195 Z " /><path fill="rgb(254,254,254)" stroke="rgb(254,254,254)" stroke-width="1" opacity="1" d="M 294.5 198 L 295 200.5 L 294 201.5 L 295.5 204 L 292.5 202 L 293.5 205 Q 291.3 205.8 292 203.5 Q 289.8 202.3 292.5 201 Q 295.4 201.7 294.5 198 Z " /><path fill="rgb(254,254,254)" stroke="rgb(254,254,254)" stroke-width="1" opacity="1" d="M 281.5 201 Q 285 203 280.5 205 L 280 202.5 L 281.5 201 Z " /><path fill="rgb(254,254,254)" stroke="rgb(254,254,254)" stroke-width="1" opacity="1" d="M 292.5 206 L 291.5 208 L 292.5 206 Z " /><path fill="rgb(254,254,254)" stroke="rgb(254,254,254)" stroke-width="1" opacity="1" d="M 275.5 208 L 277.5 208 L 279 208.5 L 277 209.5 L 278 211.5 L 276 215.5 L 275.5 217 L 275 215.5 L 276 210.5 L 275.5 209 L 272 211.5 L 272.5 209 Q 274 211.5 275.5 208 Z " /><path fill="rgb(254,254,254)" stroke="rgb(254,254,254)" stroke-width="1" opacity="1" d="M 287.5 211 L 286.5 213 L 287.5 211 Z " /><path fill="rgb(254,254,254)" stroke="rgb(254,254,254)" stroke-width="1" opacity="1" d="M 273.5 213 L 274 215.5 L 274 217.5 L 272.5 221 L 273 219.5 L 272 215.5 L 273.5 213 Z " /><path fill="rgb(254,254,254)" stroke="rgb(254,254,254)" stroke-width="1" opacity="1" d="M 286.5 214 L 287 216.5 L 286 217.5 L 287.5 220 L 284.5 218 L 285.5 221 Q 283.3 221.8 284 219.5 Q 281.8 218.3 284.5 217 Q 287.4 217.7 286.5 214 Z " /><path fill="rgb(254,254,254)" stroke="rgb(254,254,254)" stroke-width="1" opacity="1" d="M 284.5 222 L 283.5 224 L 284.5 222 Z " /><path fill="rgb(254,254,254)" stroke="rgb(254,254,254)" stroke-width="1" opacity="1" d="M 267.5 224 L 269.5 224 L 271 224.5 L 269 225.5 L 270 227.5 L 268 231.5 L 267.5 233 L 267 231.5 L 268 226.5 L 267.5 225 L 264 227.5 L 264.5 225 Q 266 227.5 267.5 224 Z " /><path fill="rgb(254,254,254)" stroke="rgb(254,254,254)" stroke-width="1" opacity="1" d="M 279.5 227 L 278.5 229 L 279.5 227 Z " /><path fill="rgb(254,254,254)" stroke="rgb(254,254,254)" stroke-width="1" opacity="1" d="M 265.5 229 L 266 231.5 L 266 233.5 L 264.5 237 L 265 235.5 L 264 231.5 L 265.5 229 Z " /><path fill="rgb(254,254,254)" stroke="rgb(254,254,254)" stroke-width="1" opacity="1" d="M 278.5 230 L 279 232.5 L 278 233.5 L 279.5 236 L 276.5 234 L 277.5 237 Q 275.3 237.8 276 235.5 Q 273.7 234.3 276.5 233 Q 279.4 233.7 278.5 230 Z " /><path fill="rgb(254,254,254)" stroke="rgb(254,254,254)" stroke-width="1" opacity="1" d="M 276.5 238 L 275.5 240 L 276.5 238 Z " /><path fill="rgb(254,254,254)" stroke="rgb(254,254,254)" stroke-width="1" opacity="1" d="M 129.5 240 L 131.5 241 L 133 240.5 L 132 243 L 130 242.5 L 130.5 241 L 129.5 240 Z " /><path fill="rgb(254,254,254)" stroke="rgb(254,254,254)" stroke-width="1" opacity="1" d="M 259.5 240 L 259 241.5 L 259.5 243 L 261 242.5 Q 259.8 245.3 258.5 243 L 248 242.5 L 257.5 242 L 259.5 240 Z " /><path fill="rgb(254,254,254)" stroke="rgb(254,254,254)" stroke-width="1" opacity="1" d="M 369.5 240 L 370.5 242 L 373 240.5 L 374 242.5 L 372 243.5 L 372.5 242 Q 369.9 241.3 371 244 L 368.5 244 L 367.5 243 L 271 242.5 L 367.5 242 L 369.5 240 Z " /><path fill="rgb(254,254,254)" stroke="rgb(254,254,254)" stroke-width="1" opacity="1" d="M 134.5 241 L 135.5 243 L 136.5 242 L 239.5 242 L 240.5 244 L 239.5 243 L 136.5 243 L 134 244.5 L 134.5 243 L 133 242.5 L 134.5 241 Z " /><path fill="rgb(254,254,254)" stroke="rgb(254,254,254)" stroke-width="1" opacity="1" d="M 379.5 242 L 384 245.5 Q 384.8 247.8 382.5 247 L 384 251.5 L 382 253.5 L 382.5 255 L 384 254.5 Q 382.5 257.5 381 254.5 L 382 252.5 L 379 249.5 L 382.5 245 L 380.5 246 L 379.5 242 Z " /><path fill="rgb(254,254,254)" stroke="rgb(254,254,254)" stroke-width="1" opacity="1" d="M 375.5 243 L 377 243.5 L 374.5 245 L 375.5 243 Z " /><path fill="rgb(254,254,254)" stroke="rgb(254,254,254)" stroke-width="1" opacity="1" d="M 378.5 244 L 379 246 L 377 245.5 L 378.5 244 Z " /><path fill="rgb(254,254,254)" stroke="rgb(254,254,254)" stroke-width="1" opacity="1" d="M 129 245 L 131 245.5 L 128 247.5 L 129 245 Z " /><path fill="rgb(254,254,254)" stroke="rgb(254,254,254)" stroke-width="1" opacity="1" d="M 378.5 247 L 377.5 249 L 378.5 247 Z " /><path fill="rgb(254,254,254)" stroke="rgb(254,254,254)" stroke-width="1" opacity="1" d="M 129.5 249 L 131.5 254 L 134.5 252 L 136 253.5 L 135.5 256 L 133.5 255 L 128 255.5 L 128.5 253 L 130 253.5 L 129.5 249 Z " /><path fill="rgb(254,254,254)" stroke="rgb(254,254,254)" stroke-width="1" opacity="1" d="M 256.5 250 L 260.5 251 L 262 250.5 L 259.5 252 L 256.5 251 L 256.5 250 Z " /><path fill="rgb(254,254,254)" stroke="rgb(254,254,254)" stroke-width="1" opacity="1" d="M 378.5 251 L 380 253.5 L 379.5 256 Q 377.3 256.8 378 254.5 L 379 252.5 L 378.5 251 Z " /><path fill="rgb(254,254,254)" stroke="rgb(254,254,254)" stroke-width="1" opacity="1" d="M 257.5 252 L 260 253 L 258 257.5 L 258.5 259 Q 256.3 259.8 257 257.5 L 256 255.5 L 257.5 252 Z " /><path fill="rgb(254,254,254)" stroke="rgb(254,254,254)" stroke-width="1" opacity="1" d="M 269.5 252 L 272 253.5 L 272 255.5 L 270.5 259 L 265 254.5 L 266.5 255 L 271 257 Q 272.1 254.3 269.5 255 L 269.5 254 L 271 253.5 L 269.5 252 Z " /><path fill="rgb(254,254,254)" stroke="rgb(254,254,254)" stroke-width="1" opacity="1" d="M 374.5 252 L 374 253.5 L 372.5 256 L 369 253.5 L 370.5 253 L 372.5 253 L 374.5 252 Z " /><path fill="rgb(254,254,254)" stroke="rgb(254,254,254)" stroke-width="1" opacity="1" d="M 246.5 256 L 247 279.5 L 248 280.5 L 246.5 283 L 246 281.5 L 246 279.5 L 246.5 256 Z " /><path fill="rgb(254,254,254)" stroke="rgb(254,254,254)" stroke-width="1" opacity="1" d="M 267.5 258 Q 270.5 259.5 267.5 261 L 265 259.5 L 267.5 258 Z " /><path fill="rgb(254,254,254)" stroke="rgb(254,254,254)" stroke-width="1" opacity="1" d="M 271.5 260 L 272 261.5 L 271.5 264 L 268 262.5 L 271 261.5 L 271.5 260 Z " /><path fill="rgb(254,254,254)" stroke="rgb(254,254,254)" stroke-width="1" opacity="1" d="M 263.5 261 L 266 262.5 L 265.5 264 L 265 262 L 262.5 263 L 263.5 261 Z " /><path fill="rgb(254,254,254)" stroke="rgb(254,254,254)" stroke-width="1" opacity="1" d="M 251.5 264 L 253.5 264 L 255 264.5 L 253 265.5 L 254 267.5 L 250 273.5 L 250.5 275 Q 248.3 275.8 249 273.5 L 248 271.5 L 249.5 269 L 250.5 272 L 252 270.5 L 252 266.5 L 251.5 265 L 248 267.5 L 248.5 265 Q 250 267.5 251.5 264 Z " /><path fill="rgb(254,254,254)" stroke="rgb(254,254,254)" stroke-width="1" opacity="1" d="M 262.5 264 Q 265.5 265.5 262.5 267 L 262.5 264 Z " /><path fill="rgb(254,254,254)" stroke="rgb(254,254,254)" stroke-width="1" opacity="1" d="M 260.5 266 L 261 268 L 263 268.5 L 260 269.5 L 262 270.5 L 260 271.5 L 262.5 273 L 264 272.5 L 262.5 275 L 259 271.5 L 259 269.5 L 260.5 266 Z " /><path fill="rgb(254,254,254)" stroke="rgb(254,254,254)" stroke-width="1" opacity="1" d="M 259.5 274 Q 262.5 275.5 259.5 277 L 257 275.5 L 259.5 274 Z " /><path fill="rgb(254,254,254)" stroke="rgb(254,254,254)" stroke-width="1" opacity="1" d="M 263.5 276 L 264 277.5 L 263.5 280 L 260 278.5 L 263 277.5 L 263.5 276 Z " /><path fill="rgb(254,254,254)" stroke="rgb(254,254,254)" stroke-width="1" opacity="1" d="M 255.5 277 L 258 278.5 L 257.5 280 L 257 278 L 254.5 279 L 255.5 277 Z " /><path fill="rgb(254,254,254)" stroke="rgb(254,254,254)" stroke-width="1" opacity="1" d="M 254.5 280 L 255.5 282 L 254 282.5 L 256 283.5 L 256 285.5 L 254.5 288 L 254 286.5 L 254.5 285 L 251 283.5 L 254.5 280 Z " /><path fill="rgb(254,254,254)" stroke="rgb(254,254,254)" stroke-width="1" opacity="1" d="M 251.5 285 Q 254.5 286.5 251.5 288 L 249 286.5 L 251 286.5 L 251.5 285 Z " /><path fill="rgb(254,254,254)" stroke="rgb(254,254,254)" stroke-width="1" opacity="1" d="M 234.5 288 L 236.5 289 L 240 288.5 L 240 290.5 L 237.5 293 L 235.5 289 L 234.5 288 Z " /><path fill="rgb(254,254,254)" stroke="rgb(254,254,254)" stroke-width="1" opacity="1" d="M 233.5 290 L 235 290.5 L 233 291.5 L 233 295.5 L 232.5 297 L 232 295.5 L 232 291.5 L 233.5 290 Z " /><path fill="rgb(254,254,254)" stroke="rgb(254,254,254)" stroke-width="1" opacity="1" d="M 235.5 295 L 235 298.5 L 233.5 301 L 234 299.5 L 235 297.5 Q 232.8 296.3 235.5 295 Z " /><path fill="rgb(254,254,254)" stroke="rgb(254,254,254)" stroke-width="1" opacity="1" d="M 225.5 304 L 226.5 307 L 230.5 304 L 231.5 306 Q 230 303.5 228.5 307 L 227 307.5 L 227.5 309 L 224 305.5 L 225.5 304 Z " /><path fill="rgb(254,254,254)" stroke="rgb(254,254,254)" stroke-width="1" opacity="1" d="M 230.5 307 L 229.5 309 L 230.5 307 Z " /><path fill="rgb(254,254,254)" stroke="rgb(254,254,254)" stroke-width="1" opacity="1" d="M 224.5 309 L 227.5 311 L 229 310.5 L 227 314.5 L 225.5 317 L 226 315.5 L 227 313.5 L 224 312.5 L 225 310.5 L 224.5 309 Z " /><path fill="rgb(254,254,254)" stroke="rgb(254,254,254)" stroke-width="1" opacity="1" d="M 240.5 309 L 239 311.5 L 240 313.5 L 238 314.5 L 238 312.5 L 240.5 309 Z " /><path fill="rgb(254,254,254)" stroke="rgb(254,254,254)" stroke-width="1" opacity="1" d="M 236.5 314 L 237 316 L 239 316.5 L 236 317.5 L 238 318.5 L 236 319.5 L 238.5 321 L 240 320.5 L 238.5 323 L 235 319.5 L 235 317.5 L 236.5 314 Z " /><path fill="rgb(254,254,254)" stroke="rgb(254,254,254)" stroke-width="1" opacity="1" d="M 235.5 322 Q 238.5 323.5 235.5 325 L 233 323.5 L 235.5 322 Z " /><path fill="rgb(254,254,254)" stroke="rgb(254,254,254)" stroke-width="1" opacity="1" d="M 231.5 324 L 234 327.5 L 233 327.5 L 232.5 326 L 230.5 328 L 227.5 327 L 225.5 328 L 224.5 326 L 228.5 327 L 231.5 324 Z " /><path fill="rgb(254,254,254)" stroke="rgb(254,254,254)" stroke-width="1" opacity="1" d="M 239 324 L 243 326.5 L 242.5 328 L 241.5 326 L 239.5 328 L 236 326.5 L 239 325.5 L 239 324 Z " /><path fill="rgb(254,254,254)" stroke="rgb(254,254,254)" stroke-width="1" opacity="1" d="M 245.5 326 L 248 326.5 L 246.5 328 L 244 327.5 L 245.5 326 Z " /><path fill="rgb(254,254,254)" stroke="rgb(254,254,254)" stroke-width="1" opacity="1" d="M 243.5 384 L 242.5 386 L 241 385.5 L 243.5 384 Z " /><path fill="rgb(254,254,254)" stroke="rgb(254,254,254)" stroke-width="1" opacity="1" d="M 245.5 384 Q 247.8 383.3 247 385.5 L 246.5 387 L 248 387.5 L 246.5 388 L 245 386.5 L 245.5 384 Z " /><path fill="rgb(254,254,254)" stroke="rgb(254,254,254)" stroke-width="1" opacity="1" d="M 244.5 388 L 248 389 L 247.5 391 L 244.5 388 Z " /><path fill="rgb(254,254,254)" stroke="rgb(254,254,254)" stroke-width="1" opacity="1" d="M 162.5 392 L 164 392.5 L 162 393.5 L 163.5 396 L 161 394.5 L 160.5 396 L 160 394.5 L 162.5 392 Z " /><path fill="rgb(254,254,254)" stroke="rgb(254,254,254)" stroke-width="1" opacity="1" d="M 166.5 392 L 166 393.5 L 166.5 395 L 168 394.5 Q 166.5 397.5 165 394.5 L 166.5 392 Z " /><path fill="rgb(254,254,254)" stroke="rgb(254,254,254)" stroke-width="1" opacity="1" d="M 234.5 392 L 235 394 L 237 393.5 L 236.5 392 L 238.5 393 L 240 392.5 Q 240.8 395.1 237.5 394 L 237.5 395 L 239 395.5 L 237.5 396 L 235.5 395 L 236.5 397 Q 238.8 396.3 238 398.5 L 238.5 400 Q 236.3 400.8 237 398.5 L 232 395.5 L 232.5 393 L 234 393.5 L 234.5 392 Z " /><path fill="rgb(254,254,254)" stroke="rgb(254,254,254)" stroke-width="1" opacity="1" d="M 252.5 392 L 253.5 395 L 256 393.5 L 252 396 L 251 393.5 L 252.5 392 Z " /><path fill="rgb(254,254,254)" stroke="rgb(254,254,254)" stroke-width="1" opacity="1" d="M 312.5 392 L 316 393.5 L 313 394.5 L 312.5 396 L 312 394.5 L 312.5 392 Z " /><path fill="rgb(254,254,254)" stroke="rgb(254,254,254)" stroke-width="1" opacity="1" d="M 318.5 392 L 319 394 L 323.5 392 L 323.5 395 L 321.5 394 L 319.5 395 L 318.5 392 Z " /><path fill="rgb(254,254,254)" stroke="rgb(254,254,254)" stroke-width="1" opacity="1" d="M 326.5 392 L 327.5 394 L 326.5 392 Z " /><path fill="rgb(254,254,254)" stroke="rgb(254,254,254)" stroke-width="1" opacity="1" d="M 248.5 393 L 249.5 395 L 248.5 393 Z " /><path fill="rgb(254,254,254)" stroke="rgb(254,254,254)" stroke-width="1" opacity="1" d="M 316.5 395 L 319 396.5 L 316.5 398 Q 313.5 396.5 316.5 395 Z " /><path fill="rgb(254,254,254)" stroke="rgb(254,254,254)" stroke-width="1" opacity="1" d="M 249.5 396 Q 253 398 248.5 400 L 248 397.5 L 249.5 396 Z " /><path fill="rgb(254,254,254)" stroke="rgb(254,254,254)" stroke-width="1" opacity="1" d="M 255.5 396 L 256 398.5 L 255.5 400 L 255 398 L 252 397.5 L 255.5 396 Z " /><path fill="rgb(254,254,254)" stroke="rgb(254,254,254)" stroke-width="1" opacity="1" d="M 313.5 397 L 316.5 401 L 318.5 400 L 318.5 401 L 317 401.5 L 319 402.5 L 317 403.5 Q 319.3 404.8 316.5 406 L 316.5 404 Q 314.3 403.3 315 405.5 L 314 405.5 L 312 401.5 L 313 401.5 Q 312.3 403.8 314.5 403 L 315.5 401 L 314 400.5 L 314.5 399 L 312.5 400 L 313 398.5 L 313.5 397 Z " /><path fill="rgb(254,254,254)" stroke="rgb(254,254,254)" stroke-width="1" opacity="1" d="M 234.5 398 L 235.5 400 L 234.5 398 Z " /><path fill="rgb(254,254,254)" stroke="rgb(254,254,254)" stroke-width="1" opacity="1" d="M 170.5 400 L 172.5 403 L 170 402.5 L 170.5 400 Z " /><path fill="rgb(254,254,254)" stroke="rgb(254,254,254)" stroke-width="1" opacity="1" d="M 174.5 400 Q 177.3 401.2 175 402.5 L 174 404.5 L 176 406.5 L 175 409.5 Q 175.8 411.8 173.5 411 L 171 410.5 L 174.5 406 L 172 405.5 L 175 401.5 L 174.5 400 Z " /><path fill="rgb(254,254,254)" stroke="rgb(254,254,254)" stroke-width="1" opacity="1" d="M 326.5 405 L 328 408.5 L 325.5 410 L 325 407.5 L 326.5 405 Z " /><path fill="rgb(254,254,254)" stroke="rgb(254,254,254)" stroke-width="1" opacity="1" d="M 160.5 406 Q 162.8 405.3 162 407.5 Q 164.3 408.8 161.5 410 L 160.5 406 Z " /><path fill="rgb(254,254,254)" stroke="rgb(254,254,254)" stroke-width="1" opacity="1" d="M 170.5 406 L 171.5 408 L 170.5 406 Z " /><path fill="rgb(254,254,254)" stroke="rgb(254,254,254)" stroke-width="1" opacity="1" d="M 314.5 407 L 315.5 409 L 317 408.5 Q 316.5 411.5 312.5 411 L 312.5 410 L 315 409.5 L 314.5 407 Z " /><path fill="rgb(254,254,254)" stroke="rgb(254,254,254)" stroke-width="1" opacity="1" d="M 162.5 411 L 163.5 413 Q 160.7 413.7 162.5 411 Z " /><path fill="rgb(254,254,254)" stroke="rgb(254,254,254)" stroke-width="1" opacity="1" d="M 326.5 411 Q 328.8 410.3 328 412.5 L 326 413.5 L 326.5 411 Z " /><path fill="rgb(254,254,254)" stroke="rgb(254,254,254)" stroke-width="1" opacity="1" d="M 172.5 412 Q 174.8 411.3 174 413.5 L 172.5 412 Z " /><path fill="rgb(254,254,254)" stroke="rgb(254,254,254)" stroke-width="1" opacity="1" d="M 162.5 414 L 163 415.5 L 162.5 417 L 165 418.5 L 164 421 L 162 420.5 L 163.5 418 L 160.5 420 L 162 415.5 L 162.5 414 Z " /><path fill="rgb(254,254,254)" stroke="rgb(254,254,254)" stroke-width="1" opacity="1" d="M 312.5 414 L 313.5 416 L 312.5 414 Z " /><path fill="rgb(254,254,254)" stroke="rgb(254,254,254)" stroke-width="1" opacity="1" d="M 173.5 417 L 176 418.5 L 173.5 420 L 173.5 417 Z " /><path fill="rgb(254,254,254)" stroke="rgb(254,254,254)" stroke-width="1" opacity="1" d="M 325.5 417 L 324.5 419 L 325.5 417 Z " /><path fill="rgb(254,254,254)" stroke="rgb(254,254,254)" stroke-width="1" opacity="1" d="M 322.5 419 L 323.5 421 L 322.5 419 Z " /><path fill="rgb(254,254,254)" stroke="rgb(254,254,254)" stroke-width="1" opacity="1" d="M 175.5 420 L 176 421.5 L 174 422.5 L 175.5 420 Z " /><path fill="rgb(254,254,254)" stroke="rgb(254,254,254)" stroke-width="1" opacity="1" d="M 325.5 420 L 328 423.5 L 326 422.5 L 325.5 420 Z " /><path fill="rgb(254,254,254)" stroke="rgb(254,254,254)" stroke-width="1" opacity="1" d="M 163.5 422 L 166 425.5 L 164 424.5 L 163.5 422 Z " /><path fill="rgb(254,254,254)" stroke="rgb(254,254,254)" stroke-width="1" opacity="1" d="M 322.5 422 Q 325.8 420.9 325 423.5 L 323.5 423 L 322.5 422 Z " /><path fill="rgb(254,254,254)" stroke="rgb(254,254,254)" stroke-width="1" opacity="1" d="M 161.5 423 L 162 425.5 L 160.5 427 L 160 424.5 L 161.5 423 Z " /><path fill="rgb(254,254,254)" stroke="rgb(254,254,254)" stroke-width="1" opacity="1" d="M 176.5 424 L 175.5 426 L 176.5 424 Z " /><path fill="rgb(254,254,254)" stroke="rgb(254,254,254)" stroke-width="1" opacity="1" d="M 178.5 424 L 180.5 424 L 182 424.5 L 180 425 Q 181.5 428.8 178.5 428 Q 177.3 430.3 176 427.5 L 178.5 424 Z " /><path fill="rgb(254,254,254)" stroke="rgb(254,254,254)" stroke-width="1" opacity="1" d="M 309.5 424 L 312 424.5 L 311.5 427 L 309 426 L 309.5 424 Z " /><path fill="rgb(254,254,254)" stroke="rgb(254,254,254)" stroke-width="1" opacity="1" d="M 163.5 426 L 162.5 430 Q 159 428 163.5 426 Z " /><path fill="rgb(254,254,254)" stroke="rgb(254,254,254)" stroke-width="1" opacity="1" d="M 181.5 426 Q 185 428 180.5 430 L 181.5 426 Z " /><path fill="rgb(254,254,254)" stroke="rgb(254,254,254)" stroke-width="1" opacity="1" d="M 307.5 426 Q 311.8 427.8 309 429.5 L 308 432.5 Q 312.3 434.8 307.5 437 L 306 437.5 L 308 438 L 307.5 441 L 305.5 438 L 304 438.5 L 305 436.5 L 304.5 435 L 307.5 436 L 307.5 435 Q 305.3 435.8 306 433.5 L 309 428.5 Q 307.5 425.5 306 428.5 L 306.5 430 L 304 429.5 L 304.5 427 Q 306 429.5 307.5 426 Z " /><path fill="rgb(254,254,254)" stroke="rgb(254,254,254)" stroke-width="1" opacity="1" d="M 166.5 427 L 168 430.5 L 167.5 432 L 165.5 429 L 165 430.5 L 165.5 432 L 163.5 432 L 162 431.5 L 164 431 Q 162.5 427.3 165.5 428 L 166.5 427 Z " /><path fill="rgb(254,254,254)" stroke="rgb(254,254,254)" stroke-width="1" opacity="1" d="M 183.5 429 L 183.5 432 Q 180.5 430.5 183.5 429 Z " /><path fill="rgb(254,254,254)" stroke="rgb(254,254,254)" stroke-width="1" opacity="1" d="M 178.5 430 L 180 432.5 L 177.5 434 L 178.5 430 Z " /><path fill="rgb(254,254,254)" stroke="rgb(254,254,254)" stroke-width="1" opacity="1" d="M 318.5 431 L 320 434.5 L 318.5 437 L 317.5 435 L 319 435.5 L 318 433.5 L 318.5 431 Z " /><path fill="rgb(254,254,254)" stroke="rgb(254,254,254)" stroke-width="1" opacity="1" d="M 183.5 433 L 184 435.5 L 183 438.5 L 183.5 442 L 180 443 L 179 439.5 L 181 439.5 Q 181.8 437.3 179.5 438 L 179.5 436 L 178 435.5 L 179.5 435 L 182.5 437 L 183 435 L 181 434.5 L 183.5 433 Z " /><path fill="rgb(254,254,254)" stroke="rgb(254,254,254)" stroke-width="1" opacity="1" d="M 168.5 435 L 171 439.5 L 169 443.5 L 170.5 446 L 171.5 443 L 173 446 L 171 446.5 L 173 447 L 174 449.5 L 172 450.5 Q 174.8 448.8 170.5 447 Q 168.3 446.3 169 448.5 L 168 448.5 L 169 445.5 L 168 443.5 L 169 438.5 L 168.5 435 Z " /><path fill="rgb(254,254,254)" stroke="rgb(254,254,254)" stroke-width="1" opacity="1" d="M 317.5 438 L 320 439.5 L 317.5 443 L 315 442.5 L 319 439.5 L 317.5 438 Z " /><path fill="rgb(254,254,254)" stroke="rgb(254,254,254)" stroke-width="1" opacity="1" d="M 305.5 441 L 308 442.5 L 306 443 L 307 445.5 L 305 444.5 L 306 442.5 L 305.5 441 Z " /><path fill="rgb(254,254,254)" stroke="rgb(254,254,254)" stroke-width="1" opacity="1" d="M 319.5 443 L 319.5 446 L 317 444.5 L 319.5 443 Z " /><path fill="rgb(254,254,254)" stroke="rgb(254,254,254)" stroke-width="1" opacity="1" d="M 181.5 444 L 182 448 L 184 448.5 L 183.5 451 Q 180.9 451.8 182 448.5 L 181.5 444 Z " /><path fill="rgb(254,254,254)" stroke="rgb(254,254,254)" stroke-width="1" opacity="1" d="M 317.5 446 L 320 448.5 L 319.5 451 Q 317.3 445.8 315 449.5 L 318 451.5 L 318.5 453 L 320 452.5 L 316 455.5 L 317.5 453 L 313.5 456 L 313 453.5 Q 312.3 450.9 315 452 L 315 450 L 313 449.5 L 317.5 446 Z " /><path fill="rgb(254,254,254)" stroke="rgb(254,254,254)" stroke-width="1" opacity="1" d="M 170.5 451 L 173.5 452 L 175 451.5 L 176 455.5 L 173 455.5 L 174 453 Q 169.9 451.3 171 455.5 L 170 455.5 L 171 452.5 L 170.5 451 Z " /><path fill="rgb(254,254,254)" stroke="rgb(254,254,254)" stroke-width="1" opacity="1" d="M 187 456 L 189 456.5 Q 186.5 458 190 459.5 L 189 463.5 Q 191.8 465.3 187.5 467 L 189 464.5 Q 185.9 462.8 187.5 461 L 185 460.5 L 187.5 460 L 189 460.5 L 187.5 458 L 185 459 L 185.5 457 L 187 457.5 L 187 456 Z " /><path fill="rgb(254,254,254)" stroke="rgb(254,254,254)" stroke-width="1" opacity="1" d="M 299.5 456 L 300.5 459 L 302 459.5 L 300 460 L 299 462.5 L 301 463.5 L 299 464.5 Q 302.5 466 300 467.5 L 299.5 469 L 298 468.5 L 299 471.5 L 297 474.5 L 297.5 476 Q 294.9 476.8 296 473.5 L 296.5 471 L 298 471.5 L 296 466.5 L 296 464.5 L 299 461.5 L 300 459.5 Q 296.3 457.8 299.5 456 Z " /><path fill="rgb(254,254,254)" stroke="rgb(254,254,254)" stroke-width="1" opacity="1" d="M 190.5 457 L 191.5 459 L 190.5 457 Z " /><path fill="rgb(254,254,254)" stroke="rgb(254,254,254)" stroke-width="1" opacity="1" d="M 311.5 458 L 312 459.5 L 310.5 463 L 311 459.5 L 311.5 458 Z " /><path fill="rgb(254,254,254)" stroke="rgb(254,254,254)" stroke-width="1" opacity="1" d="M 176.5 459 L 178 461.5 L 176 460.5 L 176.5 459 Z " /><path fill="rgb(254,254,254)" stroke="rgb(254,254,254)" stroke-width="1" opacity="1" d="M 297.5 459 L 298 460.5 L 296 461.5 L 297.5 459 Z " /><path fill="rgb(254,254,254)" stroke="rgb(254,254,254)" stroke-width="1" opacity="1" d="M 177.5 463 L 178 464.5 L 176.5 467 L 176 465.5 L 177.5 463 Z " /><path fill="rgb(254,254,254)" stroke="rgb(254,254,254)" stroke-width="1" opacity="1" d="M 309.5 464 L 312 465.5 L 310 466.5 L 310.5 468 L 308 467.5 Q 311.1 465.7 309.5 464 Z " /><path fill="rgb(254,254,254)" stroke="rgb(254,254,254)" stroke-width="1" opacity="1" d="M 191.5 465 L 192 467.5 L 190.5 469 L 190 466.5 L 191.5 465 Z " /><path fill="rgb(254,254,254)" stroke="rgb(254,254,254)" stroke-width="1" opacity="1" d="M 177.5 468 L 178.5 471 Q 179.8 468.8 181 471.5 L 180 473.5 L 181.5 476 Q 180.3 473.8 179 476.5 L 180 478.5 L 180 480.5 L 177.5 483 L 176 480.5 L 176.5 478 L 179 479 Q 180.1 476.3 177.5 477 L 177.5 476 L 179 475.5 L 176 473.5 L 177 470.5 Q 174.8 469.3 177.5 468 Z M 178 471 L 179 474 L 180 472 L 178 471 Z " /><path fill="rgb(254,254,254)" stroke="rgb(254,254,254)" stroke-width="1" opacity="1" d="M 309.5 469 L 311 469.5 L 308 471.5 L 309.5 473 L 312 471.5 L 308 476.5 Q 311.8 478.3 308.5 480 L 307.5 477 L 306 477.5 L 306.5 479 Q 303.5 477.5 306.5 476 Q 308.8 476.8 308 474.5 L 308.5 473 Q 306.3 473.8 307 471.5 L 309.5 469 Z " /><path fill="rgb(254,254,254)" stroke="rgb(254,254,254)" stroke-width="1" opacity="1" d="M 191.5 470 L 191.5 473 L 189 472.5 L 191.5 470 Z " /><path fill="rgb(254,254,254)" stroke="rgb(254,254,254)" stroke-width="1" opacity="1" d="M 189.5 474 L 192 475.5 L 190.5 475 L 189.5 474 Z " /><path fill="rgb(254,254,254)" stroke="rgb(254,254,254)" stroke-width="1" opacity="1" d="M 311.5 474 L 311 475.5 L 312 477.5 L 310 476.5 L 311.5 474 Z " /><path fill="rgb(254,254,254)" stroke="rgb(254,254,254)" stroke-width="1" opacity="1" d="M 181.5 477 Q 184.5 478.5 181.5 480 L 181.5 477 Z " /><path fill="rgb(254,254,254)" stroke="rgb(254,254,254)" stroke-width="1" opacity="1" d="M 193.5 480 L 195 483.5 L 194.5 486 L 192 483.5 L 193.5 480 Z " /><path fill="rgb(254,254,254)" stroke="rgb(254,254,254)" stroke-width="1" opacity="1" d="M 196.5 480 L 197 482 L 195 481.5 L 196.5 480 Z " /><path fill="rgb(254,254,254)" stroke="rgb(254,254,254)" stroke-width="1" opacity="1" d="M 199.5 480 L 199.5 483 L 198 483.5 L 198.5 485 Q 195.8 483.8 198 482.5 L 199.5 480 Z " /><path fill="rgb(254,254,254)" stroke="rgb(254,254,254)" stroke-width="1" opacity="1" d="M 288.5 480 L 291 481.5 L 289 482.5 Q 291 486 293 481.5 L 292.5 480 L 294.5 481 L 296 480.5 L 294.5 484 Q 292.3 483.3 293 485.5 L 291 488.5 L 292.5 491 L 290 487.5 L 290.5 486 L 288 485.5 L 290 484.5 L 288 482.5 L 288.5 480 Z " /><path fill="rgb(254,254,254)" stroke="rgb(254,254,254)" stroke-width="1" opacity="1" d="M 180.5 482 L 183 483.5 L 180.5 485 Q 177.5 483.5 180.5 482 Z " /><path fill="rgb(254,254,254)" stroke="rgb(254,254,254)" stroke-width="1" opacity="1" d="M 176.5 484 L 177.5 486 Q 178.8 483.8 180 486.5 L 178.5 488 L 176 487.5 L 176 485.5 L 176.5 484 Z " /><path fill="rgb(254,254,254)" stroke="rgb(254,254,254)" stroke-width="1" opacity="1" d="M 183.5 485 L 185 485.5 L 183 486 L 182.5 488 L 182 486.5 L 183.5 485 Z " /><path fill="rgb(254,254,254)" stroke="rgb(254,254,254)" stroke-width="1" opacity="1" d="M 196.5 485 Q 198.3 488.1 200 486.5 L 199.5 489 L 197 487.5 L 198 489.5 L 196 490 L 196.5 485 Z " /><path fill="rgb(254,254,254)" stroke="rgb(254,254,254)" stroke-width="1" opacity="1" d="M 288.5 489 L 290 490.5 L 289.5 493 L 288 491.5 L 288.5 489 Z " /><path fill="rgb(254,254,254)" stroke="rgb(254,254,254)" stroke-width="1" opacity="1" d="M 186.5 490 L 186 491.5 Q 185.3 493.8 187.5 493 L 187.5 494 L 185.5 495 L 185 492.5 L 186.5 490 Z " /><path fill="rgb(254,254,254)" stroke="rgb(254,254,254)" stroke-width="1" opacity="1" d="M 199.5 490 L 199 491.5 L 197 494.5 L 199.5 498 Q 197.3 498.8 198 496.5 L 196 494.5 Q 199.1 492.7 197.5 491 L 199.5 490 Z " /><path fill="rgb(254,254,254)" stroke="rgb(254,254,254)" stroke-width="1" opacity="1" d="M 301.5 491 L 304 492.5 L 302.5 493 L 301.5 491 Z " /><path fill="rgb(254,254,254)" stroke="rgb(254,254,254)" stroke-width="1" opacity="1" d="M 300.5 493 L 300 494.5 L 301.5 497 L 302.5 494 L 303 496.5 L 300 500.5 Q 303.8 502.3 300.5 504 L 299.5 501 L 298 501.5 L 298.5 503 Q 295.5 501.5 298.5 500 Q 300.8 500.8 300 498.5 L 300.5 497 Q 297.9 497.8 299 494.5 L 300.5 493 Z " /><path fill="rgb(254,254,254)" stroke="rgb(254,254,254)" stroke-width="1" opacity="1" d="M 288.5 494 L 290 498 L 288 497.5 L 289 495.5 L 288.5 494 Z " /><path fill="rgb(254,254,254)" stroke="rgb(254,254,254)" stroke-width="1" opacity="1" d="M 187.5 495 L 189 497.5 L 187.5 498 Q 186.3 495.8 185 498.5 L 185.5 500 L 187.5 499 L 187.5 500 L 186 500.5 L 188 501 L 186.5 504 L 184 503.5 Q 188 501.5 184 499.5 L 185 497.5 L 184.5 496 Q 186 498.5 187.5 495 Z " /><path fill="rgb(254,254,254)" stroke="rgb(254,254,254)" stroke-width="1" opacity="1" d="M 303.5 498 L 303 499.5 L 304 501.5 L 302 500.5 L 303.5 498 Z " /><path fill="rgb(254,254,254)" stroke="rgb(254,254,254)" stroke-width="1" opacity="1" d="M 289.5 499 L 288.5 501 L 289.5 499 Z " /><path fill="rgb(254,254,254)" stroke="rgb(254,254,254)" stroke-width="1" opacity="1" d="M 189.5 500 Q 192.5 501.5 189.5 503 L 189.5 500 Z " /><path fill="rgb(254,254,254)" stroke="rgb(254,254,254)" stroke-width="1" opacity="1" d="M 204.5 504 L 208 506.5 L 205.5 505 L 204.5 504 Z " /><path fill="rgb(254,254,254)" stroke="rgb(254,254,254)" stroke-width="1" opacity="1" d="M 281.5 504 L 283 506.5 Q 280.8 507.7 283.5 509 L 285 508.5 L 284.5 507 Q 286.8 506.3 286 508.5 L 284.5 511 L 281 507.5 L 282 506.5 L 281.5 505 L 280 505.5 L 281.5 504 Z " /><path fill="rgb(254,254,254)" stroke="rgb(254,254,254)" stroke-width="1" opacity="1" d="M 287.5 504 L 286.5 506 L 287.5 504 Z " /><path fill="rgb(254,254,254)" stroke="rgb(254,254,254)" stroke-width="1" opacity="1" d="M 202.5 505 L 203.5 507 L 202.5 505 Z " /><path fill="rgb(254,254,254)" stroke="rgb(254,254,254)" stroke-width="1" opacity="1" d="M 201.5 507 L 204.5 509 L 208 508.5 Q 204.9 510.3 206.5 512 L 204 511.5 L 201.5 507 Z " /><path fill="rgb(254,254,254)" stroke="rgb(254,254,254)" stroke-width="1" opacity="1" d="M 294.5 508 Q 297.5 509.5 294.5 511 L 294.5 508 Z " /><path fill="rgb(254,254,254)" stroke="rgb(254,254,254)" stroke-width="1" opacity="1" d="M 282.5 511 L 280.5 514 L 282.5 511 Z " /><path fill="rgb(254,254,254)" stroke="rgb(254,254,254)" stroke-width="1" opacity="1" d="M 294.5 512 L 295.5 514 L 294.5 512 Z " /><path fill="rgb(254,254,254)" stroke="rgb(254,254,254)" stroke-width="1" opacity="1" d="M 192.5 513 L 194 516.5 L 193 519.5 L 194.5 521 L 196 520.5 L 195.5 523 Q 193.8 519.9 192 521.5 L 193 516.5 L 192.5 513 Z " /><path fill="rgb(254,254,254)" stroke="rgb(254,254,254)" stroke-width="1" opacity="1" d="M 203.5 513 L 206.5 514 L 208 513.5 L 207.5 518 L 205 517.5 L 206.5 515 Q 202.8 514.8 203.5 513 Z " /><path fill="rgb(254,254,254)" stroke="rgb(254,254,254)" stroke-width="1" opacity="1" d="M 283.5 513 L 284 514.5 Q 280.9 516.3 282.5 518 L 280 517.5 L 280.5 515 Q 284 516 283.5 513 Z " /><path fill="rgb(254,254,254)" stroke="rgb(254,254,254)" stroke-width="1" opacity="1" d="M 294.5 515 L 296 516.5 L 295.5 519 L 294 517.5 L 294.5 515 Z " /><path fill="rgb(254,254,254)" stroke="rgb(254,254,254)" stroke-width="1" opacity="1" d="M 195.5 517 L 196.5 519 L 195.5 517 Z " /><path fill="rgb(254,254,254)" stroke="rgb(254,254,254)" stroke-width="1" opacity="1" d="M 291.5 517 L 296 522.5 L 293.5 523 L 292 523.5 L 295 524.5 L 294 526.5 L 296 526.5 L 294.5 528 L 291 526.5 L 293 526.5 L 291.5 524 L 287.5 527 L 288.5 525 L 291.5 523 L 294 521.5 L 291.5 517 Z " /><path fill="rgb(254,254,254)" stroke="rgb(254,254,254)" stroke-width="1" opacity="1" d="M 290.5 519 L 291.5 521 L 290.5 519 Z " /><path fill="rgb(254,254,254)" stroke="rgb(254,254,254)" stroke-width="1" opacity="1" d="M 212.5 520 L 214.5 521 L 216 520.5 L 215.5 525 L 213.5 522 L 212 522.5 L 212.5 520 Z " /><path fill="rgb(254,254,254)" stroke="rgb(254,254,254)" stroke-width="1" opacity="1" d="M 233.5 520 L 235 520 Q 233.5 523.8 236.5 523 Q 238.3 526.1 240 524.5 Q 238.3 527.8 236.5 524 L 234 522.5 L 233.5 520 Z " /><path fill="rgb(254,254,254)" stroke="rgb(254,254,254)" stroke-width="1" opacity="1" d="M 236.5 520 Q 238.8 519.3 238 521.5 L 240 521.5 L 238.5 523 L 236.5 520 Z " /><path fill="rgb(254,254,254)" stroke="rgb(254,254,254)" stroke-width="1" opacity="1" d="M 250 520 L 252 520.5 Q 250 525 248 521.5 L 250 521.5 L 250 520 Z " /><path fill="rgb(254,254,254)" stroke="rgb(254,254,254)" stroke-width="1" opacity="1" d="M 253 520 L 255 520.5 L 252.5 524 L 249.5 526 L 247.5 523 Q 249.5 527 251.5 523 Q 254.5 523.7 253 520 Z " /><path fill="rgb(254,254,254)" stroke="rgb(254,254,254)" stroke-width="1" opacity="1" d="M 272.5 520 L 274.5 521 L 276 520.5 L 275.5 523 L 274 522.5 L 272.5 525 L 272.5 520 Z " /><path fill="rgb(254,254,254)" stroke="rgb(254,254,254)" stroke-width="1" opacity="1" d="M 210.5 521 L 210 522.5 L 214.5 527 Q 216.8 526.3 216 528.5 L 214.5 532 L 215 528.5 L 210.5 524 L 209 524.5 L 210.5 521 Z " /><path fill="rgb(254,254,254)" stroke="rgb(254,254,254)" stroke-width="1" opacity="1" d="M 277.5 521 L 279 522.5 L 278.5 525 L 277.5 524 L 274 527.5 Q 273.3 529.8 275.5 529 L 275.5 530 L 273.5 529 L 272 529.5 L 272.5 527 L 278 522.5 L 277.5 521 Z " /><path fill="rgb(254,254,254)" stroke="rgb(254,254,254)" stroke-width="1" opacity="1" d="M 197.5 522 L 200 524.5 L 199 525.5 L 200.5 528 L 198 527.5 L 197 524.5 L 197.5 522 Z " /><path fill="rgb(254,254,254)" stroke="rgb(254,254,254)" stroke-width="1" opacity="1" d="M 193.5 523 Q 196.2 524.3 194 525.5 L 192.5 528 L 192.5 525 L 194 524.5 L 193.5 523 Z " /><path fill="rgb(254,254,254)" stroke="rgb(254,254,254)" stroke-width="1" opacity="1" d="M 233.5 524 L 235 527 L 237 527.5 L 235.5 528 L 234 527.5 Q 235.1 530.8 232.5 530 L 233 528.5 L 234 525.5 L 233.5 524 Z " /><path fill="rgb(254,254,254)" stroke="rgb(254,254,254)" stroke-width="1" opacity="1" d="M 254.5 524 L 254 525.5 L 254.5 527 L 256 526.5 L 255.5 529 L 250 533.5 L 250.5 535 L 249 533.5 L 249.5 531 L 250.5 532 L 254 528.5 L 253.5 527 L 251 528.5 L 253 525.5 L 254.5 524 Z " /><path fill="rgb(254,254,254)" stroke="rgb(254,254,254)" stroke-width="1" opacity="1" d="M 195 526 L 197 526.5 L 195 527.5 L 195 526 Z " /><path fill="rgb(254,254,254)" stroke="rgb(254,254,254)" stroke-width="1" opacity="1" d="M 211.5 527 L 213 529.5 L 212 529.5 L 211.5 527 Z " /><path fill="rgb(254,254,254)" stroke="rgb(254,254,254)" stroke-width="1" opacity="1" d="M 200.5 529 L 202 529 Q 200.5 532.8 203.5 532 L 203.5 535 L 202 534.5 L 203 536.5 L 201 535.5 L 202 532 L 200 531.5 L 200.5 529 Z " /><path fill="rgb(254,254,254)" stroke="rgb(254,254,254)" stroke-width="1" opacity="1" d="M 235 529 L 239 531.5 L 236.5 533 Q 235.2 530.8 234 533.5 L 234.5 535 L 236.5 534 L 237.5 536 L 235.5 535 Q 234.3 537.3 233 534.5 L 235 529 Z M 237 530 Q 235 533 238 532 L 237 530 Z " /><path fill="rgb(254,254,254)" stroke="rgb(254,254,254)" stroke-width="1" opacity="1" d="M 255.5 531 L 255.5 536 L 253.5 535 L 252 535.5 L 252.5 533 L 254 533.5 L 255.5 531 Z " /><path fill="rgb(254,254,254)" stroke="rgb(254,254,254)" stroke-width="1" opacity="1" d="M 272.5 531 L 274.5 531 L 276 531.5 L 273 533 L 272.5 535 L 272 533.5 L 272.5 531 Z " /><path fill="rgb(254,254,254)" stroke="rgb(254,254,254)" stroke-width="1" opacity="1" d="M 285.5 531 L 288 532.5 L 286.5 533 L 285.5 531 Z " /><path fill="rgb(254,254,254)" stroke="rgb(254,254,254)" stroke-width="1" opacity="1" d="M 285.5 534 L 288 535.5 L 286.5 535 L 285.5 534 Z " /><path fill="rgb(254,254,254)" stroke="rgb(254,254,254)" stroke-width="1" opacity="1" d="M 205.5 536 L 206 538.5 L 208 541.5 L 206 541.5 L 207 543.5 L 204.5 544 L 202 541.5 L 203 539.5 L 201.5 540 L 200 539.5 L 200.5 537 L 203.5 538 L 205.5 536 Z " /><path fill="rgb(254,254,254)" stroke="rgb(254,254,254)" stroke-width="1" opacity="1" d="M 221.5 536 L 224 537.5 L 222.5 537 L 221.5 536 Z " /><path fill="rgb(254,254,254)" stroke="rgb(254,254,254)" stroke-width="1" opacity="1" d="M 268.5 536 L 271 537.5 Q 270.3 535.3 272.5 536 L 270 539.5 L 270.5 541 L 268 539.5 L 270 538.5 L 268.5 536 Z " /><path fill="rgb(254,254,254)" stroke="rgb(254,254,254)" stroke-width="1" opacity="1" d="M 285.5 536 L 287.5 539 L 285.5 539 L 284 539.5 L 287 540.5 L 286 542.5 L 288 542.5 L 286.5 544 L 283 542.5 L 285 542.5 L 283.5 540 L 280.5 542 L 280.5 541 L 283.5 539 L 286 537.5 L 285.5 536 Z " /><path fill="rgb(254,254,254)" stroke="rgb(254,254,254)" stroke-width="1" opacity="1" d="M 215.5 538 L 217.5 539 L 219.5 538 L 219.5 539 L 218 539.5 L 222.5 541 L 224 540.5 L 223.5 543 L 220.5 542 L 218 543.5 L 218 541.5 L 216.5 539 L 215.5 538 Z " /><path fill="rgb(254,254,254)" stroke="rgb(254,254,254)" stroke-width="1" opacity="1" d="M 266.5 541 L 270 542.5 L 267.5 544 L 267.5 542 L 265 543.5 L 266.5 546 L 264 542 L 266.5 541 Z " /><path fill="rgb(254,254,254)" stroke="rgb(254,254,254)" stroke-width="1" opacity="1" d="M 200.5 542 L 201.5 544 L 200.5 542 Z " /><path fill="rgb(254,254,254)" stroke="rgb(254,254,254)" stroke-width="1" opacity="1" d="M 256.5 544 L 260 545.5 L 257 546.5 L 256.5 548 L 256 546.5 L 256.5 544 Z " /><path fill="rgb(254,254,254)" stroke="rgb(254,254,254)" stroke-width="1" opacity="1" d="M 262.5 544 L 265 547.5 L 262 545.5 L 262.5 544 Z " /><path fill="rgb(254,254,254)" stroke="rgb(254,254,254)" stroke-width="1" opacity="1" d="M 208.5 545 L 212 547.5 L 214 551.5 L 209 551.5 L 209.5 550 L 208 549.5 L 209.5 549 L 212 550.5 L 211 547 L 208.5 548 L 208.5 545 Z " /><path fill="rgb(254,254,254)" stroke="rgb(254,254,254)" stroke-width="1" opacity="1" d="M 276.5 546 Q 278.8 545.3 278 547.5 L 279 547.5 L 279.5 546 L 280 547.5 L 279.5 550 L 276.5 549 L 277.5 551 L 280 551.5 L 277.5 552 L 275 550.5 L 274.5 552 L 274 549.5 L 277 547.5 L 276.5 546 Z " /><path fill="rgb(254,254,254)" stroke="rgb(254,254,254)" stroke-width="1" opacity="1" d="M 260.5 547 L 263 548.5 L 260.5 550 Q 257.5 548.5 260.5 547 Z " /><path fill="rgb(254,254,254)" stroke="rgb(254,254,254)" stroke-width="1" opacity="1" d="M 257.5 549 Q 262 551 258.5 553 L 251.5 556 L 250 555.5 L 251 558.5 L 248 560.5 L 249 557.5 L 248 555.5 L 250.5 554 L 252.5 554 Q 256.3 554.8 257 552.5 L 257 550.5 L 257.5 549 Z " /><path fill="rgb(254,254,254)" stroke="rgb(254,254,254)" stroke-width="1" opacity="1" d="M 235.5 552 L 237.5 552 L 240 554.5 L 239.5 556 L 238.5 554 Q 235.3 555.8 239 557.5 L 240 559.5 L 238 558.5 L 237.5 557 L 236 558.5 L 237.5 561 L 235 558.5 Q 238.8 556.8 235.5 555 L 233.5 558 L 232 557.5 L 234 556.5 L 232 555.5 L 236 553.5 L 235.5 552 Z " /><path fill="rgb(254,254,254)" stroke="rgb(254,254,254)" stroke-width="1" opacity="1" d="M 282.5 552 L 283 554.5 Q 284.1 557.8 281.5 557 L 281.5 559 Q 279.3 559.8 280 557.5 L 282 554.5 L 280 554.5 L 282.5 552 Z " /><path fill="rgb(254,254,254)" stroke="rgb(254,254,254)" stroke-width="1" opacity="1" d="M 284.5 552 L 285.5 554 L 287 553.5 L 287 561.5 Q 287.8 563.8 285.5 563 L 287 560.5 L 286.5 556 Q 283.9 555.2 285 558.5 L 284 558.5 L 285 554.5 L 284.5 552 Z " /><path fill="rgb(254,254,254)" stroke="rgb(254,254,254)" stroke-width="1" opacity="1" d="M 231.5 553 L 231 554.5 L 230.5 557 L 229 554.5 L 231.5 553 Z " /><path fill="rgb(254,254,254)" stroke="rgb(254,254,254)" stroke-width="1" opacity="1" d="M 270.5 554 L 271.5 558 Q 269.8 554.9 268 556.5 L 270.5 554 Z " /><path fill="rgb(254,254,254)" stroke="rgb(254,254,254)" stroke-width="1" opacity="1" d="M 216.5 556 Q 223.5 559.5 216.5 563 L 216 561 L 219 559.5 L 216 558.5 L 216.5 556 Z " /><path fill="rgb(254,254,254)" stroke="rgb(254,254,254)" stroke-width="1" opacity="1" d="M 253.5 556 L 256 557.5 L 254 558.5 L 254.5 557 L 253.5 556 Z " /><path fill="rgb(254,254,254)" stroke="rgb(254,254,254)" stroke-width="1" opacity="1" d="M 269.5 558 L 270.5 561 L 272.5 560 L 275 560.5 L 271.5 563 L 267.5 560 L 266 560.5 L 269.5 558 Z " /><path fill="rgb(254,254,254)" stroke="rgb(254,254,254)" stroke-width="1" opacity="1" d="M 129.5 560 L 131 562.5 Q 129.5 565.5 128 562.5 L 129.5 560 Z " /><path fill="rgb(254,254,254)" stroke="rgb(254,254,254)" stroke-width="1" opacity="1" d="M 132.5 560 L 135 560.5 L 132 562 L 132.5 560 Z " /><path fill="rgb(254,254,254)" stroke="rgb(254,254,254)" stroke-width="1" opacity="1" d="M 361.5 560 L 363.5 561 L 365 560.5 L 364.5 562 L 367 562.5 L 364.5 563 L 361.5 561 L 360 561.5 L 361.5 560 Z " /><path fill="rgb(254,254,254)" stroke="rgb(254,254,254)" stroke-width="1" opacity="1" d="M 375.5 561 L 374.5 563 L 375.5 561 Z " /><path fill="rgb(254,254,254)" stroke="rgb(254,254,254)" stroke-width="1" opacity="1" d="M 242.5 566 L 245 566.5 L 242.5 567 L 242.5 566 Z " /><path fill="rgb(254,254,254)" stroke="rgb(254,254,254)" stroke-width="1" opacity="1" d="M 128.5 568 L 129.5 570 L 128.5 568 Z " /><path fill="rgb(254,254,254)" stroke="rgb(254,254,254)" stroke-width="1" opacity="1" d="M 131.5 570 L 135 571.5 L 136 573.5 L 134.5 574 Q 132.8 570.9 131 572.5 L 131.5 570 Z " /><path fill="rgb(254,254,254)" stroke="rgb(254,254,254)" stroke-width="1" opacity="1" d="M 274.5 570 L 276.5 571 Q 277.8 568.8 279 571.5 L 278 573.5 L 279.5 573 L 281.5 572 L 282 574 Q 278.2 572.5 279 575.5 L 277 574.5 L 274.5 571 L 273.5 573 L 276 574.5 L 274.5 574 L 272 572.5 Q 271.3 570.3 273.5 571 L 274.5 570 Z " /><path fill="rgb(254,254,254)" stroke="rgb(254,254,254)" stroke-width="1" opacity="1" d="M 286.5 570 L 287.5 572 L 286 571.5 Q 285.3 573.8 287.5 573 L 286.5 575 L 285 571.5 L 286.5 570 Z " /><path fill="rgb(254,254,254)" stroke="rgb(254,254,254)" stroke-width="1" opacity="1" d="M 364.5 570 Q 368.7 568.9 367 573 L 363 571.5 L 364.5 570 Z " /><path fill="rgb(254,254,254)" stroke="rgb(254,254,254)" stroke-width="1" opacity="1" d="M 370.5 570 L 373 570.5 L 370 571.5 L 372 572 L 372.5 574 L 374.5 571 L 376 573.5 L 373 574.5 L 373.5 576 L 371 575.5 Q 373.3 574.3 370.5 573 L 369.5 576 L 365.5 576 L 360 573.5 L 361.5 571 L 362 572.5 L 361.5 574 L 365.5 575 L 367.5 575 L 370 572.5 L 368 571.5 L 370.5 570 Z " /><path fill="rgb(254,254,254)" stroke="rgb(254,254,254)" stroke-width="1" opacity="1" d="M 132.5 574 L 131.5 576 L 132.5 574 Z " /><path fill="rgb(254,254,254)" stroke="rgb(254,254,254)" stroke-width="1" opacity="1" d="M 665.5 872 L 665.5 874 Q 668.8 875.1 668 872.5 L 669 872.5 L 669.5 874 L 672 872.5 L 671.5 874 L 674.5 872 L 677 872.5 L 671 875 L 670.5 878 L 670 875 L 665 875.5 L 666 877.5 L 665.5 880 Q 662.8 878.7 665 877.5 L 664 875.5 L 665.5 872 Z " /><path fill="rgb(254,254,254)" stroke="rgb(254,254,254)" stroke-width="1" opacity="1" d="M 679.5 872 L 678.5 874 L 679.5 872 Z " /><path fill="rgb(254,254,254)" stroke="rgb(254,254,254)" stroke-width="1" opacity="1" d="M 1151.5 872 L 1152 874 L 1150 873.5 L 1151.5 872 Z " /><path fill="rgb(254,254,254)" stroke="rgb(254,254,254)" stroke-width="1" opacity="1" d="M 668.5 876 L 669 878.5 L 668.5 880 L 667 877.5 L 668.5 876 Z " /><path fill="rgb(254,254,254)" stroke="rgb(254,254,254)" stroke-width="1" opacity="1" d="M 675.5 881 L 680 883.5 L 679 885.5 Q 681.3 886.8 678.5 888 L 676.5 886 L 674 887.5 L 675 885.5 L 673 884.5 L 674.5 884 L 677.5 886 L 678 883 L 675.5 882 L 674 882.5 L 675.5 881 Z " /><path fill="rgb(254,254,254)" stroke="rgb(254,254,254)" stroke-width="1" opacity="1" d="M 1144.5 881 L 1145.5 883 Q 1147 879.5 1148.5 882 L 1150.5 881 L 1150.5 884 L 1147.5 882 L 1146.5 885 Q 1144.3 885.8 1145 883.5 L 1144.5 881 Z " /><path fill="rgb(254,254,254)" stroke="rgb(254,254,254)" stroke-width="1" opacity="1" d="M 1148.5 884 L 1151 887.5 L 1149.5 887 L 1147.5 888 L 1145 887.5 L 1149 885.5 L 1148.5 884 Z " /><path fill="rgb(254,254,254)" stroke="rgb(254,254,254)" stroke-width="1" opacity="1" d="M 674.5 944 L 676.5 946 Q 678.2 942.3 680 945.5 L 679 947.5 L 679.5 949 L 675.5 951 L 674.5 949 L 676.5 949 Q 679.1 949.8 678 946.5 L 676.5 947 L 673.5 948 L 673.5 947 L 675 946.5 L 674.5 944 Z " /><path fill="rgb(254,254,254)" stroke="rgb(254,254,254)" stroke-width="1" opacity="1" d="M 1123.5 944 L 1125.5 944 L 1128 946.5 L 1127.5 948 L 1126.5 946 Q 1123.3 947.8 1127 949.5 L 1128 952.5 L 1127 952.5 L 1125.5 949 L 1124 950.5 L 1125.5 953 L 1123 950.5 Q 1126.8 948.8 1123.5 947 L 1121.5 950 L 1120 949.5 L 1122 948.5 L 1120 947.5 L 1124 945.5 L 1123.5 944 Z " /><path fill="rgb(254,254,254)" stroke="rgb(254,254,254)" stroke-width="1" opacity="1" d="M 666.5 952 L 666 953.5 Q 665.3 956.1 668 955 Q 666.9 952.3 669.5 953 L 671 952.5 L 669.5 955 L 677 959.5 L 674.5 960 L 670.5 958 L 668.5 960 L 666.5 959 L 665 959.5 L 666 957.5 L 665 954.5 L 666.5 952 Z M 667 956 L 668 958 Q 669 955 667 956 Z " /><path fill="rgb(254,254,254)" stroke="rgb(254,254,254)" stroke-width="1" opacity="1" d="M 1126.5 954 L 1127.5 956 L 1126.5 954 Z " /><path fill="rgb(254,254,254)" stroke="rgb(254,254,254)" stroke-width="1" opacity="1" d="M 1124.5 955 L 1127.5 959 Q 1125.7 955.9 1124 957.5 L 1124.5 955 Z " /><path fill="rgb(254,254,254)" stroke="rgb(254,254,254)" stroke-width="1" opacity="1" d="M 678.5 958 L 679.5 960 L 678.5 958 Z " /><path fill="rgb(254,254,254)" stroke="rgb(254,254,254)" stroke-width="1" opacity="1" d="M 444.5 1136 L 443.5 1138 L 440 1139 L 440.5 1137 L 442.5 1137 L 444.5 1136 Z " /><path fill="rgb(254,254,254)" stroke="rgb(254,254,254)" stroke-width="1" opacity="1" d="M 1205.5 1136 L 1208 1136.5 Q 1205.9 1139.8 1205.5 1136 Z " /><path fill="rgb(254,254,254)" stroke="rgb(254,254,254)" stroke-width="1" opacity="1" d="M 442.5 1144 L 442.5 1146 L 445.5 1145 L 445.5 1146 Q 443.3 1145.3 444 1147.5 L 444.5 1149 L 441 1145.5 L 442.5 1144 Z " /><path fill="rgb(254,254,254)" stroke="rgb(254,254,254)" stroke-width="1" opacity="1" d="M 1200.5 1145 L 1201.5 1147 Q 1203 1143.5 1204.5 1146 L 1206.5 1145 L 1206.5 1148 L 1203.5 1146 L 1202.5 1149 Q 1200.3 1149.8 1201 1147.5 L 1200.5 1145 Z " /><path fill="rgb(254,254,254)" stroke="rgb(254,254,254)" stroke-width="1" opacity="1" d="M 447.5 1146 L 447.5 1149 Q 445.3 1149.8 446 1147.5 L 447.5 1146 Z " /><path fill="rgb(254,254,254)" stroke="rgb(254,254,254)" stroke-width="1" opacity="1" d="M 1204.5 1148 L 1207 1151.5 L 1205.5 1151 L 1203.5 1152 L 1201 1151.5 L 1205 1149.5 L 1204.5 1148 Z " /><path fill="rgb(254,254,254)" stroke="rgb(254,254,254)" stroke-width="1" opacity="1" d="M 444.5 1150 L 443.5 1152 L 444.5 1150 Z " /><path fill="rgb(254,254,254)" stroke="rgb(254,254,254)" stroke-width="1" opacity="1" d="M 447.5 1150 L 446.5 1152 L 447.5 1150 Z " /><path fill="rgb(255,255,255)" stroke="rgb(255,255,255)" stroke-width="1" opacity="1" d="M 0 0 L 1284 0 L 1284 1541 L 0 1541 L 0 0 Z M 251 120 L 250 122 L 250 124 L 252 124 L 251 120 Z M 246 121 L 244 122 L 241 126 L 240 129 L 241 133 L 240 136 L 241 137 L 241 243 L 241 245 L 136 245 L 133 244 L 129 245 L 128 248 L 130 248 L 129 250 L 130 252 L 130 251 L 134 253 L 136 252 L 240 252 L 241 256 L 241 281 L 240 282 L 241 286 L 241 288 L 240 288 Q 241 290 237 293 L 238 294 L 234 300 L 234 302 L 233 302 L 233 304 L 231 307 Q 227 308 230 310 L 229 310 L 229 312 L 226 316 L 226 318 L 225 318 L 225 320 L 224 325 L 226 326 L 225 326 L 226 328 L 234 322 L 233 321 L 234 318 L 236 318 L 239 317 L 237 316 L 236 314 L 240 307 L 241 307 L 240 310 L 241 311 L 241 324 L 245 326 L 246 327 Q 245 324 248 325 L 248 289 L 250 286 L 256 282 Q 254 278 253 282 L 253 281 Q 252 278 255 279 Q 253 277 256 276 Q 255 273 258 274 L 257 273 L 258 270 L 260 270 L 263 269 L 263 268 Q 260 269 261 267 L 261 265 Q 260 262 263 263 Q 261 261 264 260 Q 263 257 266 258 L 265 257 L 266 252 L 270 253 L 272 252 L 368 252 L 372 255 L 371 254 L 374 255 L 373 253 L 375 253 L 377 252 L 379 248 L 378 247 L 375 244 L 374 245 L 373 244 L 372 244 L 371 243 L 370 243 Q 367 242 368 245 L 270 245 L 272 243 L 368 243 L 272 242 Q 271 239 274 240 L 273 239 L 275 236 L 278 234 L 276 233 L 277 231 L 280 228 L 280 226 Q 279 223 282 224 L 281 223 L 283 220 L 286 218 L 284 217 L 285 215 L 288 212 L 288 210 Q 287 207 290 208 L 289 207 L 291 204 L 294 202 L 292 201 L 293 199 L 296 196 L 296 194 Q 295 191 298 192 L 297 191 L 299 188 L 302 186 L 300 185 L 302 181 L 302 183 L 303 183 L 302 180 L 305 174 L 308 175 L 306 172 Q 310 170 310 165 L 310 167 L 311 167 L 310 164 L 313 158 L 316 159 L 314 156 Q 318 154 318 149 L 318 151 L 319 151 L 318 148 L 321 142 L 324 143 L 324 142 L 322 140 L 325 137 L 324 136 L 326 135 L 325 134 L 326 130 L 323 128 L 319 128 Q 320 131 318 130 L 318 128 L 315 130 L 318 132 L 315 138 L 312 141 L 312 143 Q 313 145 311 144 L 311 146 L 309 149 L 306 151 L 308 152 L 307 154 L 304 157 L 304 159 Q 305 161 303 160 L 303 162 L 301 165 L 298 167 L 300 168 L 299 170 L 296 173 L 296 175 Q 297 177 295 176 L 295 178 L 293 181 L 290 183 L 292 184 L 291 186 L 288 189 L 288 191 Q 289 193 287 192 L 287 194 L 285 197 L 282 199 L 284 200 L 283 202 Q 279 203 282 205 L 279 211 L 276 210 L 278 213 Q 274 214 275 219 L 274 218 L 273 218 L 274 221 L 271 227 L 268 226 L 270 229 Q 266 230 267 235 L 266 234 L 265 234 L 266 237 L 261 245 L 257 244 L 256 245 L 248 245 L 249 243 L 259 243 L 259 241 L 258 242 L 248 242 L 248 137 L 251 131 L 248 125 Q 244 123 247 122 L 246 121 Z M 255 129 L 253 131 L 255 131 L 255 129 Z M 252 132 L 250 134 L 252 134 L 253 136 L 254 134 L 252 132 Z M 314 132 L 314 134 L 316 133 L 314 132 Z M 326 140 L 326 142 L 328 141 L 326 140 Z M 307 147 L 308 149 Q 309 146 307 147 Z M 306 151 L 305 154 L 306 154 L 306 151 Z M 320 151 L 318 153 L 320 153 L 320 151 Z M 318 156 L 318 158 L 320 157 L 318 156 Z M 299 163 L 300 165 Q 301 162 299 163 Z M 298 167 L 297 170 L 298 170 L 298 167 Z M 312 167 L 310 169 L 312 169 L 312 167 Z M 310 172 L 310 174 L 312 173 L 310 172 Z M 291 179 L 292 181 Q 293 178 291 179 Z M 290 183 L 289 186 L 290 186 L 290 183 Z M 301 187 Q 299 190 302 189 L 301 187 Z M 283 195 L 284 197 Q 285 194 283 195 Z M 295 198 L 294 201 L 295 201 L 295 198 Z M 293 203 Q 291 206 294 205 L 293 203 Z M 274 213 L 272 217 L 274 216 L 274 213 Z M 287 214 L 286 217 L 287 217 L 287 214 Z M 285 219 Q 283 222 286 221 L 285 219 Z M 266 229 L 264 233 L 266 232 L 266 229 Z M 279 230 L 278 233 L 279 233 L 279 230 Z M 277 235 Q 275 238 278 237 L 277 235 Z M 370 240 L 368 242 L 370 242 L 370 240 Z M 373 240 L 371 242 L 373 242 L 373 240 Z M 132 241 L 130 243 L 132 243 L 132 241 Z M 135 241 L 133 243 L 135 243 L 135 241 Z M 137 242 L 137 243 L 240 243 L 137 242 Z M 379 244 L 377 246 L 379 246 L 379 244 Z M 384 245 L 382 247 L 384 247 L 384 245 Z M 379 254 Q 377 257 380 256 L 379 254 Z M 270 257 L 271 259 Q 272 256 270 257 Z M 262 273 L 263 275 Q 264 272 262 273 Z M 255 283 L 254 285 L 256 284 L 255 283 Z M 252 285 L 250 288 L 252 288 Q 255 287 252 285 Z M 256 285 L 254 288 L 256 287 L 256 285 Z M 225 310 L 225 312 L 227 311 L 225 310 Z M 238 321 L 239 323 Q 240 320 238 321 Z M 239 324 L 239 326 L 241 325 L 239 324 Z M 246 384 L 247 386 Q 248 383 246 384 Z M 245 388 L 244 390 L 242 390 Q 239 389 240 392 L 237 394 L 240 395 L 237 396 L 239 396 L 240 400 L 240 521 L 240 523 L 238 527 L 235 528 L 238 529 L 235 529 L 236 532 L 237 530 L 240 532 L 240 535 L 240 554 L 239 555 L 240 559 L 239 562 L 233 559 Q 230 558 231 554 L 224 552 L 223 550 Q 224 547 221 548 L 217 541 L 217 539 L 216 538 L 213 534 Q 214 531 211 532 L 212 528 L 210 524 L 207 523 Q 208 518 206 519 L 206 518 L 204 517 L 205 514 L 204 513 L 202 510 L 202 508 L 201 507 L 201 506 L 199 504 L 197 497 L 197 495 L 195 491 L 195 489 L 193 486 Q 195 484 192 483 L 194 483 L 194 480 L 191 481 L 190 478 L 191 475 L 190 474 Q 191 472 188 471 L 189 469 L 188 468 L 188 467 L 185 462 L 188 461 L 185 460 L 187 459 Q 186 456 185 458 L 183 452 L 184 448 L 182 448 L 182 444 L 180 444 L 182 443 L 181 441 L 180 441 L 179 439 L 181 438 L 182 436 L 180 437 L 178 437 L 180 436 L 178 435 L 180 432 L 178 433 L 176 430 L 177 428 L 174 420 L 174 418 L 174 412 L 172 412 L 172 411 L 171 409 L 171 405 L 169 404 Q 169 397 166 393 L 165 395 L 163 394 L 160 398 L 162 406 L 160 407 L 164 412 L 162 412 Q 161 414 164 413 L 164 417 L 162 418 L 164 418 L 165 421 Q 168 422 166 424 L 168 427 L 167 429 L 169 429 L 168 434 L 170 434 L 171 439 L 170 438 L 169 443 L 170 443 Q 169 439 172 440 L 171 446 L 173 446 L 174 449 L 174 451 Q 175 453 172 452 L 172 453 Q 175 452 174 455 L 176 454 L 175 456 L 177 459 L 176 461 Q 179 462 177 464 Q 176 466 179 465 L 179 469 L 179 471 L 180 473 L 182 475 L 181 478 L 183 480 L 182 482 L 184 482 L 185 485 L 183 486 L 185 486 L 187 492 L 186 494 L 188 494 L 186 497 L 189 498 Q 191 499 189 501 Q 193 504 194 512 L 195 514 Q 197 513 196 517 L 196 519 L 198 519 L 198 521 Q 200 520 199 523 L 198 524 L 201 527 L 200 532 L 202 532 L 203 532 L 202 534 L 204 533 L 203 535 L 205 535 L 207 540 L 207 542 L 209 542 L 211 546 L 210 546 L 210 547 Q 212 546 211 549 L 213 548 L 214 551 L 217 554 L 216 555 L 218 555 L 221 561 L 226 562 L 226 563 L 222 562 L 220 562 L 218 563 L 218 561 L 216 561 L 216 563 L 137 563 L 135 563 L 131 562 L 129 565 L 129 567 L 128 569 L 131 570 L 134 571 L 135 570 L 240 570 L 240 598 L 241 599 Q 240 601 245 600 L 247 600 L 247 597 L 248 594 L 247 593 L 247 574 L 247 572 L 248 570 L 274 570 L 276 570 L 280 572 L 280 574 L 283 573 Q 285 574 284 572 Q 285 569 287 571 L 288 570 L 364 570 L 364 572 L 366 571 L 366 573 Q 368 574 367 572 L 369 572 L 373 571 L 376 568 L 376 566 L 375 562 Q 370 563 369 560 L 368 562 L 364 563 L 288 563 L 287 562 L 286 562 L 285 560 L 281 557 L 280 560 L 276 563 L 271 561 L 271 563 L 270 563 L 267 562 L 265 563 L 262 563 L 269 560 L 268 559 L 274 550 L 275 552 L 277 549 L 279 550 L 280 550 L 277 545 L 279 545 L 282 537 Q 285 535 283 534 L 286 532 L 286 527 L 291 519 L 291 517 L 293 516 L 292 515 L 293 513 Q 292 510 295 511 Q 297 510 295 509 L 296 504 L 299 499 L 298 498 L 301 497 L 300 495 L 300 493 L 302 492 L 301 491 Q 300 488 303 489 L 302 488 Q 305 485 304 480 L 307 475 L 306 474 L 309 473 L 307 471 L 308 469 L 308 467 Q 309 464 311 466 L 312 466 L 309 464 L 311 463 Q 309 461 312 460 L 311 458 L 312 454 L 315 453 L 313 452 Q 312 449 315 450 L 314 449 Q 313 445 316 446 L 315 445 L 317 442 L 316 439 L 319 439 L 317 438 L 318 435 L 318 433 L 319 431 L 319 429 Q 320 420 325 416 L 323 415 L 324 410 L 328 409 L 328 406 L 327 408 L 325 409 L 326 407 L 326 405 L 328 404 L 326 403 L 328 402 L 327 401 L 328 398 L 322 393 Q 323 395 320 397 Q 321 399 319 398 L 319 400 L 317 401 L 319 402 L 318 402 L 318 406 L 317 408 L 317 410 L 315 414 L 313 416 L 314 419 L 312 423 L 313 425 Q 309 426 312 428 L 308 436 L 309 439 L 308 438 L 306 439 L 308 442 L 307 442 L 307 444 L 306 447 L 306 449 L 304 453 L 303 460 Q 299 461 302 463 L 300 463 L 300 464 Q 302 463 301 466 L 299 467 L 300 470 L 298 470 L 299 473 L 296 474 Q 295 477 298 476 L 297 478 Q 298 481 296 480 L 296 482 L 293 484 L 295 484 L 293 490 L 293 492 L 292 492 L 292 494 L 291 498 L 288 501 L 289 502 L 288 504 L 288 506 L 287 508 L 285 507 L 286 510 L 285 512 L 283 515 Q 285 516 283 517 L 283 516 L 281 515 L 280 518 L 282 518 L 280 523 Q 281 525 278 524 L 276 529 L 274 530 L 277 531 L 275 531 L 274 533 L 276 532 L 274 535 Q 275 538 271 536 L 271 538 L 273 537 L 270 541 Q 271 543 269 542 L 269 544 L 265 549 Q 266 551 263 550 L 263 552 L 261 552 L 257 557 L 250 562 L 247 562 L 247 537 L 247 535 L 247 532 Q 251 533 250 531 L 253 527 Q 249 528 250 526 Q 249 523 248 525 L 247 523 L 247 400 L 250 397 L 248 396 L 249 394 L 247 393 L 246 391 L 248 391 L 248 389 L 245 388 Z M 234 394 L 232 396 L 235 396 L 234 394 Z M 253 394 Q 251 397 254 396 L 253 394 Z M 237 397 L 237 399 Q 236 401 239 400 L 238 399 Q 239 396 237 397 Z M 253 397 L 253 398 L 255 398 L 253 397 Z M 314 397 Q 312 400 315 399 L 314 397 Z M 316 399 L 314 401 L 316 401 L 316 399 Z M 316 402 L 313 404 L 314 406 L 315 406 Q 314 403 317 404 L 316 402 Z M 174 404 L 172 406 L 175 406 L 174 404 Z M 175 409 L 173 411 L 175 411 L 175 409 Z M 313 410 L 313 411 L 315 411 L 313 410 Z M 327 411 L 328 413 Q 329 410 327 411 Z M 164 419 L 162 421 L 164 421 L 164 419 Z M 323 422 L 324 423 L 325 424 Q 326 421 323 422 Z M 179 424 L 178 426 L 178 428 L 180 428 L 179 424 Z M 310 424 Q 308 427 311 426 L 310 424 Z M 164 428 L 165 431 L 166 429 L 164 428 Z M 306 428 L 304 430 L 307 430 L 306 428 Z M 307 433 Q 305 436 308 435 L 307 433 Z M 169 435 L 168 438 L 169 438 L 169 435 Z M 305 436 L 306 438 L 308 437 L 305 436 Z M 183 437 L 181 440 L 183 439 L 183 437 Z M 183 440 Q 181 443 184 442 L 183 440 Z M 318 440 L 319 442 Q 320 439 318 440 Z M 169 443 L 169 447 L 171 447 L 169 443 Z M 172 447 L 173 449 Q 174 446 172 447 Z M 315 450 L 315 452 L 317 451 L 315 450 Z M 318 451 L 316 453 L 318 453 L 318 451 Z M 171 453 L 170 456 L 171 456 L 171 453 Z M 187 456 L 187 458 L 189 457 L 187 456 Z M 190 459 L 188 462 L 190 463 L 190 459 Z M 299 464 L 296 467 L 297 468 L 300 466 L 299 464 Z M 177 471 Q 175 474 178 475 L 179 475 L 177 471 Z M 197 480 L 195 482 L 197 482 L 197 480 Z M 177 481 L 177 483 L 179 482 L 177 481 Z M 199 481 Q 197 484 200 483 L 199 481 Z M 292 483 L 288 486 L 291 486 L 293 486 L 292 483 Z M 197 485 L 196 490 L 198 490 L 197 488 Q 199 486 197 485 Z M 198 491 L 199 493 Q 200 490 198 491 Z M 303 494 L 302 497 L 303 497 L 303 494 Z M 290 495 L 288 498 L 290 498 L 290 495 Z M 199 496 Q 197 499 200 498 L 199 496 Z M 187 501 L 188 503 Q 189 500 187 501 Z M 204 509 L 204 512 L 206 511 L 204 509 Z M 284 509 L 285 511 Q 286 508 284 509 Z M 196 520 L 194 522 L 196 523 L 196 520 Z M 234 520 L 234 523 L 235 523 Q 236 519 234 520 Z M 237 520 L 238 522 Q 239 519 237 520 Z M 250 520 L 250 522 L 252 521 L 250 520 Z M 253 520 L 254 523 L 255 521 L 253 520 Z M 214 521 L 214 524 L 216 523 L 214 521 Z M 274 521 Q 271 523 274 524 L 275 522 L 274 521 Z M 290 523 L 290 525 L 292 524 L 290 523 Z M 193 525 L 194 527 Q 195 524 193 525 Z M 199 525 L 199 528 Q 202 527 199 525 Z M 195 526 L 195 528 L 197 527 L 195 526 Z M 215 527 L 216 529 Q 217 526 215 527 Z M 234 527 L 232 530 L 234 530 L 234 527 Z M 255 527 Q 253 530 256 529 L 255 527 Z M 273 527 L 274 529 Q 275 526 273 527 Z M 255 532 L 253 535 L 255 535 Q 258 534 255 532 Z M 202 538 L 201 540 L 203 539 L 203 541 L 205 540 Q 207 541 206 539 L 205 539 L 202 538 Z M 282 539 L 282 541 L 284 540 L 282 539 Z M 218 540 L 218 542 L 220 541 L 218 540 Z M 205 541 L 206 543 Q 207 540 205 541 Z M 221 541 L 221 542 L 223 542 L 221 541 Z M 264 542 L 264 544 L 266 543 L 264 542 Z M 258 549 Q 256 552 259 551 L 258 549 Z M 278 551 L 278 552 L 280 552 L 278 551 Z M 253 554 L 253 555 L 256 555 L 253 554 Z M 283 554 L 281 557 L 283 557 L 283 554 Z M 286 554 Q 283 555 284 559 L 285 559 Q 284 555 287 556 L 286 554 Z M 233 555 L 234 556 L 235 557 Q 236 554 233 555 Z M 249 555 L 249 558 L 251 559 L 250 557 Q 251 554 249 555 Z M 133 560 Q 131 563 134 562 L 133 560 Z M 362 560 L 363 562 L 364 562 L 362 560 Z M 135 571 Q 132 573 135 574 L 136 574 L 135 571 Z M 272 571 L 272 573 L 274 572 L 272 571 Z M 276 571 L 277 575 L 279 576 L 278 573 L 276 571 Z M 371 572 L 372 574 Q 373 571 371 572 Z M 286 573 L 286 575 L 288 574 L 286 573 Z M 362 574 L 362 575 L 365 576 L 366 576 Q 365 573 362 574 Z M 669 872 Q 669 875 666 874 L 666 875 L 670 875 L 669 872 Z M 675 872 L 672 874 L 672 876 L 670 876 L 672 881 L 678 883 L 678 881 L 680 882 L 681 881 L 1144 881 L 1145 883 L 1145 881 L 1148 882 L 1150 881 Q 1153 880 1152 875 L 1148 873 L 1147 874 L 680 874 L 678 874 L 675 872 Z M 1152 872 L 1150 874 L 1152 874 L 1152 872 Z M 678 883 L 679 886 L 680 884 L 678 883 Z M 1146 883 Q 1144 886 1147 885 L 1146 883 Z M 676 885 L 674 888 L 677 886 L 676 885 Z M 1150 885 L 1148 887 L 1150 887 L 1150 885 Z M 675 944 L 674 946 L 677 947 L 675 944 Z M 679 946 L 678 949 L 680 949 L 679 946 Z M 1121 947 L 1122 948 L 1123 949 Q 1124 946 1121 947 Z M 677 949 L 675 951 Q 671 950 672 953 L 672 955 L 669 956 L 671 956 L 675 960 L 677 958 L 679 959 L 680 958 L 1122 958 L 1124 956 L 1124 958 L 1126 957 L 1124 954 L 1122 951 L 681 951 L 680 950 L 678 951 L 678 950 L 677 949 Z M 668 953 L 668 955 L 670 954 L 668 953 Z M 669 956 L 668 958 Q 670 961 671 958 L 669 956 Z M 667 957 L 666 959 L 669 960 L 667 957 Z M 445 1136 L 443 1137 L 443 1139 L 440 1141 L 442 1141 L 444 1146 L 447 1145 L 1200 1145 L 1201 1147 L 1201 1145 L 1204 1146 L 1208 1143 L 1207 1138 Q 1206 1135 1205 1137 L 1203 1136 L 1202 1137 L 449 1137 L 447 1137 L 445 1136 Z M 441 1137 Q 439 1140 442 1139 L 441 1137 Z M 443 1146 L 444 1148 Q 445 1145 443 1146 Z M 447 1147 Q 445 1150 448 1149 L 447 1147 Z M 1202 1147 Q 1200 1150 1203 1149 L 1202 1147 Z M 1206 1149 L 1204 1151 L 1206 1151 L 1206 1149 Z " /><path fill="rgb(255,255,255)" stroke="rgb(255,255,255)" stroke-width="1" opacity="1" d="M 246.5 250 L 258.5 251 L 260.5 250 Q 263.3 251.3 261 252.5 L 260.5 254 L 258.5 253 L 260 255.5 L 258.5 258 L 257 257.5 L 258 259.5 L 254.5 267 L 252 265.5 L 254 268.5 L 251 271.5 Q 253.3 272.8 250.5 274 L 249 273.5 L 250 275.5 L 246.5 281 L 247 279.5 L 247 256.5 L 246 253.5 L 247 251.5 L 246.5 250 Z M 250 269 L 248 273 L 250 272 L 250 269 Z " /><path fill="rgb(255,255,255)" stroke="rgb(255,255,255)" stroke-width="1" opacity="1" d="M 243.5 564 L 244.5 566 L 242 565.5 L 243.5 564 Z " /></svg>