<?xml version="1.0" encoding="utf-8" ?>
<svg baseProfile="full" height="1755px" version="1.1" width="1240px" xmlns="http://www.w3.org/2000/svg" xmlns:ev="http://www.w3.org/2001/xml-events" xmlns:xlink="http://www.w3.org/1999/xlink"><defs /><path d="M945,1219 L939,1219 L938,1219 L932,1219 L931,1219 L925,1219 L924,1219 L919,1219 L918,1219 L912,1219 L911,1219 L905,1219 L904,1219 L898,1219 L897,1219 L892,1219 L891,1219 L885,1219 L884,1219 L878,1219 L877,1219 L871,1219 L870,1219 L865,1219 L864,1219 L858,1219 L857,1219 L851,1219 L850,1219 L844,1218 L843,1218 L840,1216 L840,1215 L843,1212 L844,1211 L851,1207 L852,1206 L856,1204 L857,1203 L864,1199 L865,1198 L872,1194 L873,1193 L877,1191 L878,1190 L885,1186 L886,1185 L890,1183 L891,1182 L898,1178 L899,1177 L906,1173 L907,1172 L911,1170 L912,1169 L919,1165 L920,1164 L924,1162 L925,1161 L932,1157 L933,1156 L940,1152 L941,1151 L945,1149 L946,1148 L953,1144 L954,1143 L961,1139 L962,1138 L966,1136 L967,1135 L974,1131 L975,1130 L979,1128 L980,1127 L987,1123 L988,1122 L995,1118 L996,1117 L1000,1115 L1001,1114 L1008,1110 L1009,1109 L1016,1105 L1017,1104 L1021,1102 L1022,1101 L1029,1097 L1030,1096 L1034,1094 L1035,1093 L1042,1089 L1043,1088 L1047,1086 L1048,1085 L1052,1091 L1052,1092 L1052,1100 L1052,1101 L1052,1108 L1052,1109 L1052,1117 L1052,1118 L1052,1125 L1052,1126 L1052,1134 L1052,1135 L1052,1142 L1052,1143 L1052,1151 L1052,1152 L1052,1159 L1052,1160 L1052,1168 L1052,1169 L1052,1176 L1052,1177 L1052,1185 L1052,1186 L1052,1193 L1052,1194 L1052,1202 L1052,1203 L1052,1211 L1052,1212 L1047,1219 L1046,1219 L1040,1219 L1039,1219 L1033,1218 L1032,1218 L1027,1219 L1026,1219 L1020,1219 L1019,1219 L1013,1219 L1012,1219 L1006,1219 L1005,1219 L1000,1219 L999,1219 L993,1219 L992,1219 L986,1219 L985,1219 L979,1219 L978,1219 L973,1219 L972,1219 L966,1219 L965,1219 L959,1219 L958,1219 L952,1219 L951,1219" fill="none" stroke="black" /><path d="M848,1506 L848,1503 L848,1502 L848,1495 L848,1494 L848,1486 L848,1485 L848,1478 L848,1477 L848,1469 L848,1468 L848,1461 L848,1460 L848,1452 L848,1451 L848,1444 L848,1443 L848,1435 L848,1434 L848,1427 L848,1426 L848,1418 L848,1417 L848,1410 L848,1409 L848,1401 L848,1400 L848,1393 L848,1392 L848,1384 L848,1383" fill="none" stroke="black" /><path d="M1050,1507 L1047,1506 L1046,1506 L1040,1506 L1039,1506 L1033,1506 L1032,1506 L1026,1506 L1025,1506 L1019,1506 L1018,1506 L1012,1506 L1011,1506 L1005,1506 L1004,1506 L998,1506 L997,1506 L991,1506 L990,1506 L984,1506 L983,1506 L977,1506 L976,1506 L970,1506 L969,1506 L963,1506 L962,1506 L956,1506 L955,1506 L949,1506 L948,1506 L943,1506 L942,1506 L936,1506 L935,1506 L929,1506 L928,1506 L922,1506 L921,1506 L915,1506 L914,1506 L908,1506 L907,1506 L901,1506 L900,1506 L894,1506 L893,1506 L887,1506 L886,1506 L880,1506 L879,1506 L873,1506 L872,1506 L866,1506 L865,1506 L859,1506 L858,1506 L852,1506 L851,1506" fill="none" stroke="black" /><path d="M848,1506 L845,1506 L844,1506 L838,1506 L837,1506" fill="none" stroke="black" /><path d="M511,1381 L512,1378 L512,1377 L512,1373 L513,1372 L514,1363 L515,1362 L518,1355 L519,1355 L527,1354 L528,1354 L533,1354 L534,1354 L540,1354 L541,1354 L547,1354 L548,1354 L554,1354 L555,1354 L560,1354 L561,1354 L567,1354 L568,1354 L574,1354 L575,1354 L581,1354 L582,1354 L587,1354 L588,1354 L594,1354 L595,1354 L601,1354 L602,1354 L608,1354 L609,1354 L614,1354 L615,1354 L621,1354 L622,1354 L628,1354 L629,1354 L635,1354 L636,1354 L641,1354 L642,1354 L648,1354 L649,1354 L655,1354 L656,1354 L662,1354 L663,1354 L668,1354 L669,1354 L675,1354 L676,1354 L682,1354 L683,1354 L689,1354 L690,1354 L695,1354 L696,1354 L702,1354 L703,1354 L709,1354 L710,1354" fill="none" stroke="black" /><path d="M510,1388 L508,1384 L508,1383" fill="none" stroke="black" /><path d="M511,1381 L507,1382 L506,1381" fill="none" stroke="black" /></svg>