<svg width="1284" height="1541" version="1.1" xmlns="http://www.w3.org/2000/svg" desc="Created with imagetracer.js version 1.2.6" ><path fill="rgb(63,63,63)" stroke="rgb(63,63,63)" stroke-width="1" opacity="1" d="M 1046.5 482 Q 1052 481 1053 484.5 Q 1053.5 488.5 1050.5 489 L 938 554 Q 938.8 558.7 934.5 560 L 929.5 559 L 871 593 Q 871.8 596.8 868.5 598 L 864.5 597 L 771 651 L 768.5 655 L 766.5 656 L 764.5 655 L 735.5 673 L 731.5 674 L 704 690 L 701.5 694 L 697.5 694 L 664.5 714 L 658.5 717 L 655.5 717 Q 652.5 716.5 653 712.5 L 665.5 703 L 671.5 701 L 699.5 685 L 830 609 Q 829.3 605.2 832.5 604 L 836.5 605 L 963 530.5 L 965.5 527 L 970.5 527 L 1030 491.5 Q 1029.5 487.5 1032.5 487 L 1037.5 488 L 1046.5 482 Z " /><path fill="rgb(63,63,63)" stroke="rgb(63,63,63)" stroke-width="1" opacity="1" d="M 636.5 704 Q 640.5 703.5 641 706.5 L 640 712.5 L 637 715.5 L 637 725 L 645.5 725 Q 647 719.5 655.5 721 Q 659.2 723 657.5 725 Q 664.5 726.5 664 723.5 L 666.5 721 L 668.5 721 L 671 723.5 L 671.5 725 L 747 725 L 749.5 721 Q 753.5 720.5 754 723.5 L 754.5 725 L 830 725 L 832.5 721 Q 836.5 720.5 837 723.5 L 837.5 725 L 914 725 L 916.5 721 Q 920.5 720.5 921 723.5 L 921.5 725 L 997 725 L 999.5 721 L 1001.5 721 L 1004 723.5 L 1004.5 725 L 1056.5 725 L 1059.5 723 L 1063.5 724 L 1066 726.5 L 1065 728.5 Q 1067.7 730.3 1063.5 732 L 1056.5 733 L 1055.5 732 L 1004.5 732 L 1001.5 735 L 999.5 735 L 996.5 732 L 921.5 732 L 918.5 735 L 916.5 735 L 913.5 732 L 837.5 732 L 834.5 735 L 832.5 735 L 829.5 732 L 754.5 732 L 751.5 735 L 749.5 735 L 746.5 732 L 671.5 732 L 668.5 735 L 666.5 735 L 663.5 732 L 651.5 732 Q 650.3 736.3 643.5 735 Q 642.1 731 637 732 L 637 766.5 L 634.5 769 L 632.5 769 L 630 766.5 L 630 732 L 595.5 732 L 593 729.5 L 593 727.5 L 595.5 725 L 629.5 725 L 630 724.5 L 630 717.5 Q 627.3 715.8 631.5 714 L 633 714.5 Q 635.8 712.8 635 707.5 Q 632.3 705.8 636.5 704 Z M 651 726 L 650 728 L 652 727 L 651 726 Z " /><path fill="rgb(255,255,255)" stroke="rgb(255,255,255)" stroke-width="1" opacity="1" d="M 0 0 L 1284 0 L 1284 1541 L 0 1541 L 0 0 Z M 1047 482 L 1038 488 L 1033 487 Q 1029 488 1030 492 L 971 527 L 966 527 L 963 531 L 837 605 L 833 604 Q 829 605 830 609 L 700 685 L 672 701 L 666 703 L 653 713 Q 652 717 656 717 L 659 717 L 665 714 L 698 694 L 702 694 L 704 690 L 732 674 L 736 673 L 765 655 L 767 656 L 769 655 L 771 651 L 865 597 L 869 598 Q 872 597 871 593 L 930 559 L 935 560 Q 939 559 938 554 L 1051 489 Q 1054 488 1053 485 Q 1052 481 1047 482 Z M 637 704 Q 632 706 635 708 Q 636 713 633 715 L 632 714 Q 627 716 630 718 L 630 725 L 630 725 L 596 725 L 593 728 L 593 730 L 596 732 L 630 732 L 630 767 L 633 769 L 635 769 L 637 767 L 637 732 Q 642 731 644 735 Q 650 736 652 732 L 664 732 L 667 735 L 669 735 L 672 732 L 747 732 L 750 735 L 752 735 L 755 732 L 830 732 L 833 735 L 835 735 L 838 732 L 914 732 L 917 735 L 919 735 L 922 732 L 997 732 L 1000 735 L 1002 735 L 1005 732 L 1056 732 L 1057 733 L 1064 732 Q 1068 730 1065 729 L 1066 727 L 1064 724 L 1060 723 L 1057 725 L 1005 725 L 1004 724 L 1002 721 L 1000 721 L 997 725 L 922 725 L 921 724 Q 920 720 917 721 L 914 725 L 838 725 L 837 724 Q 837 720 833 721 L 830 725 L 755 725 L 754 724 Q 754 720 750 721 L 747 725 L 672 725 L 671 724 L 669 721 L 667 721 L 664 724 Q 665 727 658 725 Q 659 723 656 721 Q 647 720 646 725 L 637 725 L 637 716 L 640 713 L 641 707 Q 641 703 637 704 Z " /><path fill="rgb(255,255,255)" stroke="rgb(255,255,255)" stroke-width="1" opacity="1" d="M 650.5 726 L 652 726.5 L 646.5 730 L 646.5 729 L 650.5 726 Z " /></svg>