<svg width="1240" height="1755" version="1.1" xmlns="http://www.w3.org/2000/svg" desc="Created with imagetracer.js version 1.2.6" ><path fill="rgb(53,53,53)" stroke="rgb(53,53,53)" stroke-width="1" opacity="1" d="M 857.5 271 Q 861.5 270.5 862 273.5 L 862 497 L 1137.5 497 L 1140 499.5 L 1140 501.5 L 1137.5 504 L 862.5 504 L 862 504.5 L 862 514.5 Q 861.5 517.5 857.5 517 L 855 514.5 L 855 504 L 837.5 504 L 835 501.5 Q 834.5 497.5 837.5 497 L 854.5 497 L 855 496.5 L 855 273.5 L 857.5 271 Z " /><path fill="rgb(53,53,53)" stroke="rgb(53,53,53)" stroke-width="1" opacity="1" d="M 986.5 293 L 1001.5 293 L 1002.5 294 L 1014.5 295 L 1030.5 300 L 1035.5 304 Q 1036.7 301.8 1041.5 303 L 1048.5 311 L 1066 326.5 Q 1078.7 340.8 1085 361.5 L 1088 376.5 L 1088 397.5 L 1085 412.5 L 1077 432.5 Q 1067.2 449.2 1052.5 461 Q 1038 473.5 1016.5 479 L 1006.5 481 L 981.5 481 L 967.5 478 L 948.5 470 Q 932.4 460.6 921 446.5 L 910 430.5 L 903 412.5 L 900 397.5 L 900 376.5 L 902 365.5 L 912 340.5 Q 920.5 326.5 932.5 316 Q 942.6 307.1 955.5 301 L 969.5 296 L 986.5 293 Z M 987 298 L 970 301 L 956 306 Q 943 312 933 321 Q 920 332 913 349 L 907 366 L 905 377 L 905 398 L 908 413 L 915 431 L 926 447 Q 945 470 982 476 L 1007 476 L 1017 474 Q 1038 468 1053 456 Q 1064 446 1072 433 L 1080 413 L 1083 398 L 1083 377 L 1080 362 Q 1074 341 1061 327 L 1046 314 L 1041 308 L 1036 309 L 1031 305 L 1015 300 L 1003 299 L 1002 298 L 987 298 Z " /><path fill="rgb(53,53,53)" stroke="rgb(53,53,53)" stroke-width="1" opacity="1" d="M 346.5 354 L 512.5 354 L 515 356.5 Q 515.8 361.3 512.5 362 L 350.5 362 L 349 363.5 L 345 389.5 Q 342.2 391.2 343 396.5 L 340.5 399 L 338.5 400 L 336 397.5 L 331 385.5 L 327 381.5 Q 328.9 377.9 334.5 378 L 337.5 381 L 339 379.5 L 342 359.5 L 346.5 354 Z " /><path fill="rgb(255,255,255)" stroke="rgb(255,255,255)" stroke-width="1" opacity="1" d="M 0 0 L 1240 0 L 1240 1755 L 0 1755 L 0 0 Z M 858 271 L 855 274 L 855 497 L 855 497 L 838 497 Q 835 497 835 502 L 838 504 L 855 504 L 855 515 L 858 517 Q 862 518 862 515 L 862 505 L 863 504 L 1138 504 L 1140 502 L 1140 500 L 1138 497 L 862 497 L 862 274 Q 862 271 858 271 Z M 987 293 L 970 296 L 956 301 Q 943 307 933 316 Q 921 327 912 341 L 902 366 L 900 377 L 900 398 L 903 413 L 910 431 L 921 447 Q 932 461 949 470 L 968 478 L 982 481 L 1007 481 L 1017 479 Q 1038 473 1053 461 Q 1067 449 1077 433 L 1085 413 L 1088 398 L 1088 377 L 1085 362 Q 1079 341 1066 327 L 1049 311 L 1042 303 Q 1037 302 1036 304 L 1031 300 L 1015 295 L 1003 294 L 1002 293 L 987 293 Z M 347 354 L 342 360 L 339 380 L 338 381 L 335 378 Q 329 378 327 382 L 331 386 L 336 398 L 339 400 L 341 399 L 343 397 Q 342 391 345 390 L 349 364 L 351 362 L 513 362 Q 516 361 515 357 L 513 354 L 347 354 Z " /><path fill="rgb(255,255,255)" stroke="rgb(255,255,255)" stroke-width="1" opacity="1" d="M 986.5 298 L 1001.5 298 L 1002.5 299 L 1014.5 300 L 1030.5 305 L 1035.5 309 L 1041 308 L 1045.5 314 L 1061 326.5 Q 1073.6 340.8 1080 361.5 L 1083 376.5 L 1083 397.5 L 1080 412.5 L 1072 432.5 Q 1064.2 446.2 1052.5 456 Q 1038 468.5 1016.5 474 L 1006.5 476 L 981.5 476 Q 945.2 469.8 926 446.5 L 915 430.5 L 908 412.5 L 905 397.5 L 905 376.5 L 907 365.5 L 913 348.5 Q 920.5 332.5 932.5 321 Q 942.6 312.1 955.5 306 L 969.5 301 L 986.5 298 Z " /></svg>