<svg width="1240" height="1755" version="1.1" xmlns="http://www.w3.org/2000/svg" desc="Created with imagetracer.js version 1.2.6" ><path fill="rgb(45,45,45)" stroke="rgb(45,45,45)" stroke-width="1" opacity="1" d="M 1048.5 1083 Q 1053.3 1082.3 1054 1085.5 L 1055 1087.5 L 1055 1216.5 L 1051.5 1221 L 1049.5 1222 L 1037.5 1222 L 1033.5 1221 L 1032.5 1222 L 843.5 1222 Q 842.3 1219.8 837.5 1221 L 835 1218.5 L 835 1216.5 L 838.5 1213 L 1048.5 1083 Z M 1049 1088 L 843 1215 L 844 1217 L 1033 1217 L 1034 1216 L 1050 1217 L 1050 1089 L 1049 1088 Z " /><path fill="rgb(45,45,45)" stroke="rgb(45,45,45)" stroke-width="1" opacity="1" d="M 516.5 1351 L 719.5 1351 L 722 1353.5 Q 722.8 1358.3 719.5 1359 L 520.5 1359 L 519 1360.5 L 515 1386.5 Q 512 1388.5 513 1394.5 L 510.5 1397 L 508.5 1397 L 506 1394.5 Q 504.1 1383.9 497 1378.5 Q 498.9 1374.9 504.5 1375 Q 506.8 1380.3 509 1376.5 L 512 1356.5 L 516.5 1351 Z " /><path fill="rgb(45,45,45)" stroke="rgb(45,45,45)" stroke-width="1" opacity="1" d="M 847.5 1372 Q 851.5 1371.5 852 1374.5 L 852 1503 L 1055.5 1503 Q 1058.5 1503.5 1058 1507.5 L 1055.5 1510 L 852 1510 Q 853 1514.7 849.5 1516 Q 845.5 1516.5 845 1513.5 L 844.5 1510 L 830.5 1510 Q 827.5 1509.5 828 1505.5 L 830.5 1503 L 845 1503 L 845 1374.5 L 847.5 1372 Z " /><path fill="rgb(255,255,255)" stroke="rgb(255,255,255)" stroke-width="1" opacity="1" d="M 0 0 L 1240 0 L 1240 1755 L 0 1755 L 0 0 Z M 1049 1083 L 839 1213 L 835 1217 L 835 1219 L 838 1221 Q 842 1220 844 1222 L 1033 1222 L 1034 1221 L 1038 1222 L 1050 1222 L 1052 1221 L 1055 1217 L 1055 1088 L 1054 1086 Q 1053 1082 1049 1083 Z M 517 1351 L 512 1357 L 509 1377 Q 507 1380 505 1375 Q 499 1375 497 1379 Q 504 1384 506 1395 L 509 1397 L 511 1397 L 513 1395 Q 512 1389 515 1387 L 519 1361 L 521 1359 L 720 1359 Q 723 1358 722 1354 L 720 1351 L 517 1351 Z M 848 1372 L 845 1375 L 845 1503 L 831 1503 L 828 1506 Q 828 1510 831 1510 L 845 1510 L 845 1514 Q 845 1517 850 1516 Q 853 1515 852 1510 L 1056 1510 L 1058 1508 Q 1059 1504 1056 1503 L 852 1503 L 852 1375 Q 852 1372 848 1372 Z " /><path fill="rgb(255,255,255)" stroke="rgb(255,255,255)" stroke-width="1" opacity="1" d="M 1048.5 1088 L 1050 1088.5 L 1050 1217 L 1033.5 1216 L 1032.5 1217 L 843.5 1217 L 842.5 1215 L 1048.5 1088 Z " /></svg>