<svg width="1275" height="1651" version="1.1" xmlns="http://www.w3.org/2000/svg" desc="Created with imagetracer.js version 1.2.6" ><path fill="rgb(1,1,1)" stroke="rgb(1,1,1)" stroke-width="1" opacity="1" d="M 116.5 79 L 1159.5 79 L 1163 82.5 L 1163 133.5 L 1159.5 137 L 116.5 137 L 113 133.5 L 113 82.5 L 116.5 79 Z M 118 84 L 118 132 L 119 132 L 1158 132 L 1158 85 L 1158 84 L 118 84 Z " /><path fill="rgb(1,1,1)" stroke="rgb(1,1,1)" stroke-width="1" opacity="1" d="M 116.5 1546 L 1159.5 1546 L 1163 1549.5 L 1163 1580.5 L 1159.5 1584 L 116.5 1584 L 113 1580.5 L 113 1549.5 L 116.5 1546 Z M 118 1551 L 118 1579 L 119 1579 L 1158 1579 L 1158 1552 L 1158 1551 L 118 1551 Z " /><path fill="rgb(254,254,254)" stroke="rgb(254,254,254)" stroke-width="1" opacity="1" d="M 115.5 72 L 116.5 74 L 115.5 72 Z " /><path fill="rgb(254,254,254)" stroke="rgb(254,254,254)" stroke-width="1" opacity="1" d="M 118.5 72 L 119.5 74 L 118.5 72 Z " /><path fill="rgb(254,254,254)" stroke="rgb(254,254,254)" stroke-width="1" opacity="1" d="M 116.5 75 L 116 76.5 Q 115.3 78.8 117.5 78 L 117.5 79 L 114.5 78 L 114.5 80 L 112 78.5 L 116.5 75 Z " /><path fill="rgb(254,254,254)" stroke="rgb(254,254,254)" stroke-width="1" opacity="1" d="M 118 75 L 120 75.5 L 119.5 78 L 118 75 Z " /><path fill="rgb(254,254,254)" stroke="rgb(254,254,254)" stroke-width="1" opacity="1" d="M 1166.5 80 L 1168 83.5 Q 1168.8 85.8 1166.5 85 L 1167.5 88 L 1165.5 86 L 1163 87.5 L 1163.5 85 Q 1165.3 87.8 1167 83.5 L 1165.5 83 L 1163.5 84 L 1163.5 83 L 1165 82.5 L 1164.5 81 L 1166.5 80 Z " /><path fill="rgb(254,254,254)" stroke="rgb(254,254,254)" stroke-width="1" opacity="1" d="M 118.5 84 L 119 86.5 L 118 86.5 L 118.5 84 Z " /><path fill="rgb(254,254,254)" stroke="rgb(254,254,254)" stroke-width="1" opacity="1" d="M 1155.5 84 L 1157 84.5 L 1154 86.5 L 1154.5 88 L 1152 87.5 L 1152.5 85 Q 1154 87.5 1155.5 84 Z " /><path fill="rgb(254,254,254)" stroke="rgb(254,254,254)" stroke-width="1" opacity="1" d="M 1157.5 86 L 1156.5 88 L 1157.5 86 Z " /><path fill="rgb(254,254,254)" stroke="rgb(254,254,254)" stroke-width="1" opacity="1" d="M 118.5 88 L 119 127.5 L 118 127.5 L 118.5 88 Z " /><path fill="rgb(254,254,254)" stroke="rgb(254,254,254)" stroke-width="1" opacity="1" d="M 1165.5 88 L 1166 127.5 L 1165 127.5 L 1165.5 88 Z " /><path fill="rgb(254,254,254)" stroke="rgb(254,254,254)" stroke-width="1" opacity="1" d="M 1152.5 128 L 1155 128.5 L 1154.5 130 L 1157 131.5 L 1155.5 132 Q 1153.8 128.9 1152 130.5 L 1152.5 128 Z " /><path fill="rgb(254,254,254)" stroke="rgb(254,254,254)" stroke-width="1" opacity="1" d="M 1156.5 128 L 1157.5 130 L 1156.5 128 Z " /><path fill="rgb(254,254,254)" stroke="rgb(254,254,254)" stroke-width="1" opacity="1" d="M 1163.5 128 L 1165.5 130 L 1168 128.5 L 1166.5 131 Q 1168.8 130.3 1168 132.5 L 1166.5 136 L 1164 134.5 L 1164.5 133 L 1163 132.5 L 1164.5 132 L 1166.5 133 L 1164.5 130 L 1163 130.5 L 1163.5 128 Z " /><path fill="rgb(254,254,254)" stroke="rgb(254,254,254)" stroke-width="1" opacity="1" d="M 118.5 129 L 119 131.5 L 118 131.5 L 118.5 129 Z " /><path fill="rgb(254,254,254)" stroke="rgb(254,254,254)" stroke-width="1" opacity="1" d="M 114.5 136 L 114.5 138 L 117.5 137 L 117.5 138 Q 115.3 137.3 116 139.5 L 116.5 141 L 113 137.5 L 114.5 136 Z " /><path fill="rgb(254,254,254)" stroke="rgb(254,254,254)" stroke-width="1" opacity="1" d="M 119.5 138 L 119.5 141 Q 117.3 141.8 118 139.5 L 119.5 138 Z " /><path fill="rgb(254,254,254)" stroke="rgb(254,254,254)" stroke-width="1" opacity="1" d="M 116.5 142 L 115.5 144 L 116.5 142 Z " /><path fill="rgb(254,254,254)" stroke="rgb(254,254,254)" stroke-width="1" opacity="1" d="M 119.5 142 L 118.5 144 L 119.5 142 Z " /><path fill="rgb(254,254,254)" stroke="rgb(254,254,254)" stroke-width="1" opacity="1" d="M 113.5 1544 L 114 1545.5 L 113 1547.5 L 113.5 1549 L 112 1546.5 L 113.5 1544 Z " /><path fill="rgb(254,254,254)" stroke="rgb(254,254,254)" stroke-width="1" opacity="1" d="M 116.5 1544 L 120 1545.5 L 117.5 1546 L 115.5 1547 L 116 1545.5 L 116.5 1544 Z " /><path fill="rgb(254,254,254)" stroke="rgb(254,254,254)" stroke-width="1" opacity="1" d="M 1154.5 1544 L 1157 1544.5 L 1155.5 1546 L 1153 1545.5 L 1154.5 1544 Z " /><path fill="rgb(254,254,254)" stroke="rgb(254,254,254)" stroke-width="1" opacity="1" d="M 1163.5 1544 L 1165.5 1547 L 1166 1545.5 L 1165.5 1544 L 1168 1544.5 L 1165.5 1548 Q 1161.9 1546.9 1163.5 1544 Z " /><path fill="rgb(254,254,254)" stroke="rgb(254,254,254)" stroke-width="1" opacity="1" d="M 1160.5 1546 L 1165.5 1550 L 1167.5 1549 L 1167.5 1552 L 1166 1551.5 L 1166 1575.5 L 1168 1577.5 L 1166 1577.5 L 1165.5 1579 L 1165 1577 L 1163 1576.5 L 1165 1576 L 1165 1552.5 Q 1162.3 1551.4 1163 1548 L 1160.5 1546 Z " /><path fill="rgb(254,254,254)" stroke="rgb(254,254,254)" stroke-width="1" opacity="1" d="M 118.5 1552 L 119 1575.5 L 120 1576.5 L 118.5 1579 L 118 1577.5 L 118 1575.5 L 118.5 1552 Z " /><path fill="rgb(254,254,254)" stroke="rgb(254,254,254)" stroke-width="1" opacity="1" d="M 1156.5 1576 L 1156 1577.5 Q 1156.8 1579.8 1154.5 1579 L 1156.5 1576 Z " /><path fill="rgb(254,254,254)" stroke="rgb(254,254,254)" stroke-width="1" opacity="1" d="M 1163.5 1579 L 1164.5 1581 L 1167.5 1579 L 1168 1581.5 L 1167.5 1583 L 1167 1581 L 1165 1581.5 L 1165.5 1583 Q 1163.8 1579.3 1162 1582.5 L 1162.5 1584 L 1160 1583.5 L 1163.5 1579 Z " /><path fill="rgb(254,254,254)" stroke="rgb(254,254,254)" stroke-width="1" opacity="1" d="M 112.5 1582 L 116 1583.5 L 114.5 1584 L 112.5 1582 Z " /><path fill="rgb(255,255,255)" stroke="rgb(255,255,255)" stroke-width="1" opacity="1" d="M 0 0 L 1275 0 L 1275 1651 L 0 1651 L 0 0 Z M 118 75 L 118 77 L 120 76 L 118 75 Z M 116 76 L 114 78 L 116 78 L 116 76 Z M 116 78 L 113 85 L 113 89 L 113 130 L 112 131 L 116 138 L 119 137 L 1160 137 L 1162 135 Q 1164 136 1163 133 L 1165 133 L 1164 132 L 1164 129 L 1163 128 L 1163 89 L 1163 85 L 1165 84 L 1165 83 Q 1162 84 1163 81 L 1160 79 L 119 79 L 116 78 Z M 1165 81 L 1166 83 L 1167 83 L 1165 81 Z M 1168 83 L 1166 85 L 1168 85 L 1168 83 Z M 1166 88 L 1165 128 L 1166 128 L 1166 88 Z M 1167 131 L 1168 133 Q 1169 130 1167 131 Z M 1166 133 L 1165 135 L 1167 134 L 1166 133 Z M 115 138 L 116 140 Q 117 137 115 138 Z M 119 139 Q 117 142 120 141 L 119 139 Z M 117 1544 L 115 1547 Q 116 1549 113 1548 L 113 1551 L 113 1553 L 113 1577 L 112 1578 L 114 1582 L 112 1583 L 115 1584 L 1161 1584 L 1164 1581 L 1163 1577 L 1165 1577 L 1163 1576 L 1163 1552 L 1165 1550 Q 1164 1547 1163 1549 L 1163 1548 L 1159 1545 L 1157 1546 L 1154 1545 L 1153 1546 L 121 1546 L 117 1544 Z M 1167 1549 L 1164 1552 L 1165 1553 L 1166 1576 L 1166 1552 L 1168 1550 L 1167 1549 Z " /><path fill="rgb(255,255,255)" stroke="rgb(255,255,255)" stroke-width="1" opacity="1" d="M 119 84 L 1155 84.5 L 1154.5 86 L 1157.5 84 L 1158 85.5 L 1158 87.5 L 1158 128.5 L 1157 129.5 L 1158 131.5 L 1155.5 130 L 1154 130.5 L 1154.5 132 L 119.5 132 L 119 129.5 L 119 127.5 L 119 88.5 L 118 87.5 L 119 84 Z " /><path fill="rgb(255,255,255)" stroke="rgb(255,255,255)" stroke-width="1" opacity="1" d="M 118.5 1551 L 1154.5 1551 L 1155.5 1552 L 1158 1551 L 1158 1578.5 L 1156 1579 L 1155.5 1577 L 1153.5 1579 L 119 1579 L 118 1576.5 L 119 1575.5 L 119 1552.5 L 118.5 1551 Z " /></svg>