<?xml version="1.0" encoding="utf-8" ?>
<svg baseProfile="full" height="1541px" version="1.1" width="1284px" xmlns="http://www.w3.org/2000/svg" xmlns:ev="http://www.w3.org/2001/xml-events" xmlns:xlink="http://www.w3.org/1999/xlink"><defs /><path d="M1144,875 L1140,877 L1139,877 L1133,877 L1132,877 L1125,877 L1124,877 L1118,877 L1117,877 L1110,877 L1109,877 L1103,877 L1102,877 L1095,877 L1094,877 L1088,877 L1087,877 L1080,877 L1079,877 L1073,877 L1072,877 L1065,877 L1064,877 L1058,877 L1057,877 L1050,877 L1049,877 L1043,877 L1042,877 L1036,877 L1035,877 L1029,877 L1028,877 L1021,877 L1020,877 L1014,877 L1013,877 L1006,877 L1005,877 L999,877 L998,877 L991,877 L990,877 L984,877 L983,877 L977,877 L976,877 L970,877 L969,877 L962,877 L961,877 L955,877 L954,877 L947,877 L946,877 L940,877 L939,877 L932,877 L931,877 L925,877 L924,877 L918,877 L917,877 L911,877 L910,877 L903,877 L902,877 L896,877 L895,877 L888,877 L887,877 L881,877 L880,877 L873,877 L872,877 L866,877 L865,877 L859,877 L858,877 L852,877 L851,877 L844,877 L843,877 L837,877 L836,877 L829,877 L828,877 L822,877 L821,877 L814,877 L813,877 L807,877 L806,877 L800,877 L799,877 L793,877 L792,877 L785,877 L784,877 L778,877 L777,877 L770,877 L769,877 L763,877 L762,877 L755,877 L754,877 L748,877 L747,877 L741,877 L740,877 L734,877 L733,877 L726,877 L725,877 L719,877 L718,877 L711,877 L710,877 L704,877 L703,877 L696,877 L695,877 L689,877 L688,877 L682,877 L681,877" fill="none" stroke="black" /><path d="M1116,953 L1113,954 L1112,954 L1106,954 L1105,954 L1099,954 L1098,954 L1092,954 L1091,954 L1085,954 L1084,954 L1078,954 L1077,954 L1071,954 L1070,954 L1064,954 L1063,954 L1057,954 L1056,954 L1050,954 L1049,954 L1043,954 L1042,954 L1036,954 L1035,954 L1029,954 L1028,954 L1022,954 L1021,954 L1015,954 L1014,954 L1008,954 L1007,954 L1001,954 L1000,954 L994,954 L993,954 L987,954 L986,954 L980,954 L979,954 L973,954 L972,954 L966,954 L965,954 L959,954 L958,954 L952,954 L951,954 L945,954 L944,954 L938,954 L937,954 L931,954 L930,954 L924,954 L923,954 L917,954 L916,954 L910,954 L909,954 L903,954 L902,954 L897,954 L896,954 L890,954 L889,954 L883,954 L882,954 L876,954 L875,954 L869,954 L868,954 L862,954 L861,954 L855,954 L854,954 L848,954 L847,954 L841,954 L840,954 L834,954 L833,954 L827,954 L826,954 L820,954 L819,954 L813,954 L812,954 L806,954 L805,954 L799,954 L798,954 L792,954 L791,954 L786,954 L785,954 L779,954 L778,954 L772,954 L771,954 L765,954 L764,954 L758,954 L757,954 L751,954 L750,954 L744,954 L743,954 L737,954 L736,954 L730,954 L729,954 L723,954 L722,954 L716,954 L715,954 L709,954 L708,954 L702,954 L701,954 L695,954 L694,954 L688,954 L687,954 L681,954 L680,954" fill="none" stroke="black" /><path d="M1200,1139 L1197,1140 L1196,1140 L1191,1140 L1190,1140 L1185,1140 L1184,1140 L1179,1140 L1178,1140 L1173,1140 L1172,1140 L1167,1140 L1166,1140 L1161,1140 L1160,1140 L1155,1140 L1154,1140 L1149,1140 L1148,1140 L1143,1140 L1142,1140 L1137,1140 L1136,1140 L1131,1140 L1130,1140 L1125,1140 L1124,1140 L1119,1140 L1118,1140 L1113,1140 L1112,1140 L1108,1140 L1107,1140 L1102,1140 L1101,1140 L1096,1140 L1095,1140 L1090,1140 L1089,1140 L1084,1140 L1083,1140 L1078,1140 L1077,1140 L1072,1140 L1071,1140 L1066,1140 L1065,1140 L1061,1140 L1060,1140 L1055,1140 L1054,1140 L1049,1140 L1048,1140 L1043,1140 L1042,1140 L1037,1140 L1036,1140 L1031,1140 L1030,1140 L1025,1140 L1024,1140 L1019,1140 L1018,1140 L1014,1140 L1013,1140 L1008,1140 L1007,1140 L1002,1140 L1001,1140 L996,1140 L995,1140 L990,1140 L989,1140 L984,1140 L983,1140 L978,1140 L977,1140 L972,1140 L971,1140 L966,1140 L965,1140 L960,1140 L959,1140 L954,1140 L953,1140 L948,1140 L947,1140 L942,1140 L941,1140 L936,1140 L935,1140 L930,1140 L929,1140 L924,1140 L923,1140 L919,1140 L918,1140 L913,1140 L912,1140 L907,1140 L906,1140 L901,1140 L900,1140 L895,1140 L894,1140 L889,1140 L888,1140 L883,1140 L882,1140 L877,1140 L876,1140 L872,1140 L871,1140 L866,1140 L865,1140 L860,1140 L859,1140 L854,1140 L853,1140 L848,1140 L847,1140 L842,1140 L841,1140 L836,1140 L835,1140 L830,1140 L829,1140 L825,1140 L824,1140 L819,1140 L818,1140 L813,1140 L812,1140 L807,1140 L806,1140 L801,1140 L800,1140 L795,1140 L794,1140 L789,1140 L788,1140 L783,1140 L782,1140 L777,1140 L776,1140 L771,1140 L770,1140 L765,1140 L764,1140 L759,1140 L758,1140 L753,1140 L752,1140 L747,1140 L746,1140 L741,1140 L740,1140 L735,1140 L734,1140 L730,1140 L729,1140 L724,1140 L723,1140 L718,1140 L717,1140 L712,1140 L711,1140 L706,1140 L705,1140 L700,1140 L699,1140 L694,1140 L693,1140 L688,1140 L687,1140 L683,1140 L682,1140 L677,1140 L676,1140 L671,1140 L670,1140 L665,1140 L664,1140 L659,1140 L658,1140 L653,1140 L652,1140 L647,1140 L646,1140 L641,1140 L640,1140 L636,1140 L635,1140 L630,1140 L629,1140 L624,1140 L623,1140 L618,1140 L617,1140 L612,1140 L611,1140 L606,1140 L605,1140 L600,1140 L599,1140 L594,1140 L593,1140 L588,1140 L587,1140 L582,1140 L581,1140 L576,1140 L575,1140 L570,1140 L569,1140 L564,1140 L563,1140 L558,1140 L557,1140 L552,1140 L551,1140 L546,1140 L545,1140 L541,1140 L540,1140 L535,1140 L534,1140 L529,1140 L528,1140 L523,1140 L522,1140 L517,1140 L516,1140 L511,1140 L510,1140 L505,1140 L504,1140 L499,1140 L498,1140 L494,1140 L493,1140 L488,1140 L487,1140 L482,1140 L481,1140 L476,1140 L475,1140 L470,1140 L469,1140 L464,1140 L463,1140 L458,1140 L457,1140 L452,1140 L451,1140" fill="none" stroke="black" /><path d="M229,564 L223,566 L222,566 L214,566 L213,566 L208,566 L207,566 L202,566 L201,566 L194,566 L193,566 L186,566 L185,566 L180,566 L179,566 L174,566 L173,566 L168,566 L167,566 L163,566 L162,566 L155,566 L154,566 L147,566 L146,566 L139,566 L138,566" fill="none" stroke="black" /><path d="M246,568 L247,564 L245,563" fill="none" stroke="black" /><path d="M241,593 L243,590 L243,589 L243,584 L243,583 L243,578 L243,577 L243,572 L243,571" fill="none" stroke="black" /><path d="M258,564 L257,564 L256,565 L253,565 L252,565 L249,565 L248,565" fill="none" stroke="black" /><path d="M246,568 L241,568 L240,568 L239,567 L238,566" fill="none" stroke="black" /><path d="M243,562 L241,562 L240,563" fill="none" stroke="black" /><path d="M243,562 L242,561 L243,560 L243,558 L243,557 L243,551 L243,550 L243,545 L243,544 L243,538 L243,537 L243,532 L243,531 L243,525 L243,524 L243,519 L243,518 L243,512 L243,511 L243,506 L243,505 L243,500 L243,499 L243,494 L243,493 L243,487 L243,486 L243,481 L243,480 L243,474 L243,473 L243,468 L243,467 L243,461 L243,460 L243,455 L243,454 L243,449 L243,448 L243,443 L243,442 L243,436 L243,435 L243,430 L243,429 L243,424 L243,423 L243,418 L243,417 L243,411 L243,410 L243,405 L243,404 L243,399 L243,398" fill="none" stroke="black" /><path d="M239,564 L237,565 L236,565 L232,565 L231,565" fill="none" stroke="black" /><path d="M229,564 L229,562 L228,561 L224,556 L223,555 L218,549 L217,548 L215,545 L214,544 L211,539 L210,537 L209,536 L209,535 L206,528 L205,527 L203,524 L203,523 L201,518 L200,517 L198,513 L198,512 L196,507 L196,506 L194,502 L194,501 L192,497 L192,496 L190,491 L190,490 L187,482 L187,481 L184,472 L184,471 L182,466 L182,465 L181,461 L180,460 L179,455 L179,454 L177,449 L177,448 L175,440 L174,439 L173,434 L173,433 L172,429 L171,428 L169,419 L169,418 L166,409 L166,408" fill="none" stroke="black" /><path d="M258,564 L259,561 L259,560 L262,556 L263,555 L267,551 L268,550 L271,546 L272,545 L275,540 L275,539 L278,535 L278,534 L282,525 L283,524 L285,519 L286,518 L288,513 L288,512 L290,507 L290,506 L292,502 L292,501 L295,492 L296,491 L299,482 L299,481 L302,472 L302,471 L305,462 L305,461 L307,456 L307,455 L308,451 L308,450 L310,445 L310,444 L311,440 L311,439 L314,430 L314,429 L316,424 L316,423 L317,419 L317,418 L319,413 L319,412 L320,408 L320,407" fill="none" stroke="black" /><path d="M370,565 L367,566 L366,566 L361,566 L360,566 L355,566 L354,566 L349,566 L348,566 L342,566 L341,566 L336,566 L335,566 L330,566 L329,566 L324,566 L323,566 L318,566 L317,566 L312,566 L311,566 L306,566 L305,566 L301,566 L300,566 L292,566 L291,566 L284,566 L283,566 L278,566 L277,566 L273,566 L272,566 L265,566 L264,566" fill="none" stroke="black" /><path d="M263,248 L256,247 L255,247 L248,247 L247,247" fill="none" stroke="black" /><path d="M244,284 L243,281 L243,280 L243,276 L243,275 L243,266 L243,265 L243,256 L243,255" fill="none" stroke="black" /><path d="M242,300 L243,296 L243,295 L244,287 L244,286" fill="none" stroke="black" /><path d="M263,248 L262,255 L261,256 L257,265 L257,266 L252,275 L252,276 L250,280 L249,281 L248,283 L247,284" fill="none" stroke="black" /><path d="M267,245 L266,246 L265,247" fill="none" stroke="black" /><path d="M370,250 L367,248 L366,248 L361,248 L360,248 L354,248 L353,248 L348,248 L347,248 L341,248 L340,248 L335,248 L334,248 L329,248 L328,248 L323,248 L322,248 L316,248 L315,248 L310,248 L309,248 L304,248 L303,248 L298,248 L297,248 L290,248 L289,248 L282,248 L281,248 L274,248 L273,248" fill="none" stroke="black" /><path d="M267,245 L267,241 L267,240 L271,233 L271,232 L275,224 L276,223 L279,216 L280,215 L282,210 L283,209 L285,205 L285,204 L287,199 L288,198 L290,193 L291,192 L293,187 L294,186 L296,182 L296,181 L299,175 L300,174 L302,169 L303,168 L306,162 L306,161 L309,156 L309,155 L312,149 L313,148 L315,143 L316,142 L318,137 L319,136" fill="none" stroke="black" /><path d="M244,250 L244,246 L244,245 L244,236 L244,235 L244,227 L244,226 L244,218 L244,217 L244,209 L244,208 L244,199 L244,198 L244,189 L244,188 L244,179 L244,178 L244,170 L244,169 L244,160 L244,159 L244,150 L244,149 L244,140 L244,139 L244,131 L244,130" fill="none" stroke="black" /><path d="M242,318 L244,314 L244,313 L244,305 L244,304" fill="none" stroke="black" /><path d="M230,320 L229,317 L230,316 L232,312 L232,311 L235,306 L235,305 L238,302 L239,301" fill="none" stroke="black" /><path d="M135,248 L139,248 L140,248 L145,248 L146,248 L150,248 L151,248 L156,248 L157,248 L161,248 L162,248 L167,248 L168,248 L173,248 L174,248 L179,248 L180,248 L184,248 L185,248 L190,248 L191,248 L196,248 L197,248 L202,248 L203,248 L207,248 L208,248 L213,248 L214,248 L219,248 L220,248 L225,248 L226,248 L233,248 L234,248 L241,248 L242,248" fill="none" stroke="black" /></svg>