<?xml version="1.0" encoding="utf-8" ?>
<svg baseProfile="full" height="1651px" version="1.1" width="1275px" xmlns="http://www.w3.org/2000/svg" xmlns:ev="http://www.w3.org/2001/xml-events" xmlns:xlink="http://www.w3.org/1999/xlink"><defs /><path d="M637,1581 L629,1581 L628,1581 L621,1581 L620,1581 L613,1581 L612,1581 L605,1581 L604,1581 L596,1581 L595,1581 L588,1581 L587,1581 L580,1581 L579,1581 L572,1581 L571,1581 L563,1581 L562,1581 L555,1581 L554,1581 L547,1581 L546,1581 L539,1581 L538,1581 L531,1581 L530,1581 L523,1581 L522,1581 L515,1581 L514,1581 L507,1581 L506,1581 L498,1581 L497,1581 L490,1581 L489,1581 L482,1581 L481,1581 L474,1581 L473,1581 L465,1581 L464,1581 L457,1581 L456,1581 L449,1581 L448,1581 L441,1581 L440,1581 L432,1581 L431,1581 L424,1581 L423,1581 L416,1581 L415,1581 L408,1581 L407,1581 L400,1581 L399,1581 L392,1581 L391,1581 L384,1581 L383,1581 L376,1581 L375,1581 L367,1581 L366,1581 L359,1581 L358,1581 L351,1581 L350,1581 L343,1581 L342,1581 L334,1581 L333,1581 L326,1581 L325,1581 L318,1581 L317,1581 L310,1581 L309,1581 L301,1581 L300,1581 L293,1581 L292,1581 L285,1581 L284,1581 L277,1581 L276,1581 L269,1581 L268,1581 L261,1581 L260,1581 L253,1581 L252,1581 L245,1581 L244,1581 L236,1581 L235,1581 L228,1581 L227,1581 L220,1581 L219,1581 L212,1581 L211,1581 L203,1581 L202,1581 L195,1581 L194,1581 L187,1581 L186,1581 L179,1581 L178,1581 L170,1581 L169,1581 L162,1581 L161,1581 L154,1581 L153,1581 L146,1581 L145,1581 L138,1581 L137,1581 L130,1581 L129,1581 L122,1581 L121,1581 L115,1574 L115,1573 L115,1565 L115,1564 L115,1556 L115,1555 L121,1548 L122,1548 L129,1548 L130,1548 L137,1548 L138,1548 L145,1548 L146,1548 L153,1548 L154,1548 L161,1548 L162,1548 L169,1548 L170,1548 L178,1548 L179,1548 L186,1548 L187,1548 L194,1548 L195,1548 L202,1548 L203,1548 L211,1548 L212,1548 L219,1548 L220,1548 L227,1548 L228,1548 L235,1548 L236,1548 L244,1548 L245,1548 L252,1548 L253,1548 L260,1548 L261,1548 L268,1548 L269,1548 L276,1548 L277,1548 L284,1548 L285,1548 L292,1548 L293,1548 L300,1548 L301,1548 L309,1548 L310,1548 L317,1548 L318,1548 L325,1548 L326,1548 L333,1548 L334,1548 L342,1548 L343,1548 L350,1548 L351,1548 L358,1548 L359,1548 L366,1548 L367,1548 L375,1548 L376,1548 L383,1548 L384,1548 L391,1548 L392,1548 L399,1548 L400,1548 L407,1548 L408,1548 L415,1548 L416,1548 L423,1548 L424,1548 L431,1548 L432,1548 L440,1548 L441,1548 L448,1548 L449,1548 L456,1548 L457,1548 L464,1548 L465,1548 L473,1548 L474,1548 L481,1548 L482,1548 L489,1548 L490,1548 L497,1548 L498,1548 L506,1548 L507,1548 L514,1548 L515,1548 L522,1548 L523,1548 L530,1548 L531,1548 L538,1548 L539,1548 L546,1548 L547,1548 L554,1548 L555,1548 L562,1548 L563,1548 L571,1548 L572,1548 L579,1548 L580,1548 L587,1548 L588,1548 L595,1548 L596,1548 L604,1548 L605,1548 L612,1548 L613,1548 L620,1548 L621,1548 L628,1548 L629,1548 L637,1548 L638,1548 L645,1548 L646,1548 L653,1548 L654,1548 L661,1548 L662,1548 L669,1548 L670,1548 L677,1548 L678,1548 L685,1548 L686,1548 L693,1548 L694,1548 L702,1548 L703,1548 L710,1548 L711,1548 L718,1548 L719,1548 L726,1548 L727,1548 L735,1548 L736,1548 L743,1548 L744,1548 L751,1548 L752,1548 L759,1548 L760,1548 L768,1548 L769,1548 L776,1548 L777,1548 L784,1548 L785,1548 L792,1548 L793,1548 L800,1548 L801,1548 L808,1548 L809,1548 L816,1548 L817,1548 L824,1548 L825,1548 L833,1548 L834,1548 L841,1548 L842,1548 L849,1548 L850,1548 L857,1548 L858,1548 L866,1548 L867,1548 L874,1548 L875,1548 L882,1548 L883,1548 L890,1548 L891,1548 L899,1548 L900,1548 L907,1548 L908,1548 L915,1548 L916,1548 L923,1548 L924,1548 L931,1548 L932,1548 L939,1548 L940,1548 L947,1548 L948,1548 L955,1548 L956,1548 L964,1548 L965,1548 L972,1548 L973,1548 L980,1548 L981,1548 L988,1548 L989,1548 L997,1548 L998,1548 L1005,1548 L1006,1548 L1013,1548 L1014,1548 L1021,1548 L1022,1548 L1030,1548 L1031,1548 L1038,1548 L1039,1548 L1046,1548 L1047,1548 L1054,1548 L1055,1548 L1062,1548 L1063,1548 L1070,1548 L1071,1548 L1078,1548 L1079,1548 L1086,1548 L1087,1548 L1095,1548 L1096,1548 L1103,1548 L1104,1548 L1111,1548 L1112,1548 L1119,1548 L1120,1548 L1128,1548 L1129,1548 L1136,1548 L1137,1548 L1144,1548 L1145,1548 L1152,1548 L1153,1548 L1160,1555 L1160,1556 L1160,1564 L1160,1565 L1160,1573 L1160,1574 L1153,1581 L1152,1581 L1145,1581 L1144,1581 L1137,1581 L1136,1581 L1129,1581 L1128,1581 L1120,1581 L1119,1581 L1112,1581 L1111,1581 L1104,1581 L1103,1581 L1096,1581 L1095,1581 L1087,1581 L1086,1581 L1079,1581 L1078,1581 L1071,1581 L1070,1581 L1063,1581 L1062,1581 L1055,1581 L1054,1581 L1047,1581 L1046,1581 L1039,1581 L1038,1581 L1031,1581 L1030,1581 L1022,1581 L1021,1581 L1014,1581 L1013,1581 L1006,1581 L1005,1581 L998,1581 L997,1581 L989,1581 L988,1581 L981,1581 L980,1581 L973,1581 L972,1581 L965,1581 L964,1581 L956,1581 L955,1581 L948,1581 L947,1581 L940,1581 L939,1581 L932,1581 L931,1581 L924,1581 L923,1581 L916,1581 L915,1581 L908,1581 L907,1581 L900,1581 L899,1581 L891,1581 L890,1581 L883,1581 L882,1581 L875,1581 L874,1581 L867,1581 L866,1581 L858,1581 L857,1581 L850,1581 L849,1581 L842,1581 L841,1581 L834,1581 L833,1581 L825,1581 L824,1581 L817,1581 L816,1581 L809,1581 L808,1581 L801,1581 L800,1581 L793,1581 L792,1581 L785,1581 L784,1581 L777,1581 L776,1581 L769,1581 L768,1581 L760,1581 L759,1581 L752,1581 L751,1581 L744,1581 L743,1581 L736,1581 L735,1581 L727,1581 L726,1581 L719,1581 L718,1581 L711,1581 L710,1581 L703,1581 L702,1581 L694,1581 L693,1581 L686,1581 L685,1581 L678,1581 L677,1581 L670,1581 L669,1581 L662,1581 L661,1581 L654,1581 L653,1581 L646,1581 L645,1581" fill="none" stroke="black" /><path d="M637,134 L629,134 L628,134 L621,134 L620,134 L613,134 L612,134 L605,134 L604,134 L596,134 L595,134 L588,134 L587,134 L580,134 L579,134 L572,134 L571,134 L563,134 L562,134 L555,134 L554,134 L547,134 L546,134 L539,134 L538,134 L531,134 L530,134 L523,134 L522,134 L515,134 L514,134 L507,134 L506,134 L498,134 L497,134 L490,134 L489,134 L482,134 L481,134 L474,134 L473,134 L465,134 L464,134 L457,134 L456,134 L449,134 L448,134 L441,134 L440,134 L432,134 L431,134 L424,134 L423,134 L416,134 L415,134 L408,134 L407,134 L400,134 L399,134 L392,134 L391,134 L384,134 L383,134 L376,134 L375,134 L367,134 L366,134 L359,134 L358,134 L351,134 L350,134 L343,134 L342,134 L334,134 L333,134 L326,134 L325,134 L318,134 L317,134 L310,134 L309,134 L301,134 L300,134 L293,134 L292,134 L285,134 L284,134 L277,134 L276,134 L269,134 L268,134 L261,134 L260,134 L253,134 L252,134 L245,134 L244,134 L236,134 L235,134 L228,134 L227,134 L220,134 L219,134 L212,134 L211,134 L203,134 L202,134 L195,134 L194,134 L187,134 L186,134 L179,134 L178,134 L170,134 L169,134 L162,134 L161,134 L154,134 L153,134 L146,134 L145,134 L138,134 L137,134 L130,134 L129,134 L122,134 L121,134 L115,129 L115,128 L115,122 L115,121 L115,115 L115,114 L115,108 L115,107 L115,101 L115,100 L115,94 L115,93 L115,87 L115,86 L121,81 L122,81 L129,81 L130,81 L137,81 L138,81 L145,81 L146,81 L153,81 L154,81 L161,81 L162,81 L169,81 L170,81 L178,81 L179,81 L186,81 L187,81 L194,81 L195,81 L202,81 L203,81 L211,81 L212,81 L219,81 L220,81 L227,81 L228,81 L235,81 L236,81 L244,81 L245,81 L252,81 L253,81 L260,81 L261,81 L268,81 L269,81 L276,81 L277,81 L284,81 L285,81 L292,81 L293,81 L300,81 L301,81 L309,81 L310,81 L317,81 L318,81 L325,81 L326,81 L333,81 L334,81 L342,81 L343,81 L350,81 L351,81 L358,81 L359,81 L366,81 L367,81 L375,81 L376,81 L383,81 L384,81 L391,81 L392,81 L399,81 L400,81 L407,81 L408,81 L415,81 L416,81 L423,81 L424,81 L431,81 L432,81 L440,81 L441,81 L448,81 L449,81 L456,81 L457,81 L464,81 L465,81 L473,81 L474,81 L481,81 L482,81 L489,81 L490,81 L497,81 L498,81 L506,81 L507,81 L514,81 L515,81 L522,81 L523,81 L530,81 L531,81 L538,81 L539,81 L546,81 L547,81 L554,81 L555,81 L562,81 L563,81 L571,81 L572,81 L579,81 L580,81 L587,81 L588,81 L595,81 L596,81 L604,81 L605,81 L612,81 L613,81 L620,81 L621,81 L628,81 L629,81 L637,81 L638,81 L645,81 L646,81 L653,81 L654,81 L661,81 L662,81 L669,81 L670,81 L677,81 L678,81 L685,81 L686,81 L693,81 L694,81 L702,81 L703,81 L710,81 L711,81 L718,81 L719,81 L726,81 L727,81 L735,81 L736,81 L743,81 L744,81 L751,81 L752,81 L759,81 L760,81 L768,81 L769,81 L776,81 L777,81 L784,81 L785,81 L792,81 L793,81 L800,81 L801,81 L808,81 L809,81 L816,81 L817,81 L824,81 L825,81 L833,81 L834,81 L841,81 L842,81 L849,81 L850,81 L857,81 L858,81 L866,81 L867,81 L874,81 L875,81 L882,81 L883,81 L890,81 L891,81 L899,81 L900,81 L907,81 L908,81 L915,81 L916,81 L923,81 L924,81 L931,81 L932,81 L939,81 L940,81 L947,81 L948,81 L955,81 L956,81 L964,81 L965,81 L972,81 L973,81 L980,81 L981,81 L988,81 L989,81 L997,81 L998,81 L1005,81 L1006,81 L1013,81 L1014,81 L1021,81 L1022,81 L1030,81 L1031,81 L1038,81 L1039,81 L1046,81 L1047,81 L1054,81 L1055,81 L1062,81 L1063,81 L1070,81 L1071,81 L1078,81 L1079,81 L1086,81 L1087,81 L1095,81 L1096,81 L1103,81 L1104,81 L1111,81 L1112,81 L1119,81 L1120,81 L1128,81 L1129,81 L1136,81 L1137,81 L1144,81 L1145,81 L1152,81 L1153,81 L1160,86 L1160,87 L1160,93 L1160,94 L1160,100 L1160,101 L1160,107 L1160,108 L1160,114 L1160,115 L1160,121 L1160,122 L1160,128 L1160,129 L1153,134 L1152,134 L1145,134 L1144,134 L1137,134 L1136,134 L1129,134 L1128,134 L1120,134 L1119,134 L1112,134 L1111,134 L1104,134 L1103,134 L1096,134 L1095,134 L1087,134 L1086,134 L1079,134 L1078,134 L1071,134 L1070,134 L1063,134 L1062,134 L1055,134 L1054,134 L1047,134 L1046,134 L1039,134 L1038,134 L1031,134 L1030,134 L1022,134 L1021,134 L1014,134 L1013,134 L1006,134 L1005,134 L998,134 L997,134 L989,134 L988,134 L981,134 L980,134 L973,134 L972,134 L965,134 L964,134 L956,134 L955,134 L948,134 L947,134 L940,134 L939,134 L932,134 L931,134 L924,134 L923,134 L916,134 L915,134 L908,134 L907,134 L900,134 L899,134 L891,134 L890,134 L883,134 L882,134 L875,134 L874,134 L867,134 L866,134 L858,134 L857,134 L850,134 L849,134 L842,134 L841,134 L834,134 L833,134 L825,134 L824,134 L817,134 L816,134 L809,134 L808,134 L801,134 L800,134 L793,134 L792,134 L785,134 L784,134 L777,134 L776,134 L769,134 L768,134 L760,134 L759,134 L752,134 L751,134 L744,134 L743,134 L736,134 L735,134 L727,134 L726,134 L719,134 L718,134 L711,134 L710,134 L703,134 L702,134 L694,134 L693,134 L686,134 L685,134 L678,134 L677,134 L670,134 L669,134 L662,134 L661,134 L654,134 L653,134 L646,134 L645,134" fill="none" stroke="black" /></svg>