<?xml version="1.0" encoding="utf-8" ?>
<svg baseProfile="full" height="1651px" version="1.1" width="1275px" xmlns="http://www.w3.org/2000/svg" xmlns:ev="http://www.w3.org/2001/xml-events" xmlns:xlink="http://www.w3.org/1999/xlink"><defs /><path d="M636,493 L629,493 L628,493 L621,493 L620,493 L613,493 L612,493 L606,493 L605,493 L598,493 L597,493 L590,493 L589,493 L582,493 L581,493 L575,493 L574,493 L567,493 L566,493 L559,493 L558,493 L551,493 L550,493 L544,493 L543,493 L536,493 L535,493 L529,493 L528,493 L521,493 L520,493 L514,493 L513,493 L506,493 L505,493 L498,493 L497,493 L490,493 L489,493 L483,493 L482,493 L475,493 L474,493 L468,493 L467,493 L460,493 L459,493 L453,493 L452,493 L445,493 L444,493 L437,493 L436,493 L429,493 L428,493 L422,493 L421,493 L414,493 L413,493 L407,493 L406,493 L399,493 L398,493 L392,493 L391,493 L384,493 L383,493 L376,493 L375,493 L368,493 L367,493 L361,493 L360,493 L353,493 L352,493 L346,493 L345,493 L338,493 L337,493 L331,493 L330,493 L323,493 L322,493 L315,493 L314,493 L307,493 L306,493 L300,493 L299,493 L292,493 L291,493 L285,493 L284,493 L277,493 L276,493 L270,493 L269,493 L262,493 L261,493 L254,493 L253,493 L246,493 L245,493 L239,493 L238,493 L231,493 L230,493 L224,493 L223,493 L216,493 L215,493 L209,493 L208,493 L201,493 L200,493 L193,493 L192,493 L185,493 L184,493 L178,493 L177,493 L170,493 L169,493 L163,493 L162,493 L155,493 L154,493 L149,486 L149,485 L149,477 L149,476 L149,468 L149,467 L149,459 L149,458 L149,450 L149,449 L149,441 L149,440 L149,432 L149,431 L149,424 L149,423 L149,415 L149,414 L149,406 L149,405 L149,397 L149,396 L149,388 L149,387 L149,379 L149,378 L149,370 L149,369 L149,361 L149,360 L154,354 L155,354 L162,354 L163,354 L169,354 L170,354 L177,354 L178,354 L184,354 L185,354 L192,354 L193,354 L200,354 L201,354 L208,354 L209,354 L215,354 L216,354 L223,354 L224,354 L230,354 L231,354 L238,354 L239,354 L245,354 L246,354 L253,354 L254,354 L261,354 L262,354 L269,354 L270,354 L276,354 L277,354 L284,354 L285,354 L291,354 L292,354 L299,354 L300,354 L306,354 L307,354 L314,354 L315,354 L322,354 L323,354 L330,354 L331,354 L337,354 L338,354 L345,354 L346,354 L352,354 L353,354 L360,354 L361,354 L367,354 L368,354 L375,354 L376,354 L383,354 L384,354 L391,354 L392,354 L398,354 L399,354 L406,354 L407,354 L413,354 L414,354 L421,354 L422,354 L428,354 L429,354 L436,354 L437,354 L444,354 L445,354 L452,354 L453,354 L459,354 L460,354 L467,354 L468,354 L474,354 L475,354 L482,354 L483,354 L489,354 L490,354 L497,354 L498,354 L505,354 L506,354 L513,354 L514,354 L520,354 L521,354 L528,354 L529,354 L535,354 L536,354 L543,354 L544,354 L550,354 L551,354 L558,354 L559,354 L566,354 L567,354 L574,354 L575,354 L581,354 L582,354 L589,354 L590,354 L597,354 L598,354 L605,354 L606,354 L612,354 L613,354 L620,354 L621,354 L628,354 L629,354 L636,354 L637,354 L643,354 L644,354 L651,354 L652,354 L658,354 L659,354 L666,354 L667,354 L673,354 L674,354 L681,354 L682,354 L689,354 L690,354 L697,354 L698,354 L704,354 L705,354 L712,354 L713,354 L719,354 L720,354 L727,354 L728,354 L734,354 L735,354 L742,354 L743,354 L750,354 L751,354 L758,354 L759,354 L765,354 L766,354 L773,354 L774,354 L780,354 L781,354 L788,354 L789,354 L795,354 L796,354 L803,354 L804,354 L811,354 L812,354 L819,354 L820,354 L826,354 L827,354 L834,354 L835,354 L842,354 L843,354 L850,354 L851,354 L857,354 L858,354 L865,354 L866,354 L873,354 L874,354 L881,354 L882,354 L888,354 L889,354 L896,354 L897,354 L903,354 L904,354 L911,354 L912,354 L918,354 L919,354 L926,354 L927,354 L934,354 L935,354 L942,354 L943,354 L949,354 L950,354 L957,354 L958,354 L964,354 L965,354 L972,354 L973,354 L979,354 L980,354 L987,354 L988,354 L995,354 L996,354 L1003,354 L1004,354 L1010,354 L1011,354 L1018,354 L1019,354 L1025,354 L1026,354 L1033,354 L1034,354 L1040,354 L1041,354 L1048,354 L1049,354 L1056,354 L1057,354 L1064,354 L1065,354 L1071,354 L1072,354 L1079,354 L1080,354 L1087,354 L1088,354 L1095,354 L1096,354 L1102,354 L1103,354 L1110,354 L1111,354 L1118,354 L1119,354 L1125,360 L1125,361 L1125,369 L1125,370 L1125,378 L1125,379 L1125,387 L1125,388 L1125,396 L1125,397 L1125,405 L1125,406 L1125,414 L1125,415 L1125,423 L1125,424 L1125,431 L1125,432 L1125,440 L1125,441 L1125,449 L1125,450 L1125,458 L1125,459 L1125,467 L1125,468 L1125,476 L1125,477 L1125,485 L1125,486 L1119,493 L1118,493 L1111,493 L1110,493 L1103,493 L1102,493 L1096,493 L1095,493 L1088,493 L1087,493 L1080,493 L1079,493 L1072,493 L1071,493 L1065,493 L1064,493 L1057,493 L1056,493 L1049,493 L1048,493 L1041,493 L1040,493 L1034,493 L1033,493 L1026,493 L1025,493 L1019,493 L1018,493 L1011,493 L1010,493 L1004,493 L1003,493 L996,493 L995,493 L988,493 L987,493 L980,493 L979,493 L973,493 L972,493 L965,493 L964,493 L958,493 L957,493 L950,493 L949,493 L943,493 L942,493 L935,493 L934,493 L927,493 L926,493 L919,493 L918,493 L912,493 L911,493 L904,493 L903,493 L897,493 L896,493 L889,493 L888,493 L882,493 L881,493 L874,493 L873,493 L866,493 L865,493 L858,493 L857,493 L851,493 L850,493 L843,493 L842,493 L835,493 L834,493 L827,493 L826,493 L820,493 L819,493 L812,493 L811,493 L804,493 L803,493 L796,493 L795,493 L789,493 L788,493 L781,493 L780,493 L774,493 L773,493 L766,493 L765,493 L759,493 L758,493 L751,493 L750,493 L743,493 L742,493 L735,493 L734,493 L728,493 L727,493 L720,493 L719,493 L713,493 L712,493 L705,493 L704,493 L698,493 L697,493 L690,493 L689,493 L682,493 L681,493 L674,493 L673,493 L667,493 L666,493 L659,493 L658,493 L652,493 L651,493 L644,493 L643,493" fill="none" stroke="black" /><path d="M191,521" fill="none" stroke="black" /><path d="M198,528 L199,524 L198,523 L193,522 L192,522" fill="none" stroke="black" /><path d="M198,528 L193,530 L192,530 L187,527 L186,526" fill="none" stroke="black" /><path d="M225,523 L222,526 L221,526 L217,526 L216,526 L211,526 L210,526 L206,526 L205,526 L202,526 L201,525" fill="none" stroke="black" /><path d="M181,524 L181,523 L181,522" fill="none" stroke="black" /><path d="M188,523 L185,525 L184,525" fill="none" stroke="black" /><path d="M181,524 L179,526 L178,526 L174,525 L173,525 L168,525 L167,526 L164,526 L163,526" fill="none" stroke="black" /><path d="M161,526 L158,527 L157,527 L153,523 L153,522 L157,519 L158,519 L159,522 L159,523" fill="none" stroke="black" /><path d="M624,239 L624,237 L625,236 L630,233 L631,233 L637,236 L638,237" fill="none" stroke="black" /><path d="M638,238 L631,243 L630,243" fill="none" stroke="black" /><path d="M683,240 L680,238 L679,238 L675,238 L674,238 L665,238 L664,238 L659,238 L658,238 L654,238 L653,238 L644,238 L643,238 L640,238 L639,238" fill="none" stroke="black" /><path d="M624,239 L623,238 L622,238 L613,238 L612,238" fill="none" stroke="black" /></svg>