<?xml version="1.0" encoding="utf-8" ?>
<svg baseProfile="full" height="1541px" version="1.1" width="1284px" xmlns="http://www.w3.org/2000/svg" xmlns:ev="http://www.w3.org/2001/xml-events" xmlns:xlink="http://www.w3.org/1999/xlink"><defs /><path d="M1046,488 L1043,488 L1042,489 L1037,491 L1036,491 L1031,495 L1030,496 L1025,498 L1024,499 L1018,502 L1017,503 L1012,506 L1011,507 L1006,509 L1005,510 L1000,513 L999,513 L993,517 L992,518 L987,520 L986,521 L981,524 L980,525 L975,527 L974,528 L970,530 L969,530 L963,534 L962,535 L957,538 L956,539 L951,541 L950,542 L944,546 L943,546 L938,549 L937,550 L932,554 L931,555 L926,556 L925,557 L920,560 L919,560 L914,563 L913,564 L908,566 L907,567 L902,570 L901,571 L895,574 L894,575 L889,578 L888,578 L883,581 L882,582 L877,585 L876,585 L871,588 L870,589 L865,593 L864,594 L859,595 L858,596 L853,598 L852,599 L846,603 L845,603 L840,606 L839,607 L833,609 L832,610 L828,613 L827,614 L821,617 L820,618 L815,621 L814,621 L809,624 L808,625 L803,628 L802,628 L796,632 L795,632 L790,635 L789,636 L784,639 L783,639 L778,642 L777,643 L772,646 L771,646 L766,650 L765,651 L760,653 L759,653 L754,656 L753,657 L747,660 L746,661 L741,664 L740,664 L735,667 L734,668 L729,671 L728,671 L723,674 L722,675 L717,678 L716,678 L711,681 L710,682 L705,685 L704,685 L698,690 L697,690 L692,692 L691,693 L686,696 L685,696 L680,699 L679,700 L673,703 L672,704 L667,706 L666,707 L661,710 L660,711" fill="none" stroke="black" /><path d="M636,761 L633,757 L633,756 L633,750 L633,749 L633,742 L633,741 L633,735 L633,734" fill="none" stroke="black" /><path d="M643,729 L641,728 L640,728" fill="none" stroke="black" /><path d="M633,728 L633,727 L633,726 L633,720 L633,719 L636,712 L636,711" fill="none" stroke="black" /><path d="M648,728 L647,726 L648,725 L654,725 L654,726" fill="none" stroke="black" /><path d="M1058,730 L1055,728 L1054,728 L1049,728 L1048,728 L1042,728 L1041,728 L1036,728 L1035,728 L1029,728 L1028,728 L1023,728 L1022,728 L1017,728 L1016,728 L1011,728 L1010,728 L1004,728 L1003,728 L998,728 L997,728 L991,728 L990,728 L985,728 L984,728 L978,728 L977,728 L972,728 L971,728 L966,728 L965,728 L960,728 L959,728 L953,728 L952,728 L947,728 L946,728 L940,728 L939,728 L934,728 L933,728 L927,728 L926,728 L921,728 L920,728 L915,728 L914,728 L909,728 L908,728 L902,728 L901,728 L896,728 L895,728 L890,728 L889,728 L884,728 L883,728 L877,728 L876,728 L871,728 L870,728 L865,728 L864,728 L859,728 L858,728 L852,728 L851,728 L846,728 L845,728 L839,728 L838,728 L833,728 L832,728 L826,728 L825,728 L820,728 L819,728 L814,728 L813,728 L808,728 L807,728 L801,728 L800,728 L795,728 L794,728 L788,728 L787,728 L782,728 L781,728 L775,728 L774,728 L769,728 L768,728 L763,728 L762,728 L757,728 L756,728 L750,728 L749,728 L744,728 L743,728 L737,728 L736,728 L731,728 L730,728 L724,728 L723,728 L718,728 L717,728 L712,728 L711,728 L706,728 L705,728 L699,728 L698,728 L693,728 L692,728 L687,728 L686,728 L681,728 L680,728 L674,728 L673,728 L668,728 L667,728 L662,728 L661,728 L656,728 L655,728" fill="none" stroke="black" /><path d="M648,728 L648,730 L647,731 L646,732 L645,732" fill="none" stroke="black" /><path d="M648,728 L646,727 L645,727" fill="none" stroke="black" /><path d="M633,728 L632,728 L631,728 L626,728 L625,728 L618,728 L617,728 L611,728 L610,728 L604,728 L603,728" fill="none" stroke="black" /></svg>